<?xml version="1.0" encoding="utf-8"?>
<!-- Generator: Adobe Illustrator 16.2.1, SVG Export Plug-In . SVG Version: 6.00 Build 0)  -->
<!DOCTYPE svg PUBLIC "-//W3C//DTD SVG 1.1//EN" "http://www.w3.org/Graphics/SVG/1.1/DTD/svg11.dtd">
<svg version="1.1" xmlns="http://www.w3.org/2000/svg" xmlns:xlink="http://www.w3.org/1999/xlink" x="0px" y="0px" width="1920px"
	 height="150px" viewBox="0 0 1920 150" enable-background="new 0 0 1920 150" xml:space="preserve">
<g id="background">
</g>
<g id="noise">
</g>
<g id="content">
</g>
<g id="buttons">
</g>
<g id="icons">
</g>
<g id="conten_2t">
</g>
<g id="tabs">
</g>
<g id="header">
	<g>
		<g>
			<path fill="#FFFFFF" d="M1754.391,81.168c-0.119-1.738-0.182-3.189-0.218-4.932c-0.045-2.26-0.071-4.189-0.089-6.449
				c-0.007-1.24-0.143-2.269-0.449-3.447c-0.396-1.571-1.328-2.744-2.723-3.526c-0.841-0.493-1.634-0.782-2.576-0.984
				c-3.023-0.646-5.672-0.697-8.719-0.173c-0.865,0.148-1.574,0.351-2.371,0.68c-1.844,0.783-3.133,2.174-3.723,4.098
				c-0.228,0.729-0.291,1.39-0.201,2.146c0.016,0.14,0.053,0.257,0.111,0.384l7.045,0.17c-0.016-0.444,0.041-0.823,0.191-1.243
				c0.23-0.637,0.682-1.092,1.32-1.326c0.961-0.341,1.863-0.357,2.816-0.045c0.625,0.205,1.08,0.656,1.289,1.287
				c0.121,0.392,0.059,0.777-0.188,1.113c-0.219,0.297-0.477,0.496-0.814,0.626c-0.207,0.085-0.383,0.158-0.6,0.218
				c-0.975,0.259-1.805,0.44-2.818,0.606c-0.787,0.13-1.449,0.251-2.23,0.408c-1.084,0.213-1.967,0.444-2.994,0.778
				c-0.939,0.303-1.701,0.734-2.432,1.402c-0.943,0.889-1.481,1.914-1.664,3.184c-0.121,0.869-0.09,1.605,0.098,2.441
				c0.488,2.193,1.996,3.799,4.156,4.42c2.391,0.686,4.615,0.575,6.924-0.348c1.112-0.45,1.961-1.069,2.75-1.993l-0.516-3.597
				c-0.354,0.543-0.791,0.916-1.383,1.178c-0.557,0.246-1.061,0.377-1.663,0.436c-0.527,0.053-0.962,0.014-1.45-0.12
				c-0.396-0.108-0.707-0.297-0.986-0.597c-0.24-0.254-0.381-0.529-0.453-0.873c-0.107-0.547,0.062-1.051,0.473-1.4
				c0.275-0.231,0.541-0.389,0.879-0.514c0.812-0.296,1.527-0.523,2.361-0.758c1.008-0.285,1.84-0.592,2.812-1.029
				c0.092,0.76,0.086,1.415-0.02,2.17c-0.076,0.557-0.248,1.016-0.57,1.508l0.516,3.597c0.15,0.507,0.293,0.933,0.469,1.431
				c0.097,0.277,0.225,0.495,0.418,0.713h7.76C1754.598,82.289,1754.433,81.779,1754.391,81.168"/>
			<path fill="#FFFFFF" d="M1801.385,81.168c-0.117-1.738-0.182-3.189-0.217-4.932c-0.045-2.26-0.074-4.189-0.088-6.449
				c-0.01-1.24-0.143-2.269-0.449-3.447c-0.398-1.571-1.314-2.744-2.723-3.526c-0.84-0.493-1.615-0.782-2.58-0.984
				c-3.002-0.646-5.672-0.697-8.717-0.173c-0.85,0.148-1.562,0.351-2.371,0.68c-1.844,0.783-3.133,2.174-3.723,4.098
				c-0.229,0.729-0.291,1.39-0.203,2.146c0.02,0.14,0.053,0.257,0.115,0.384l7.045,0.17c-0.02-0.444,0.039-0.823,0.19-1.243
				c0.231-0.637,0.683-1.092,1.339-1.326c0.94-0.341,1.844-0.357,2.796-0.045c0.647,0.205,1.093,0.656,1.29,1.287
				c0.12,0.392,0.061,0.777-0.178,1.113c-0.209,0.297-0.465,0.496-0.812,0.626c-0.219,0.085-0.396,0.158-0.61,0.218
				c-0.973,0.259-1.805,0.44-2.804,0.606c-0.805,0.13-1.463,0.251-2.25,0.408c-1.057,0.213-1.965,0.444-2.992,0.778
				c-0.939,0.303-1.678,0.734-2.426,1.402c-0.943,0.889-1.486,1.914-1.666,3.184c-0.123,0.869-0.092,1.605,0.096,2.441
				c0.488,2.193,2.008,3.799,4.157,4.42c2.39,0.686,4.614,0.575,6.923-0.348c1.113-0.45,1.982-1.069,2.748-1.993l-0.494-3.597
				c-0.35,0.543-0.806,0.916-1.404,1.178c-0.555,0.246-1.059,0.377-1.66,0.436c-0.506,0.053-0.943,0.014-1.451-0.12
				c-0.396-0.108-0.705-0.297-0.986-0.597c-0.24-0.254-0.381-0.529-0.453-0.873c-0.109-0.547,0.061-1.051,0.474-1.4
				c0.272-0.231,0.541-0.389,0.878-0.514c0.832-0.296,1.529-0.523,2.361-0.758c1.006-0.285,1.859-0.592,2.811-1.029
				c0.094,0.76,0.09,1.415-0.018,2.17c-0.076,0.557-0.248,1.016-0.551,1.508l0.494,3.597c0.154,0.507,0.293,0.933,0.469,1.431
				c0.096,0.277,0.225,0.495,0.422,0.713h7.758C1801.594,82.289,1801.426,81.779,1801.385,81.168"/>
			<path fill="#FFFFFF" d="M1838.11,61.465c-0.825-0.129-1.53-0.184-2.362-0.184c-0.838,0-1.558,0.055-2.381,0.184
				c-2.408,0.375-4.348,1.357-6.111,3.031c-1.867,1.814-2.889,3.939-3.131,6.537c-0.148,1.583-0.021,2.969,0.416,4.5
				c0.652,2.37,1.879,4.184,3.834,5.688c1.275,0.977,2.543,1.562,4.133,1.906c1.115,0.243,2.084,0.347,3.24,0.347
				c1.141,0,2.104-0.104,3.242-0.347c1.568-0.344,2.842-0.93,4.131-1.906l-4.498-4.917c-0.727,1.6-2.58,2.304-4.182,1.594
				c-0.729-0.327-1.244-0.845-1.572-1.594c-0.303-0.673-0.48-1.276-0.59-2.005c-0.219-1.486-0.193-2.757,0.09-4.207
				c0.146-0.774,0.396-1.391,0.816-2.033c0.92-1.402,2.824-1.795,4.227-0.875c0.367,0.24,0.639,0.51,0.885,0.875
				c0.434,0.643,0.683,1.259,0.828,2.033c0.287,1.45,0.314,2.721,0.092,4.207c-0.108,0.729-0.287,1.332-0.594,2.005l4.498,4.917
				c1.936-1.504,3.184-3.317,3.838-5.688c0.424-1.531,0.545-2.917,0.402-4.5c-0.232-2.598-1.254-4.723-3.143-6.537
				C1842.475,62.822,1840.52,61.84,1838.11,61.465"/>
			<path fill="#FFFFFF" d="M1721.367,73.791h-5.381v-6.873h3.488c0.66,0,1.217-0.016,1.9-0.051c0.908-0.051,1.67-0.459,2.214-1.215
				c0.29-0.392,0.451-0.785,0.521-1.268c0.059-0.403,0.064-0.752,0.025-1.157c-0.15-1.54-1.41-2.681-2.932-2.681h-5.217v22.26
				h-8.885V53.5h14.537c0.572,0,1.059,0.012,1.631,0.043c3.855,0.209,7.033,2.359,8.682,5.857c0.846,1.81,1.131,3.573,0.914,5.559
				c-0.458,4.207-3.404,7.482-7.539,8.404C1723.942,73.662,1722.762,73.791,1721.367,73.791"/>
			<path fill="#FFFFFF" d="M1812.995,75.107c0.61,0.101,1.112,0.226,1.687,0.416c0.479,0.158,0.809,0.526,0.913,1.02
				c0.112,0.555-0.038,1.062-0.423,1.449c-0.391,0.396-0.832,0.623-1.383,0.709c-0.755,0.116-1.406,0.055-2.107-0.195
				c-0.337-0.123-0.605-0.276-0.881-0.507c-0.361-0.3-0.591-0.646-0.73-1.093c-0.123-0.4-0.172-0.734-0.165-1.129h-7.675v0.443
				c0,0.736,0.111,1.344,0.371,2.014c0.394,1.011,0.921,1.793,1.711,2.549c1.035,0.964,2.119,1.57,3.487,1.957
				c2.837,0.801,5.376,0.96,8.292,0.518c1.381-0.211,2.5-0.575,3.723-1.208c0.544-0.28,0.986-0.565,1.455-0.956
				c2.061-1.75,2.832-4.41,2-6.971c-0.312-0.981-0.805-1.729-1.57-2.39c-1.059-0.912-2.133-1.49-3.467-1.879
				c-0.295-0.085-0.541-0.155-0.835-0.259c-1.653-0.456-3.056-0.754-4.753-1.003c-0.449-0.065-0.828-0.139-1.271-0.243
				c-0.205-0.047-0.371-0.103-0.564-0.191c-0.469-0.211-0.681-0.762-0.464-1.231c0.009-0.024,0.021-0.046,0.036-0.07
				c0.25-0.448,0.621-0.751,1.117-0.907c0.865-0.252,1.672-0.232,2.545,0.059c0.82,0.301,1.334,1.051,1.297,1.918h7.387
				c-0.01-0.901-0.145-1.664-0.451-2.532c-0.312-0.86-0.781-1.515-1.502-2.081c-0.644-0.496-1.238-0.855-1.982-1.145
				c-0.726-0.279-1.361-0.457-2.149-0.59c-1.817-0.314-3.405-0.404-5.25-0.297c-1.056,0.062-1.961,0.191-2.993,0.434
				c-1.387,0.326-2.521,0.883-3.644,1.762c-0.954,0.748-1.578,1.619-1.989,2.784c-0.186,0.515-0.275,0.977-0.301,1.522
				c-0.039,0.91,0.094,1.689,0.444,2.559c0.61,1.52,1.688,2.598,3.212,3.225c0.791,0.307,1.465,0.51,2.275,0.678
				C1810.018,74.573,1811.381,74.83,1812.995,75.107"/>
			<path fill="#FFFFFF" d="M1763.656,64.088c1.036-0.893,2.012-1.533,3.248-2.119c2.029-0.93,4.061-1.078,6.188-0.457
				c2.305,0.668,3.945,2.296,4.67,4.568c0.361,1.1,0.511,2.068,0.511,3.209v13.518h-8.326V70.663c0-0.401-0.052-0.743-0.171-1.151
				c-0.211-0.696-0.67-1.205-1.34-1.49c-1.488-0.621-3.152-0.07-3.957,1.304c-0.336,0.595-0.488,1.157-0.488,1.821v11.66h-8.066
				V61.868h7.549L1763.656,64.088z"/>
			<path fill="#FFFFFF" d="M1856.255,64.088c1.032-0.893,2.007-1.533,3.247-2.119c2.023-0.93,4.055-1.078,6.182-0.457
				c2.303,0.668,3.949,2.296,4.676,4.568c0.354,1.1,0.508,2.068,0.508,3.209v13.518h-8.326V70.663c0-0.401-0.055-0.743-0.172-1.151
				c-0.212-0.696-0.672-1.205-1.342-1.49c-1.479-0.621-3.15-0.07-3.955,1.304c-0.338,0.595-0.49,1.157-0.49,1.821v11.66h-8.065
				V61.868h7.559L1856.255,64.088z"/>
			<rect x="1872.463" y="61.868" fill="#FFFFFF" width="7.826" height="20.938"/>
			<rect x="1872.463" y="53.5" fill="#FFFFFF" width="7.824" height="5.54"/>
			<path fill="#FFFFFF" d="M1901.355,80.076c-1.656,1.674-3.438,2.658-5.674,3.11c-1.51,0.305-2.828,0.369-4.361,0.21
				c-2.062-0.208-3.754-0.865-5.393-2.085c-1.346-1.022-2.316-2.101-3.152-3.544c-0.646-1.142-1.023-2.188-1.232-3.465
				c-0.3-1.791-0.22-3.347,0.252-5.098c1.062-3.955,4.045-6.767,8.055-7.596c2.299-0.474,4.324-0.424,6.576,0.158
				c1.604,0.413,2.881,1.133,4.133,2.261c0.811,0.711,1.354,1.423,1.836,2.37c0.568,1.09,0.801,2.152,0.736,3.404h-7.197
				c-0.158-0.975-0.615-1.734-1.385-2.32c-0.992-0.758-2.277-0.82-3.34-0.161c-0.727,0.452-1.225,1.065-1.49,1.884
				c-0.611,1.965-0.64,3.771-0.088,5.754c0.232,0.828,0.639,1.475,1.268,2.089c0.713,0.675,1.602,0.956,2.574,0.813
				c0.605-0.09,1.092-0.354,1.5-0.811c0.424-0.492,0.672-1,0.781-1.625c0.08-0.438,0.121-0.812,0.146-1.26h7.586
				C1903.635,76.428,1902.918,78.436,1901.355,80.076"/>
		</g>
		<rect fill="#FFFFFF" width="1920" height="150"/>
		<g opacity="0.2">
			<linearGradient id="SVGID_1_" gradientUnits="userSpaceOnUse" x1="1852.3008" y1="8.8105" x2="1688.5525" y2="188.5343">
				<stop  offset="0" style="stop-color:#B32317"/>
				<stop  offset="1" style="stop-color:#FFFFFF"/>
			</linearGradient>
			<polygon opacity="0.5" fill="url(#SVGID_1_)" points="1920,0 1527.32,150 1920,150 			"/>
			<linearGradient id="SVGID_2_" gradientUnits="userSpaceOnUse" x1="9" y1="75" x2="966.75" y2="75">
				<stop  offset="0" style="stop-color:#B32317"/>
				<stop  offset="1" style="stop-color:#FFFFFF"/>
			</linearGradient>
			<polygon opacity="0.5" fill="url(#SVGID_2_)" points="0,0 957.75,150 0,150 			"/>
		</g>
		<g>
			<path fill="#1F3C5C" d="M1660.562,84.471c-0.119-1.738-0.182-3.189-0.217-4.932c-0.045-2.26-0.072-4.189-0.09-6.449
				c-0.006-1.24-0.143-2.268-0.447-3.447c-0.398-1.57-1.33-2.744-2.725-3.525c-0.84-0.494-1.633-0.783-2.576-0.984
				c-3.023-0.646-5.672-0.697-8.719-0.174c-0.863,0.148-1.574,0.352-2.371,0.68c-1.842,0.783-3.133,2.174-3.723,4.098
				c-0.227,0.729-0.291,1.391-0.201,2.146c0.016,0.141,0.053,0.258,0.111,0.385l7.045,0.17c-0.016-0.445,0.041-0.824,0.191-1.244
				c0.23-0.637,0.682-1.092,1.32-1.326c0.961-0.34,1.863-0.357,2.816-0.045c0.625,0.205,1.08,0.656,1.289,1.287
				c0.121,0.393,0.059,0.777-0.188,1.113c-0.219,0.297-0.477,0.496-0.814,0.627c-0.207,0.084-0.383,0.158-0.6,0.217
				c-0.975,0.26-1.805,0.441-2.818,0.607c-0.787,0.129-1.449,0.25-2.23,0.408c-1.084,0.213-1.967,0.443-2.994,0.777
				c-0.939,0.303-1.701,0.734-2.432,1.402c-0.943,0.889-1.48,1.914-1.664,3.184c-0.119,0.869-0.09,1.605,0.1,2.441
				c0.486,2.193,1.994,3.799,4.154,4.42c2.391,0.686,4.615,0.576,6.924-0.348c1.113-0.449,1.961-1.068,2.75-1.992l-0.516-3.598
				c-0.354,0.543-0.791,0.916-1.383,1.178c-0.557,0.246-1.061,0.377-1.662,0.436c-0.527,0.053-0.963,0.014-1.451-0.119
				c-0.396-0.109-0.707-0.297-0.986-0.598c-0.24-0.254-0.381-0.529-0.453-0.873c-0.107-0.547,0.062-1.051,0.473-1.4
				c0.275-0.23,0.541-0.389,0.879-0.514c0.812-0.295,1.527-0.523,2.361-0.758c1.008-0.285,1.84-0.592,2.812-1.029
				c0.092,0.76,0.086,1.416-0.02,2.17c-0.076,0.557-0.248,1.016-0.57,1.508l0.516,3.598c0.15,0.506,0.293,0.932,0.469,1.43
				c0.098,0.277,0.225,0.496,0.418,0.713h7.76C1660.77,85.592,1660.605,85.082,1660.562,84.471"/>
			<path fill="#1F3C5C" d="M1707.557,84.471c-0.117-1.738-0.182-3.189-0.217-4.932c-0.045-2.26-0.074-4.189-0.088-6.449
				c-0.01-1.24-0.143-2.268-0.449-3.447c-0.398-1.57-1.314-2.744-2.723-3.525c-0.84-0.494-1.615-0.783-2.58-0.984
				c-3.002-0.646-5.672-0.697-8.717-0.174c-0.85,0.148-1.561,0.352-2.371,0.68c-1.844,0.783-3.133,2.174-3.723,4.098
				c-0.229,0.729-0.291,1.391-0.203,2.146c0.02,0.141,0.053,0.258,0.115,0.385l7.045,0.17c-0.02-0.445,0.039-0.824,0.191-1.244
				c0.23-0.637,0.682-1.092,1.338-1.326c0.941-0.34,1.844-0.357,2.797-0.045c0.646,0.205,1.092,0.656,1.289,1.287
				c0.121,0.393,0.061,0.777-0.178,1.113c-0.209,0.297-0.465,0.496-0.812,0.627c-0.217,0.084-0.396,0.158-0.609,0.217
				c-0.973,0.26-1.805,0.441-2.805,0.607c-0.805,0.129-1.463,0.25-2.25,0.408c-1.057,0.213-1.965,0.443-2.992,0.777
				c-0.939,0.303-1.678,0.734-2.426,1.402c-0.943,0.889-1.486,1.914-1.666,3.184c-0.123,0.869-0.092,1.605,0.096,2.441
				c0.488,2.193,2.008,3.799,4.158,4.42c2.389,0.686,4.613,0.576,6.922-0.348c1.113-0.449,1.982-1.068,2.748-1.992l-0.494-3.598
				c-0.35,0.543-0.805,0.916-1.404,1.178c-0.555,0.246-1.059,0.377-1.66,0.436c-0.506,0.053-0.943,0.014-1.451-0.119
				c-0.396-0.109-0.705-0.297-0.986-0.598c-0.24-0.254-0.381-0.529-0.453-0.873c-0.109-0.547,0.061-1.051,0.475-1.4
				c0.271-0.23,0.541-0.389,0.877-0.514c0.832-0.295,1.529-0.523,2.361-0.758c1.006-0.285,1.861-0.592,2.811-1.029
				c0.094,0.76,0.09,1.416-0.018,2.17c-0.076,0.557-0.248,1.016-0.551,1.508l0.494,3.598c0.154,0.506,0.293,0.932,0.469,1.43
				c0.096,0.277,0.225,0.496,0.422,0.713h7.758C1707.766,85.592,1707.598,85.082,1707.557,84.471"/>
			<path fill="#1F3C5C" d="M1744.283,64.768c-0.826-0.129-1.531-0.184-2.363-0.184c-0.838,0-1.557,0.055-2.381,0.184
				c-2.408,0.375-4.348,1.357-6.111,3.031c-1.867,1.814-2.889,3.939-3.131,6.537c-0.148,1.584-0.021,2.969,0.416,4.5
				c0.652,2.371,1.879,4.184,3.834,5.688c1.275,0.977,2.543,1.562,4.133,1.906c1.115,0.244,2.084,0.348,3.24,0.348
				c1.141,0,2.104-0.104,3.242-0.348c1.568-0.344,2.842-0.93,4.131-1.906l-4.498-4.916c-0.727,1.6-2.58,2.303-4.182,1.594
				c-0.729-0.328-1.244-0.846-1.57-1.594c-0.305-0.674-0.482-1.277-0.592-2.006c-0.219-1.486-0.193-2.756,0.09-4.207
				c0.146-0.773,0.396-1.391,0.816-2.033c0.92-1.402,2.824-1.795,4.227-0.875c0.367,0.24,0.639,0.51,0.885,0.875
				c0.434,0.643,0.684,1.26,0.828,2.033c0.287,1.451,0.314,2.721,0.094,4.207c-0.109,0.729-0.289,1.332-0.596,2.006l4.498,4.916
				c1.936-1.504,3.184-3.316,3.838-5.688c0.424-1.531,0.545-2.916,0.402-4.5c-0.232-2.598-1.254-4.723-3.143-6.537
				C1748.646,66.125,1746.691,65.143,1744.283,64.768"/>
			<path fill="#1F3C5C" d="M1627.539,77.094h-5.381v-6.873h3.488c0.66,0,1.217-0.016,1.9-0.051c0.91-0.051,1.67-0.459,2.215-1.215
				c0.289-0.391,0.451-0.785,0.52-1.268c0.059-0.402,0.064-0.752,0.025-1.156c-0.15-1.541-1.41-2.682-2.932-2.682h-5.217v22.26
				h-8.885V56.803h14.537c0.572,0,1.059,0.012,1.631,0.043c3.855,0.209,7.033,2.359,8.682,5.857
				c0.846,1.811,1.131,3.574,0.914,5.559c-0.457,4.207-3.404,7.482-7.539,8.404C1630.115,76.965,1628.934,77.094,1627.539,77.094"/>
			<path fill="#1F3C5C" d="M1719.168,78.41c0.609,0.102,1.111,0.227,1.686,0.416c0.479,0.158,0.809,0.527,0.914,1.02
				c0.111,0.555-0.039,1.062-0.424,1.449c-0.391,0.396-0.832,0.623-1.383,0.709c-0.754,0.117-1.406,0.055-2.107-0.195
				c-0.336-0.123-0.605-0.275-0.881-0.506c-0.361-0.301-0.59-0.646-0.73-1.094c-0.121-0.4-0.172-0.734-0.164-1.129h-7.674v0.443
				c0,0.736,0.109,1.344,0.369,2.014c0.395,1.012,0.922,1.793,1.711,2.549c1.035,0.965,2.119,1.57,3.488,1.957
				c2.836,0.801,5.375,0.961,8.291,0.518c1.381-0.211,2.5-0.574,3.723-1.207c0.545-0.281,0.986-0.566,1.455-0.957
				c2.061-1.75,2.832-4.41,2.002-6.971c-0.314-0.98-0.807-1.729-1.572-2.389c-1.059-0.912-2.133-1.49-3.467-1.879
				c-0.295-0.086-0.541-0.156-0.834-0.26c-1.654-0.455-3.057-0.754-4.754-1.002c-0.449-0.066-0.828-0.139-1.271-0.244
				c-0.203-0.047-0.371-0.102-0.564-0.191c-0.469-0.211-0.68-0.762-0.463-1.23c0.008-0.025,0.02-0.047,0.035-0.07
				c0.25-0.449,0.621-0.752,1.117-0.908c0.865-0.252,1.672-0.232,2.545,0.059c0.82,0.301,1.334,1.051,1.297,1.918h7.387
				c-0.01-0.9-0.145-1.664-0.451-2.531c-0.312-0.861-0.781-1.516-1.502-2.082c-0.643-0.496-1.238-0.855-1.982-1.145
				c-0.725-0.279-1.361-0.457-2.148-0.59c-1.818-0.314-3.406-0.404-5.25-0.297c-1.057,0.062-1.961,0.191-2.994,0.434
				c-1.387,0.326-2.521,0.883-3.643,1.762c-0.955,0.748-1.578,1.619-1.99,2.785c-0.186,0.514-0.275,0.977-0.301,1.521
				c-0.039,0.91,0.094,1.689,0.445,2.559c0.609,1.52,1.688,2.598,3.211,3.225c0.791,0.307,1.465,0.51,2.275,0.678
				C1716.189,77.877,1717.553,78.133,1719.168,78.41"/>
			<path fill="#1F3C5C" d="M1669.828,67.391c1.037-0.893,2.012-1.533,3.248-2.119c2.029-0.93,4.061-1.078,6.188-0.457
				c2.305,0.668,3.945,2.297,4.67,4.568c0.361,1.1,0.512,2.068,0.512,3.209v13.518h-8.326V73.967c0-0.402-0.053-0.744-0.172-1.152
				c-0.211-0.695-0.67-1.205-1.34-1.49c-1.486-0.621-3.152-0.07-3.957,1.305c-0.336,0.594-0.488,1.156-0.488,1.82v11.66h-8.066
				V65.172h7.549L1669.828,67.391z"/>
			<path fill="#1F3C5C" d="M1762.428,67.391c1.031-0.893,2.006-1.533,3.246-2.119c2.023-0.93,4.055-1.078,6.182-0.457
				c2.303,0.668,3.949,2.297,4.676,4.568c0.355,1.1,0.508,2.068,0.508,3.209v13.518h-8.326V73.967c0-0.402-0.055-0.744-0.172-1.152
				c-0.211-0.695-0.672-1.205-1.342-1.49c-1.479-0.621-3.15-0.07-3.955,1.305c-0.336,0.594-0.49,1.156-0.49,1.82v11.66h-8.064
				V65.172h7.559L1762.428,67.391z"/>
			<rect x="1778.635" y="65.172" fill="#1F3C5C" width="7.826" height="20.938"/>
			<rect x="1778.635" y="56.803" fill="#1F3C5C" width="7.824" height="5.541"/>
			<path fill="#1F3C5C" d="M1807.527,83.379c-1.654,1.674-3.438,2.658-5.674,3.111c-1.51,0.305-2.828,0.369-4.361,0.209
				c-2.062-0.207-3.754-0.865-5.393-2.084c-1.346-1.023-2.316-2.102-3.152-3.545c-0.645-1.141-1.021-2.188-1.232-3.465
				c-0.299-1.791-0.219-3.346,0.252-5.098c1.062-3.955,4.045-6.766,8.055-7.596c2.299-0.473,4.324-0.424,6.576,0.158
				c1.604,0.414,2.881,1.133,4.133,2.262c0.811,0.711,1.354,1.422,1.836,2.369c0.568,1.09,0.801,2.152,0.736,3.404h-7.197
				c-0.158-0.975-0.615-1.734-1.383-2.32c-0.994-0.758-2.279-0.82-3.342-0.16c-0.727,0.451-1.225,1.064-1.49,1.883
				c-0.611,1.965-0.639,3.771-0.088,5.754c0.232,0.828,0.639,1.475,1.268,2.09c0.713,0.674,1.602,0.955,2.574,0.812
				c0.605-0.09,1.092-0.354,1.5-0.811c0.424-0.492,0.672-1,0.781-1.625c0.08-0.438,0.121-0.812,0.146-1.26h7.586
				C1809.807,79.73,1809.09,81.738,1807.527,83.379"/>
		</g>
		<linearGradient id="SVGID_3_" gradientUnits="userSpaceOnUse" x1="0" y1="42.0293" x2="1077.2588" y2="42.0293">
			<stop  offset="0" style="stop-color:#002964"/>
			<stop  offset="1" style="stop-color:#FFFFFF"/>
		</linearGradient>
		<polygon opacity="0.2" fill="url(#SVGID_3_)" points="0,84.059 1077.259,0 0,0 		"/>
		<linearGradient id="SVGID_4_" gradientUnits="userSpaceOnUse" x1="939.7715" y1="75" x2="1920" y2="75">
			<stop  offset="0" style="stop-color:#002964"/>
			<stop  offset="1" style="stop-color:#FFFFFF"/>
		</linearGradient>
		<polygon opacity="0.2" fill="url(#SVGID_4_)" points="1605.955,0 1562.628,0 939.771,150 1920,150 		"/>
	</g>
	<text transform="matrix(1 0 0 1 136.5 94.9404)" fill="#B32317" font-family="'DINNextLTPro-Light'" font-size="60">BACKGROUND</text>
	<rect x="136" y="136" fill="#B32317" width="48" height="14"/>
</g>
<g id="_x33__col_guides">
</g>
</svg>
