<?xml version="1.0" encoding="utf-8"?>
<!-- Generator: Adobe Illustrator 16.2.1, SVG Export Plug-In . SVG Version: 6.00 Build 0)  -->
<!DOCTYPE svg PUBLIC "-//W3C//DTD SVG 1.1//EN" "http://www.w3.org/Graphics/SVG/1.1/DTD/svg11.dtd">
<svg version="1.1" xmlns="http://www.w3.org/2000/svg" xmlns:xlink="http://www.w3.org/1999/xlink" x="0px" y="0px" width="1920px"
	 height="1080px" viewBox="0 0 1920 1080" enable-background="new 0 0 1920 1080" xml:space="preserve">
<g id="background">
	
		<linearGradient id="SVGID_1_" gradientUnits="userSpaceOnUse" x1="-51.6582" y1="552.6797" x2="904.4247" y2="1193.009" gradientTransform="matrix(1 0 0 1 659.8105 0)">
		<stop  offset="0" style="stop-color:#CDCCCB"/>
		<stop  offset="1" style="stop-color:#FFFFFF"/>
	</linearGradient>
	<polygon opacity="0.2" fill="url(#SVGID_1_)" points="1920,1080 871,1080 871,501 1920,1080 	"/>
	<linearGradient id="SVGID_2_" gradientUnits="userSpaceOnUse" x1="-13.1626" y1="238.9419" x2="817.9925" y2="795.6018">
		<stop  offset="0" style="stop-color:#002D62"/>
		<stop  offset="1" style="stop-color:#FFFFFF"/>
	</linearGradient>
	<polygon opacity="0.2" fill="url(#SVGID_2_)" points="871,1080 1.702,1080 1.702,513 871,0 	"/>
	
		<linearGradient id="SVGID_3_" gradientUnits="userSpaceOnUse" x1="3347.0098" y1="314.0474" x2="4096.4624" y2="815.9877" gradientTransform="matrix(-1 0 0 1 4140.8906 0)">
		<stop  offset="0" style="stop-color:#569BBE"/>
		<stop  offset="1" style="stop-color:#FFFFFF"/>
	</linearGradient>
	<polygon opacity="0.2" fill="url(#SVGID_3_)" points="1.702,1080 871,1080 871,696.324 1.702,27 	"/>
	<linearGradient id="SVGID_4_" gradientUnits="userSpaceOnUse" x1="1887.1016" y1="540" x2="565.6968" y2="539.9999">
		<stop  offset="0" style="stop-color:#FFFFFF;stop-opacity:0"/>
		<stop  offset="0.9887" style="stop-color:#D5DEDC"/>
	</linearGradient>
	<rect x="871" opacity="0.5" fill="url(#SVGID_4_)" width="1049" height="1080"/>
	<linearGradient id="SVGID_5_" gradientUnits="userSpaceOnUse" x1="1887.1016" y1="540" x2="565.6968" y2="539.9999">
		<stop  offset="0" style="stop-color:#FFFFFF;stop-opacity:0"/>
		<stop  offset="0.9887" style="stop-color:#A6B4AC"/>
	</linearGradient>
	<polygon opacity="0.3" fill="url(#SVGID_5_)" points="1920,1080 871,1080 871,651 1589,0 1920,0 	"/>
</g>
<g id="content" display="none">
	<linearGradient id="SVGID_6_" gradientUnits="userSpaceOnUse" x1="435.8511" y1="1214.2363" x2="435.851" y2="794.1541">
		<stop  offset="0" style="stop-color:#CDCCCB"/>
		<stop  offset="1" style="stop-color:#FFFFFF"/>
	</linearGradient>
	<rect x="1.702" y="679.99" display="inline" fill="url(#SVGID_6_)" width="868.298" height="400.01"/>
	<linearGradient id="SVGID_7_" gradientUnits="userSpaceOnUse" x1="461.1445" y1="627.0664" x2="842.5117" y2="627.0664">
		<stop  offset="0" style="stop-color:#FFFFFF"/>
		<stop  offset="1" style="stop-color:#260859"/>
	</linearGradient>
	<circle display="inline" opacity="0.2" fill="url(#SVGID_7_)" cx="651.828" cy="627.066" r="190.684"/>
	<g display="inline">
		<path fill="#0067B1" d="M1714.389,1030.322c-0.121-1.777-0.186-3.26-0.223-5.041c-0.047-2.311-0.072-4.281-0.091-6.592
			c-0.007-1.268-0.146-2.318-0.458-3.523c-0.407-1.605-1.358-2.807-2.783-3.605c-0.86-0.504-1.672-0.799-2.635-1.006
			c-3.091-0.658-5.798-0.713-8.912-0.176c-0.883,0.15-1.609,0.357-2.424,0.693c-1.883,0.801-3.201,2.223-3.805,4.189
			c-0.232,0.744-0.298,1.42-0.205,2.195c0.016,0.141,0.053,0.262,0.114,0.391l7.2,0.174c-0.017-0.453,0.042-0.842,0.195-1.27
			c0.236-0.652,0.697-1.118,1.35-1.355c0.983-0.35,1.904-0.367,2.879-0.047c0.64,0.209,1.104,0.672,1.318,1.316
			c0.123,0.398,0.06,0.793-0.191,1.137c-0.225,0.303-0.487,0.508-0.832,0.641c-0.212,0.086-0.393,0.162-0.613,0.223
			c-0.996,0.264-1.846,0.449-2.882,0.619c-0.804,0.133-1.481,0.258-2.28,0.418c-1.107,0.217-2.01,0.453-3.061,0.795
			c-0.96,0.311-1.738,0.752-2.484,1.434c-0.964,0.908-1.515,1.957-1.701,3.254c-0.123,0.889-0.092,1.643,0.101,2.496
			c0.499,2.242,2.039,3.883,4.247,4.518c2.444,0.699,4.718,0.588,7.078-0.355c1.137-0.461,2.004-1.094,2.811-2.037l-0.527-3.678
			c-0.36,0.557-0.808,0.938-1.414,1.205c-0.568,0.252-1.085,0.385-1.699,0.445c-0.539,0.053-0.982,0.014-1.481-0.123
			c-0.405-0.111-0.724-0.303-1.009-0.609c-0.246-0.26-0.389-0.541-0.463-0.893c-0.111-0.561,0.063-1.074,0.482-1.432
			c0.281-0.236,0.553-0.398,0.899-0.525c0.829-0.303,1.561-0.535,2.413-0.775c1.03-0.291,1.881-0.604,2.874-1.051
			c0.095,0.777,0.089,1.445-0.019,2.219c-0.078,0.568-0.254,1.037-0.584,1.539l0.527,3.678c0.154,0.518,0.299,0.952,0.479,1.463
			c0.1,0.283,0.23,0.506,0.428,0.729h7.932C1714.6,1031.469,1714.432,1030.947,1714.389,1030.322"/>
		<path fill="#0067B1" d="M1762.422,1030.322c-0.119-1.777-0.186-3.26-0.221-5.041c-0.045-2.311-0.074-4.281-0.09-6.592
			c-0.01-1.268-0.146-2.318-0.459-3.523c-0.408-1.605-1.344-2.807-2.783-3.605c-0.859-0.504-1.65-0.799-2.637-1.006
			c-3.068-0.658-5.799-0.713-8.91-0.176c-0.869,0.15-1.596,0.357-2.424,0.693c-1.885,0.801-3.201,2.223-3.805,4.189
			c-0.232,0.744-0.297,1.42-0.207,2.195c0.02,0.141,0.055,0.262,0.117,0.391l7.201,0.174c-0.02-0.453,0.039-0.842,0.193-1.27
			c0.236-0.652,0.697-1.118,1.369-1.355c0.961-0.35,1.885-0.367,2.857-0.047c0.662,0.209,1.117,0.672,1.318,1.316
			c0.123,0.398,0.062,0.793-0.18,1.137c-0.215,0.303-0.477,0.508-0.832,0.641c-0.223,0.086-0.404,0.162-0.623,0.223
			c-0.994,0.264-1.846,0.449-2.865,0.619c-0.824,0.133-1.496,0.258-2.301,0.418c-1.078,0.217-2.008,0.453-3.057,0.795
			c-0.961,0.311-1.717,0.752-2.48,1.434c-0.965,0.908-1.52,1.957-1.703,3.254c-0.125,0.889-0.094,1.643,0.098,2.496
			c0.5,2.242,2.053,3.883,4.25,4.518c2.441,0.699,4.715,0.588,7.074-0.355c1.139-0.461,2.027-1.094,2.811-2.037l-0.506-3.678
			c-0.357,0.557-0.824,0.938-1.436,1.205c-0.568,0.252-1.082,0.385-1.697,0.445c-0.518,0.053-0.965,0.014-1.484-0.123
			c-0.404-0.111-0.721-0.303-1.008-0.609c-0.244-0.26-0.389-0.541-0.463-0.893c-0.111-0.561,0.062-1.074,0.484-1.432
			c0.279-0.236,0.553-0.398,0.898-0.525c0.85-0.303,1.562-0.535,2.414-0.775c1.027-0.291,1.9-0.604,2.871-1.051
			c0.096,0.777,0.092,1.445-0.018,2.219c-0.078,0.568-0.252,1.037-0.562,1.539l0.506,3.678c0.156,0.518,0.299,0.952,0.479,1.463
			c0.098,0.283,0.23,0.506,0.43,0.729h7.93C1762.637,1031.469,1762.465,1030.947,1762.422,1030.322"/>
		<path fill="#0067B1" d="M1799.963,1010.184c-0.844-0.133-1.564-0.189-2.416-0.189c-0.855,0-1.592,0.057-2.434,0.189
			c-2.461,0.383-4.443,1.387-6.246,3.098c-1.908,1.855-2.953,4.025-3.201,6.682c-0.15,1.619-0.021,3.035,0.426,4.6
			c0.668,2.424,1.92,4.277,3.92,5.814c1.303,0.998,2.598,1.598,4.225,1.947c1.139,0.25,2.129,0.355,3.311,0.355
			c1.166,0,2.15-0.105,3.314-0.355c1.604-0.35,2.906-0.949,4.223-1.947l-4.598-5.025c-0.742,1.635-2.637,2.353-4.273,1.629
			c-0.746-0.336-1.273-0.863-1.607-1.629c-0.311-0.689-0.492-1.307-0.604-2.051c-0.223-1.518-0.197-2.818,0.092-4.301
			c0.15-0.791,0.406-1.421,0.834-2.076c0.941-1.436,2.889-1.836,4.32-0.895c0.375,0.244,0.652,0.52,0.904,0.895
			c0.443,0.655,0.699,1.285,0.848,2.076c0.293,1.482,0.32,2.783,0.094,4.301c-0.111,0.744-0.295,1.361-0.607,2.051l4.598,5.025
			c1.979-1.537,3.254-3.391,3.922-5.814c0.434-1.564,0.559-2.98,0.412-4.6c-0.238-2.656-1.281-4.826-3.211-6.682
			C1804.424,1011.57,1802.424,1010.566,1799.963,1010.184"/>
		<path fill="#0067B1" d="M1680.633,1022.781h-5.5v-7.023h3.564c0.676,0,1.246-0.016,1.943-0.053
			c0.929-0.053,1.707-0.469,2.264-1.242c0.295-0.4,0.461-0.803,0.532-1.295c0.059-0.412,0.065-0.77,0.025-1.184
			c-0.153-1.574-1.44-2.74-2.997-2.74h-5.332v22.754h-9.082v-29.957h14.859c0.586,0,1.082,0.014,1.668,0.045
			c3.939,0.213,7.189,2.41,8.873,5.986c0.865,1.85,1.157,3.652,0.936,5.682c-0.469,4.301-3.48,7.648-7.707,8.592
			C1683.266,1022.65,1682.059,1022.781,1680.633,1022.781"/>
		<path fill="#0067B1" d="M1774.291,1024.127c0.623,0.104,1.137,0.23,1.725,0.426c0.488,0.162,0.824,0.539,0.932,1.041
			c0.115,0.568-0.037,1.088-0.432,1.482c-0.398,0.404-0.852,0.637-1.414,0.725c-0.771,0.119-1.436,0.057-2.152-0.199
			c-0.346-0.125-0.621-0.283-0.902-0.518c-0.369-0.307-0.604-0.66-0.746-1.117c-0.125-0.41-0.176-0.752-0.168-1.154h-7.844v0.453
			c0,0.754,0.111,1.375,0.377,2.059c0.402,1.033,0.941,1.832,1.75,2.604c1.057,0.986,2.166,1.605,3.564,2.002
			c2.9,0.818,5.496,0.98,8.477,0.529c1.41-0.215,2.555-0.588,3.803-1.234c0.557-0.287,1.01-0.578,1.488-0.979
			c2.105-1.787,2.895-4.508,2.045-7.123c-0.32-1.004-0.822-1.768-1.605-2.443c-1.082-0.934-2.18-1.523-3.545-1.922
			c-0.299-0.086-0.553-0.158-0.852-0.264c-1.691-0.467-3.125-0.771-4.859-1.025c-0.459-0.066-0.846-0.143-1.299-0.248
			c-0.209-0.049-0.381-0.105-0.578-0.197c-0.479-0.215-0.695-0.777-0.473-1.258c0.01-0.023,0.021-0.047,0.035-0.072
			c0.258-0.457,0.637-0.768,1.143-0.928c0.885-0.256,1.709-0.236,2.602,0.061c0.838,0.307,1.363,1.074,1.326,1.961h7.549
			c-0.01-0.922-0.146-1.701-0.461-2.588c-0.318-0.881-0.797-1.549-1.535-2.127c-0.656-0.508-1.264-0.875-2.025-1.17
			c-0.742-0.287-1.393-0.469-2.197-0.604c-1.857-0.322-3.48-0.414-5.365-0.305c-1.08,0.064-2.006,0.195-3.061,0.443
			c-1.416,0.334-2.578,0.904-3.725,1.803c-0.975,0.764-1.613,1.654-2.033,2.844c-0.189,0.527-0.281,1-0.307,1.557
			c-0.041,0.93,0.096,1.729,0.453,2.615c0.625,1.555,1.727,2.656,3.283,3.297c0.809,0.312,1.498,0.521,2.326,0.691
			C1771.246,1023.582,1772.641,1023.844,1774.291,1024.127"/>
		<path fill="#0067B1" d="M1723.859,1012.863c1.059-0.912,2.057-1.566,3.32-2.164c2.074-0.951,4.15-1.104,6.324-0.469
			c2.355,0.684,4.033,2.348,4.773,4.67c0.369,1.125,0.521,2.115,0.521,3.279v13.818h-8.51v-12.414c0-0.41-0.053-0.76-0.176-1.176
			c-0.215-0.713-0.684-1.233-1.369-1.523c-1.52-0.635-3.221-0.072-4.045,1.332c-0.342,0.607-0.498,1.184-0.498,1.863v11.918h-8.246
			v-21.402h7.717L1723.859,1012.863z"/>
		<path fill="#0067B1" d="M1818.51,1012.863c1.055-0.912,2.051-1.566,3.318-2.164c2.068-0.951,4.145-1.104,6.318-0.469
			c2.354,0.684,4.037,2.348,4.781,4.67c0.361,1.125,0.518,2.115,0.518,3.279v13.818h-8.512v-12.414c0-0.41-0.055-0.76-0.174-1.176
			c-0.217-0.713-0.688-1.233-1.373-1.523c-1.512-0.635-3.219-0.072-4.041,1.332c-0.346,0.607-0.502,1.184-0.502,1.863v11.918h-8.244
			v-21.402h7.727L1818.51,1012.863z"/>
		<rect x="1835.076" y="1010.596" fill="#0067B1" width="8" height="21.402"/>
		<rect x="1835.076" y="1002.041" fill="#0067B1" width="7.998" height="5.664"/>
		<path fill="#0067B1" d="M1864.609,1029.207c-1.691,1.711-3.514,2.717-5.801,3.18c-1.543,0.311-2.891,0.377-4.457,0.213
			c-2.109-0.211-3.836-0.883-5.512-2.131c-1.377-1.045-2.367-2.146-3.223-3.623c-0.66-1.166-1.045-2.236-1.26-3.541
			c-0.307-1.83-0.225-3.42,0.258-5.209c1.086-4.043,4.135-6.918,8.232-7.766c2.35-0.484,4.422-0.432,6.723,0.162
			c1.639,0.422,2.943,1.158,4.225,2.311c0.828,0.727,1.383,1.455,1.876,2.425c0.583,1.112,0.819,2.198,0.753,3.478h-7.355
			c-0.162-0.996-0.631-1.773-1.416-2.371c-1.016-0.775-2.328-0.84-3.414-0.164c-0.742,0.461-1.252,1.088-1.523,1.926
			c-0.625,2.008-0.654,3.855-0.09,5.882c0.238,0.845,0.652,1.507,1.295,2.134c0.73,0.689,1.639,0.977,2.631,0.83
			c0.619-0.092,1.117-0.361,1.533-0.826c0.436-0.504,0.688-1.023,0.799-1.662c0.082-0.447,0.123-0.83,0.15-1.287h7.754
			C1866.939,1025.479,1866.205,1027.529,1864.609,1029.207"/>
	</g>
	<rect x="363" y="528" display="inline" fill="#6E1D63" width="52" height="14"/>
	<g display="inline">
		<linearGradient id="SVGID_8_" gradientUnits="userSpaceOnUse" x1="568.1816" y1="812.6211" x2="759.8334" y2="748.7374">
			<stop  offset="0" style="stop-color:#FFFFFF;stop-opacity:0"/>
			<stop  offset="0.9887" style="stop-color:#A6B4AC"/>
		</linearGradient>
		<polygon opacity="0.3" fill="url(#SVGID_8_)" points="139.427,937.654 139.427,1080 278.115,1080 776.74,638.723 577.806,638.723 
					"/>
		<g>
			<g>
				<g>
					<g>
						<g>
							<polygon fill="#001840" points="609.542,578 665.266,643 716.529,643 637.504,578 							"/>
						</g>
						<path fill="#2C9CB1" d="M745.875,614H587.876l-24.458-20h-18.641l35.825,49.785L580.591,644h0.197h41.268H768
							c17,0,15-20.613,0-20.613C761,623.387,758.601,614,745.875,614z"/>
						<g>
							<polygon fill="#569BBE" points="579.378,642.047 580.602,643.744 580.603,643.727 							"/>
							<polygon fill="#0067B1" points="574.241,636 579.378,643.041 574.3,636 							"/>
							<polygon fill="#0067B1" points="580.602,643.744 580.591,643.857 580.603,643.746 							"/>
							<g>
								<path fill="#001840" d="M580.591,645h0.197h41.268H768.56c6.478,0,10.042-3,10.959-8h-204.42l5.504,7.761L580.591,645z"/>
							</g>
						</g>
						<g>
							<polygon fill="#569BBE" points="651.569,631 610.589,644 622.056,644 654.683,644 694.607,631 							"/>
						</g>
						<g>
							<path d="M745.057,622.977h20.809c-2.806-0.879-4.984-3.026-7.752-5.002h-13.056V622.977z"/>
						</g>
						<g>
							<rect x="625.611" y="623.223" width="8.62" height="5.002"/>
							<rect x="611.951" y="623.223" width="8.619" height="5.002"/>
							<rect x="596.771" y="623.223" width="8.62" height="5.002"/>
							<rect x="669.628" y="623.223" width="8.62" height="5.002"/>
							<rect x="655.968" y="623.223" width="8.619" height="5.002"/>
							<rect x="640.789" y="623.223" width="8.62" height="5.002"/>
							<rect x="713.646" y="623.223" width="8.62" height="5.002"/>
							<rect x="699.985" y="623.223" width="8.621" height="5.002"/>
							<rect x="684.806" y="623.223" width="8.62" height="5.002"/>
							<rect x="728.825" y="623.223" width="8.618" height="5.002"/>
						</g>
					</g>
					<polygon fill="#2C9CB1" points="595.846,694 651.569,629 702.833,629 623.808,694 					"/>
					<g>
						<polygon fill="#569BBE" points="569.614,619 564.417,621.329 567.957,626.217 588.388,619 						"/>
					</g>
				</g>
				<polygon fill="#001840" points="549.209,644 569.614,620 588.388,620 559.449,644 				"/>
			</g>
			<line fill="none" stroke="#711471" stroke-width="3" stroke-miterlimit="10" x1="531" y1="598.5" x2="521" y2="598.5"/>
			<line fill="none" stroke="#711471" stroke-width="3" stroke-miterlimit="10" x1="511" y1="598.5" x2="480" y2="598.5"/>
			<line fill="none" stroke="#711471" stroke-width="3" stroke-miterlimit="10" x1="544" y1="616.5" x2="508" y2="616.5"/>
			<line fill="none" stroke="#711471" stroke-width="3" stroke-miterlimit="10" x1="523" y1="633.5" x2="497" y2="633.5"/>
			<line fill="none" stroke="#711471" stroke-width="3" stroke-miterlimit="10" x1="498" y1="616.5" x2="492" y2="616.5"/>
		</g>
	</g>
	
		<line display="inline" fill="none" stroke="#260859" stroke-width="3" stroke-miterlimit="10" x1="945" y1="325.5" x2="1560" y2="325.5"/>
	<polygon display="inline" fill="none" points="869.138,546.767 354.027,546.767 355.26,323.346 870.371,323.346 	"/>
	<text transform="matrix(1 0 0 1 355.2231 390.7236)" display="inline"><tspan x="0" y="0" font-family="'DINNextLTPro-Light'" font-size="99.0873">SOLUTION </tspan><tspan x="-0.583" y="105.692" font-family="'DINNextLTPro-Light'" font-size="99.0873">BUILDER</tspan></text>
	<g display="inline">
		<rect x="950.938" y="362.898" fill="none" width="602" height="251.511"/>
		<text transform="matrix(1 0 0 1 950.9375 381.9385)"><tspan x="0" y="0" fill="#260859" font-family="'DINNextLTPro-BoldItalic'" font-size="28">Reality: </tspan><tspan x="96.402" y="0" fill="#260859" font-family="'DINNextLTPro-Italic'" font-size="28">0.1% overall airline profit margin</tspan><tspan x="0" y="39" fill="#260859" font-family="'DINNextLTPro-BoldItalic'" font-size="28">Metrics of success: </tspan><tspan x="233.854" y="39" fill="#260859" font-family="'DINNextLTPro-Italic'" font-size="28">CASK, RASK</tspan><tspan x="0" y="78" fill="#260859" font-family="'DINNextLTPro-BoldItalic'" font-size="28">The question: </tspan><tspan x="166.346" y="78" fill="#260859" font-family="'DINNextLTPro-Italic'" font-size="28">How can an IFEC system </tspan><tspan x="0" y="117" fill="#260859" font-family="'DINNextLTPro-Italic'" font-size="28">contribute to solving key airline issues?</tspan><tspan x="0" y="156" fill="#260859" font-family="'DINNextLTPro-BoldItalic'" font-size="28">Leverage points: </tspan><tspan x="204.286" y="156" fill="#260859" font-family="'DINNextLTPro-Italic'" font-size="28">Manage TCO, Generate Revenue, </tspan><tspan x="0" y="195" fill="#260859" font-family="'DINNextLTPro-Italic'" font-size="28">Differentiate Brand</tspan></text>
	</g>
</g>
<g id="button" display="none">
	<g display="inline">
		<linearGradient id="SVGID_9_" gradientUnits="userSpaceOnUse" x1="954.5273" y1="784.6689" x2="1070.4799" y2="696.9977">
			<stop  offset="0" style="stop-color:#FFFFFF;stop-opacity:0"/>
			<stop  offset="0.9887" style="stop-color:#A4B2AA"/>
		</linearGradient>
		<polygon opacity="0.7" fill="url(#SVGID_9_)" points="1081.358,841.899 787.749,837.749 953.729,632.146 1157.216,766.043 		"/>
		<rect x="953" y="632" fill="#0D1840" width="203" height="133"/>
		<g>
			<linearGradient id="SVGID_10_" gradientUnits="userSpaceOnUse" x1="962" y1="698.5" x2="1149" y2="698.5">
				<stop  offset="0" style="stop-color:#FFFFFF;stop-opacity:0"/>
				<stop  offset="0.9905" style="stop-color:#FFFFFF"/>
			</linearGradient>
			<rect x="962" y="640" opacity="0.2" fill="url(#SVGID_10_)" width="187" height="117"/>
			<linearGradient id="SVGID_11_" gradientUnits="userSpaceOnUse" x1="991.2695" y1="696.0459" x2="924.4234" y2="713.6359">
				<stop  offset="0" style="stop-color:#FFFFFF;stop-opacity:0"/>
				<stop  offset="0.9905" style="stop-color:#FFFFFF"/>
			</linearGradient>
			<polygon opacity="0.3" fill="url(#SVGID_11_)" points="961,756 961,639 997,639 1010.488,756 			"/>
			<linearGradient id="SVGID_12_" gradientUnits="userSpaceOnUse" x1="1108.4746" y1="692.7891" x2="1216.0781" y2="617.4677">
				<stop  offset="0" style="stop-color:#FFFFFF;stop-opacity:0"/>
				<stop  offset="0.9905" style="stop-color:#FFFFFF"/>
			</linearGradient>
			<polygon opacity="0.4" fill="url(#SVGID_12_)" points="1075,756 1054.484,639 1149,639 1149,756 			"/>
		</g>
		<g>
			<g>
				<polygon fill="#FFFFFF" points="1048.51,749 1058.685,749 1071.096,737 1058.685,725 1048.51,725 1060.92,737 				"/>
			</g>
		</g>
		<polygon fill="none" points="1157.055,733.665 953.389,733.665 953.804,649.762 1157.467,649.762 		"/>
		<text transform="matrix(1 0 0 1 1022.8643 673.5605)"><tspan x="0" y="0" fill="#FFFFFF" font-family="'DINNextLTPro-Regular'" font-size="35" letter-spacing="2">GET </tspan><tspan x="-46.672" y="39" fill="#FFFFFF" font-family="'DINNextLTPro-Regular'" font-size="35" letter-spacing="2">STARTED</tspan></text>
	</g>
</g>
<g id="_x33__column_grid" display="none">
</g>
<g id="_x32__column_grid" display="none">
</g>
</svg>
