<?xml version="1.0" encoding="utf-8"?>
<!-- Generator: Adobe Illustrator 16.2.1, SVG Export Plug-In . SVG Version: 6.00 Build 0)  -->
<!DOCTYPE svg PUBLIC "-//W3C//DTD SVG 1.1//EN" "http://www.w3.org/Graphics/SVG/1.1/DTD/svg11.dtd">
<svg version="1.1" xmlns="http://www.w3.org/2000/svg" xmlns:xlink="http://www.w3.org/1999/xlink" x="0px" y="0px"
	 width="369.718px" height="210px" viewBox="0 0 369.718 210" enable-background="new 0 0 369.718 210" xml:space="preserve">
<g id="background">
</g>
<g id="content">
</g>
<g id="button">
	<g>
		<linearGradient id="SVGID_1_" gradientUnits="userSpaceOnUse" x1="166.3008" y1="153.084" x2="283.0505" y2="64.8099">
			<stop  offset="0" style="stop-color:#FFFFFF;stop-opacity:0"/>
			<stop  offset="0.9887" style="stop-color:#A4B2AA"/>
		</linearGradient>
		<polygon opacity="0.7" fill="url(#SVGID_1_)" points="293.609,210 1,210 165.917,0.197 369.467,133.118 		"/>
		<rect x="166.251" fill="#0D1840" width="203" height="133"/>
		<g>
			<linearGradient id="SVGID_2_" gradientUnits="userSpaceOnUse" x1="175.251" y1="66.5" x2="362.251" y2="66.5">
				<stop  offset="0" style="stop-color:#FFFFFF;stop-opacity:0"/>
				<stop  offset="0.9905" style="stop-color:#FFFFFF"/>
			</linearGradient>
			<rect x="175.251" y="8" opacity="0.2" fill="url(#SVGID_2_)" width="187" height="117"/>
			<linearGradient id="SVGID_3_" gradientUnits="userSpaceOnUse" x1="204.5205" y1="64.0469" x2="137.6744" y2="81.6369">
				<stop  offset="0" style="stop-color:#FFFFFF;stop-opacity:0"/>
				<stop  offset="0.9905" style="stop-color:#FFFFFF"/>
			</linearGradient>
			<polygon opacity="0.3" fill="url(#SVGID_3_)" points="174.251,124 174.251,7 210.251,7 223.739,124 			"/>
			<linearGradient id="SVGID_4_" gradientUnits="userSpaceOnUse" x1="321.7256" y1="60.7891" x2="429.3292" y2="-14.5323">
				<stop  offset="0" style="stop-color:#FFFFFF;stop-opacity:0"/>
				<stop  offset="0.9905" style="stop-color:#FFFFFF"/>
			</linearGradient>
			<polygon opacity="0.4" fill="url(#SVGID_4_)" points="288.251,124 267.735,7 362.251,7 362.251,124 			"/>
		</g>
		<g>
			<g>
				<polygon fill="#FFFFFF" points="261.761,117 271.936,117 284.347,105 271.936,93 261.761,93 274.171,105 				"/>
			</g>
		</g>
		<polygon fill="none" points="370.306,101.665 166.64,101.665 167.055,17.762 370.718,17.762 		"/>
		<text transform="matrix(1 0 0 1 236.1152 41.5605)"><tspan x="0" y="0" fill="#FFFFFF" font-family="'DINNextLTPro-Regular'" font-size="35" letter-spacing="2">GET </tspan><tspan x="-46.672" y="39" fill="#FFFFFF" font-family="'DINNextLTPro-Regular'" font-size="35" letter-spacing="2">STARTED</tspan></text>
	</g>
</g>
<g id="_x33__column_grid">
</g>
<g id="_x32__column_grid">
</g>
</svg>
