<?xml version="1.0" encoding="utf-8"?>
<!-- Generator: Adobe Illustrator 16.0.0, SVG Export Plug-In . SVG Version: 6.00 Build 0)  -->
<!DOCTYPE svg PUBLIC "-//W3C//DTD SVG 1.1//EN" "http://www.w3.org/Graphics/SVG/1.1/DTD/svg11.dtd">
<svg version="1.1" xmlns="http://www.w3.org/2000/svg" xmlns:xlink="http://www.w3.org/1999/xlink" x="0px" y="0px"
	 width="200.756px" height="30.665px" viewBox="0 0 200.756 30.665" enable-background="new 0 0 200.756 30.665"
	 xml:space="preserve">
<g id="background">
</g>
<g id="content">
	<g>
		<path fill="#0067B1" d="M48.338,28.281c-0.121-1.777-0.186-3.26-0.223-5.041c-0.047-2.311-0.072-4.281-0.091-6.592
			c-0.007-1.268-0.146-2.318-0.458-3.523c-0.407-1.605-1.358-2.807-2.783-3.605c-0.86-0.504-1.672-0.799-2.635-1.006
			c-3.091-0.658-5.798-0.713-8.912-0.176c-0.883,0.15-1.609,0.357-2.424,0.693c-1.883,0.801-3.201,2.223-3.805,4.189
			c-0.232,0.744-0.298,1.42-0.205,2.195c0.016,0.141,0.053,0.262,0.114,0.391l7.2,0.174c-0.017-0.453,0.042-0.842,0.195-1.27
			c0.236-0.652,0.697-1.118,1.35-1.355c0.983-0.35,1.904-0.367,2.879-0.047c0.64,0.209,1.104,0.672,1.318,1.316
			c0.123,0.398,0.06,0.793-0.191,1.137c-0.225,0.303-0.487,0.508-0.832,0.641c-0.212,0.086-0.393,0.162-0.613,0.223
			c-0.996,0.264-1.846,0.449-2.882,0.619c-0.804,0.133-1.481,0.258-2.28,0.418c-1.107,0.217-2.01,0.453-3.061,0.795
			c-0.96,0.311-1.738,0.752-2.484,1.434c-0.964,0.908-1.515,1.957-1.701,3.254c-0.123,0.889-0.092,1.643,0.101,2.496
			c0.499,2.242,2.039,3.883,4.247,4.518c2.444,0.699,4.718,0.588,7.078-0.355c1.137-0.461,2.004-1.094,2.811-2.037l-0.527-3.678
			c-0.36,0.557-0.808,0.938-1.414,1.205c-0.568,0.252-1.085,0.385-1.699,0.445c-0.539,0.053-0.982,0.014-1.481-0.123
			c-0.405-0.111-0.724-0.303-1.009-0.609c-0.246-0.26-0.389-0.541-0.463-0.893c-0.111-0.561,0.063-1.074,0.482-1.432
			c0.281-0.236,0.553-0.398,0.899-0.525c0.829-0.303,1.561-0.535,2.413-0.775c1.03-0.291,1.881-0.604,2.874-1.051
			c0.095,0.777,0.089,1.445-0.019,2.219c-0.078,0.568-0.254,1.037-0.584,1.539l0.527,3.678c0.154,0.518,0.299,0.952,0.479,1.463
			c0.1,0.283,0.23,0.506,0.428,0.729h7.932C48.549,29.428,48.381,28.906,48.338,28.281"/>
		<path fill="#0067B1" d="M96.371,28.281c-0.119-1.777-0.186-3.26-0.221-5.041c-0.045-2.311-0.074-4.281-0.09-6.592
			c-0.01-1.268-0.146-2.318-0.459-3.523c-0.408-1.605-1.344-2.807-2.783-3.605c-0.859-0.504-1.65-0.799-2.637-1.006
			c-3.068-0.658-5.799-0.713-8.91-0.176c-0.869,0.15-1.596,0.357-2.424,0.693c-1.885,0.801-3.201,2.223-3.805,4.189
			c-0.232,0.744-0.297,1.42-0.207,2.195c0.02,0.141,0.055,0.262,0.117,0.391l7.201,0.174c-0.02-0.453,0.039-0.842,0.193-1.27
			c0.236-0.652,0.697-1.118,1.369-1.355c0.961-0.35,1.885-0.367,2.857-0.047c0.662,0.209,1.117,0.672,1.318,1.316
			c0.123,0.398,0.062,0.793-0.18,1.137c-0.215,0.303-0.477,0.508-0.832,0.641c-0.223,0.086-0.404,0.162-0.623,0.223
			c-0.994,0.264-1.846,0.449-2.865,0.619c-0.824,0.133-1.496,0.258-2.301,0.418c-1.078,0.217-2.008,0.453-3.057,0.795
			c-0.961,0.311-1.717,0.752-2.48,1.434c-0.965,0.908-1.52,1.957-1.703,3.254c-0.125,0.889-0.094,1.643,0.098,2.496
			c0.5,2.242,2.053,3.883,4.25,4.518c2.441,0.699,4.715,0.588,7.074-0.355c1.139-0.461,2.027-1.094,2.811-2.037l-0.506-3.678
			c-0.357,0.557-0.824,0.938-1.436,1.205c-0.568,0.252-1.082,0.385-1.697,0.445c-0.518,0.053-0.965,0.014-1.484-0.123
			c-0.404-0.111-0.721-0.303-1.008-0.609c-0.244-0.26-0.389-0.541-0.463-0.893c-0.111-0.561,0.062-1.074,0.484-1.432
			c0.279-0.236,0.553-0.398,0.898-0.525c0.85-0.303,1.562-0.535,2.414-0.775c1.027-0.291,1.9-0.604,2.871-1.051
			c0.096,0.777,0.092,1.445-0.018,2.219c-0.078,0.568-0.252,1.037-0.562,1.539l0.506,3.678c0.156,0.518,0.299,0.952,0.479,1.463
			c0.098,0.283,0.23,0.506,0.43,0.729h7.93C96.586,29.428,96.414,28.906,96.371,28.281"/>
		<path fill="#0067B1" d="M133.912,8.143c-0.844-0.133-1.564-0.189-2.416-0.189c-0.855,0-1.592,0.057-2.434,0.189
			c-2.461,0.383-4.443,1.387-6.246,3.098c-1.908,1.855-2.953,4.025-3.201,6.682c-0.15,1.619-0.021,3.035,0.426,4.6
			c0.668,2.424,1.92,4.277,3.92,5.814c1.303,0.998,2.598,1.598,4.225,1.947c1.139,0.25,2.129,0.355,3.311,0.355
			c1.166,0,2.15-0.105,3.314-0.355c1.604-0.35,2.906-0.949,4.223-1.947l-4.598-5.025c-0.742,1.635-2.637,2.353-4.273,1.629
			c-0.746-0.336-1.273-0.863-1.607-1.629c-0.311-0.689-0.492-1.307-0.604-2.051c-0.223-1.518-0.197-2.818,0.092-4.301
			c0.15-0.791,0.406-1.421,0.834-2.076c0.941-1.436,2.889-1.836,4.32-0.895c0.375,0.244,0.652,0.52,0.904,0.895
			c0.443,0.655,0.699,1.285,0.848,2.076c0.293,1.482,0.32,2.783,0.094,4.301c-0.111,0.744-0.295,1.361-0.607,2.051l4.598,5.025
			c1.979-1.537,3.254-3.391,3.922-5.814c0.434-1.564,0.559-2.98,0.412-4.6c-0.238-2.656-1.281-4.826-3.211-6.682
			C138.373,9.529,136.373,8.525,133.912,8.143"/>
		<path fill="#0067B1" d="M14.582,20.74h-5.5v-7.023h3.564c0.676,0,1.246-0.016,1.943-0.053c0.929-0.053,1.707-0.469,2.264-1.242
			c0.295-0.4,0.461-0.803,0.532-1.295c0.059-0.412,0.065-0.77,0.025-1.184c-0.153-1.574-1.44-2.74-2.997-2.74H9.082v22.754H0V0
			h14.859c0.586,0,1.082,0.014,1.668,0.045c3.939,0.213,7.189,2.41,8.873,5.986c0.865,1.85,1.157,3.652,0.936,5.682
			c-0.469,4.301-3.48,7.648-7.707,8.592C17.215,20.609,16.008,20.74,14.582,20.74"/>
		<path fill="#0067B1" d="M108.24,22.086c0.623,0.104,1.137,0.23,1.725,0.426c0.488,0.162,0.824,0.539,0.932,1.041
			c0.115,0.568-0.037,1.088-0.432,1.482c-0.398,0.404-0.852,0.637-1.414,0.725c-0.771,0.119-1.436,0.057-2.152-0.199
			c-0.346-0.125-0.621-0.283-0.902-0.518c-0.369-0.307-0.604-0.66-0.746-1.117c-0.125-0.41-0.176-0.752-0.168-1.154h-7.844v0.453
			c0,0.754,0.111,1.375,0.377,2.059c0.402,1.033,0.941,1.832,1.75,2.604c1.057,0.986,2.166,1.605,3.564,2.002
			c2.9,0.818,5.496,0.98,8.477,0.529c1.41-0.215,2.555-0.588,3.803-1.234c0.557-0.287,1.01-0.578,1.488-0.979
			c2.105-1.787,2.895-4.508,2.045-7.123c-0.32-1.004-0.822-1.768-1.605-2.443c-1.082-0.934-2.18-1.523-3.545-1.922
			c-0.299-0.086-0.553-0.158-0.852-0.264c-1.691-0.467-3.125-0.771-4.859-1.025c-0.459-0.066-0.846-0.143-1.299-0.248
			c-0.209-0.049-0.381-0.105-0.578-0.197c-0.479-0.215-0.695-0.777-0.473-1.258c0.01-0.023,0.021-0.047,0.035-0.072
			c0.258-0.457,0.637-0.768,1.143-0.928c0.885-0.256,1.709-0.236,2.602,0.061c0.838,0.307,1.363,1.074,1.326,1.961h7.549
			c-0.01-0.922-0.146-1.701-0.461-2.588c-0.318-0.881-0.797-1.549-1.535-2.127c-0.656-0.508-1.264-0.875-2.025-1.17
			c-0.742-0.287-1.393-0.469-2.197-0.604c-1.857-0.322-3.48-0.414-5.365-0.305c-1.08,0.064-2.006,0.195-3.061,0.443
			c-1.416,0.334-2.578,0.904-3.725,1.803c-0.975,0.764-1.613,1.654-2.033,2.844c-0.189,0.527-0.281,1-0.307,1.557
			c-0.041,0.93,0.096,1.729,0.453,2.615c0.625,1.555,1.727,2.656,3.283,3.297c0.809,0.312,1.498,0.521,2.326,0.691
			C105.195,21.541,106.59,21.803,108.24,22.086"/>
		<path fill="#0067B1" d="M57.809,10.822c1.059-0.912,2.057-1.566,3.32-2.164c2.074-0.951,4.15-1.104,6.324-0.469
			c2.355,0.684,4.033,2.348,4.773,4.67c0.369,1.125,0.521,2.115,0.521,3.279v13.818h-8.51V17.543c0-0.41-0.053-0.76-0.176-1.176
			c-0.215-0.713-0.684-1.233-1.369-1.523c-1.52-0.635-3.221-0.072-4.045,1.332c-0.342,0.607-0.498,1.184-0.498,1.863v11.918h-8.246
			V8.555h7.717L57.809,10.822z"/>
		<path fill="#0067B1" d="M152.459,10.822c1.055-0.912,2.051-1.566,3.318-2.164c2.068-0.951,4.145-1.104,6.318-0.469
			c2.354,0.684,4.037,2.348,4.781,4.67c0.361,1.125,0.518,2.115,0.518,3.279v13.818h-8.512V17.543c0-0.41-0.055-0.76-0.174-1.176
			c-0.217-0.713-0.688-1.233-1.373-1.523c-1.512-0.635-3.219-0.072-4.041,1.332c-0.346,0.607-0.502,1.184-0.502,1.863v11.918h-8.244
			V8.555h7.727L152.459,10.822z"/>
		<rect x="169.025" y="8.555" fill="#0067B1" width="8" height="21.402"/>
		<rect x="169.025" fill="#0067B1" width="7.998" height="5.664"/>
		<path fill="#0067B1" d="M198.559,27.166c-1.691,1.711-3.514,2.717-5.801,3.18c-1.543,0.311-2.891,0.377-4.457,0.213
			c-2.109-0.211-3.836-0.883-5.512-2.131c-1.377-1.045-2.367-2.146-3.223-3.623c-0.66-1.166-1.045-2.236-1.26-3.541
			c-0.307-1.83-0.225-3.42,0.258-5.209c1.086-4.043,4.135-6.918,8.232-7.766c2.35-0.484,4.422-0.432,6.723,0.162
			c1.639,0.422,2.943,1.158,4.225,2.311c0.828,0.727,1.383,1.455,1.876,2.425c0.583,1.112,0.819,2.198,0.753,3.478h-7.355
			c-0.162-0.996-0.631-1.773-1.416-2.371c-1.016-0.775-2.328-0.84-3.414-0.164c-0.742,0.461-1.252,1.088-1.523,1.926
			c-0.625,2.008-0.654,3.855-0.09,5.882c0.238,0.845,0.652,1.507,1.295,2.134c0.73,0.689,1.639,0.977,2.631,0.83
			c0.619-0.092,1.117-0.361,1.533-0.826c0.436-0.504,0.688-1.023,0.799-1.662c0.082-0.447,0.123-0.83,0.15-1.287h7.754
			C200.889,23.438,200.154,25.488,198.559,27.166"/>
	</g>
</g>
<g id="button">
</g>
<g id="_x33__column_grid">
</g>
<g id="_x32__column_grid">
</g>
</svg>
