<?xml version="1.0" encoding="utf-8"?>
<!-- Generator: Adobe Illustrator 16.2.1, SVG Export Plug-In . SVG Version: 6.00 Build 0)  -->
<!DOCTYPE svg PUBLIC "-//W3C//DTD SVG 1.1//EN" "http://www.w3.org/Graphics/SVG/1.1/DTD/svg11.dtd">
<svg version="1.1" xmlns="http://www.w3.org/2000/svg" xmlns:xlink="http://www.w3.org/1999/xlink" x="0px" y="0px"
	 width="304.667px" height="155.041px" viewBox="0 0 304.667 155.041" enable-background="new 0 0 304.667 155.041"
	 xml:space="preserve">
<g id="background">
</g>
<g id="noise">
</g>
<g id="content">
</g>
<g id="buttons">
	<g>
		<linearGradient id="SVGID_1_" gradientUnits="userSpaceOnUse" x1="144.3975" y1="117.375" x2="241.2774" y2="44.1244">
			<stop  offset="0" style="stop-color:#FFFFFF;stop-opacity:0"/>
			<stop  offset="0.9887" style="stop-color:#A0B4AC"/>
		</linearGradient>
		<polygon opacity="0.4" fill="url(#SVGID_1_)" points="239.55,155.041 0,155.041 154.667,0 304.667,89.803 		"/>
		<g>
			<rect x="154.667" y="0.041" fill="#00113F" width="150" height="90"/>
			<linearGradient id="SVGID_2_" gradientUnits="userSpaceOnUse" x1="162.667" y1="45.041" x2="296.667" y2="45.041">
				<stop  offset="0" style="stop-color:#FFFFFF;stop-opacity:0"/>
				<stop  offset="0.9905" style="stop-color:#FFFFFF"/>
			</linearGradient>
			<rect x="162.667" y="8.041" opacity="0.2" fill="url(#SVGID_2_)" width="134" height="74"/>
			<linearGradient id="SVGID_3_" gradientUnits="userSpaceOnUse" x1="189.9326" y1="44.1152" x2="134.4123" y2="58.7249">
				<stop  offset="0" style="stop-color:#FFFFFF;stop-opacity:0"/>
				<stop  offset="0.9905" style="stop-color:#FFFFFF"/>
			</linearGradient>
			<polygon opacity="0.3" fill="url(#SVGID_3_)" points="161.667,82.041 161.667,8.041 197.667,8.041 211.155,82.041 			"/>
			<linearGradient id="SVGID_4_" gradientUnits="userSpaceOnUse" x1="282.7227" y1="40.2725" x2="332.9691" y2="5.1005">
				<stop  offset="0" style="stop-color:#FFFFFF;stop-opacity:0"/>
				<stop  offset="0.9905" style="stop-color:#FFFFFF"/>
			</linearGradient>
			<polygon opacity="0.4" fill="url(#SVGID_4_)" points="275.667,82.041 255.151,8.041 296.667,8.041 296.667,82.041 			"/>
			<polygon fill="none" points="304.667,57.405 155.056,57.405 155.36,16.999 304.667,16.999 			"/>
			
				<text transform="matrix(1 0 0 1 185.6084 40.7988)" fill="#FFFFFF" font-family="'DINNextLTPro-Regular'" font-size="35" letter-spacing="2">NEXT</text>
			<g>
				<polygon fill="#FFFFFF" points="224.177,74.041 234.352,74.041 246.763,62.041 234.352,50.041 224.177,50.041 236.587,62.041 
									"/>
			</g>
		</g>
	</g>
</g>
<g id="icons">
</g>
<g id="tabs">
</g>
<g id="header">
</g>
<g id="_x33__col_guides">
</g>
</svg>
