<?xml version="1.0" encoding="utf-8"?>
<!-- Generator: Adobe Illustrator 16.0.0, SVG Export Plug-In . SVG Version: 6.00 Build 0)  -->
<!DOCTYPE svg PUBLIC "-//W3C//DTD SVG 1.1//EN" "http://www.w3.org/Graphics/SVG/1.1/DTD/svg11.dtd">
<svg version="1.1" xmlns="http://www.w3.org/2000/svg" xmlns:xlink="http://www.w3.org/1999/xlink" x="0px" y="0px"
	 width="648.83px" height="797.641px" viewBox="0 0 648.83 797.641" enable-background="new 0 0 648.83 797.641"
	 xml:space="preserve">
<g id="background">
</g>
<g id="content">
	<linearGradient id="SVGID_1_" gradientUnits="userSpaceOnUse" x1="239.9731" y1="362.7061" x2="648.8296" y2="362.7061">
		<stop  offset="0" style="stop-color:#FFFFFF"/>
		<stop  offset="1" style="stop-color:#260859"/>
	</linearGradient>
	<circle opacity="0.2" fill="url(#SVGID_1_)" cx="444.401" cy="362.707" r="204.428"/>
	<rect x="185.573" y="205.641" fill="#6E1D63" width="52" height="14"/>
	<linearGradient id="SVGID_2_" gradientUnits="userSpaceOnUse" x1="404.2744" y1="532.0869" x2="586.6415" y2="471.298">
		<stop  offset="0" style="stop-color:#FFFFFF;stop-opacity:0"/>
		<stop  offset="0.9887" style="stop-color:#A6B4AC"/>
	</linearGradient>
	<polygon opacity="0.3" fill="url(#SVGID_2_)" points="0,655.295 0,797.641 138.688,797.641 599.312,356.363 400.378,356.363 	"/>
	<g>
		<polygon fill="#001840" points="432.115,295.641 487.839,360.641 539.102,360.641 460.077,295.641 		"/>
	</g>
	<path fill="#2C9CB1" d="M568.447,331.641H410.449l-24.458-20h-18.641l36.01,50h41.268h145.944c17,0,15-20.613,0-20.613
		C583.573,341.027,581.173,331.641,568.447,331.641z"/>
	<g>
		<polygon fill="#569BBE" points="401.951,359.688 403.175,361.385 403.176,361.367 		"/>
		<polygon fill="#0067B1" points="403.175,361.385 403.164,361.498 403.176,361.387 		"/>
		<g>
			<path fill="#2C9CB1" d="M601.972,355.179c2.299-6.046-1.992-14.152-11.399-14.152c-7,0-9.399-9.387-22.125-9.387H410.449
				l-24.458-20h-18.641l30.969,43h203.772C602.058,354.825,602.013,355,601.972,355.179z"/>
			<path fill="#001840" d="M444.628,361.641h145.944c6.339,0,10.033-2.867,11.399-6.461c0.041-0.179,0.086-0.354,0.12-0.539H398.319
				l5.042,7H444.628z"/>
		</g>
	</g>
	<g>
		<path fill="#001840" d="M500.41,354.641l-19.564,7h109.727c6.339,0,10.033-2.867,11.399-6.461c0.041-0.179,0.086-0.354,0.12-0.539
			H500.41z"/>
		<polygon fill="#001840" points="456.95,354.641 436.893,361.641 444.628,361.641 480.846,361.641 500.41,354.641 		"/>
		<polygon opacity="0.4" fill="#001840" points="474.142,348.641 456.95,354.641 436.893,361.641 444.628,361.641 480.846,361.641 
			500.41,354.641 517.18,348.641 		"/>
	</g>
	<g>
		<path d="M567.63,340.617h20.809c-2.806-0.879-4.984-3.026-7.752-5.002H567.63V340.617z"/>
	</g>
	<rect x="448.689" y="340.863" width="8.62" height="5.002"/>
	<rect x="434.018" y="340.863" width="8.619" height="5.002"/>
	<rect x="419.344" y="340.863" width="8.62" height="5.002"/>
	<rect x="492.707" y="340.863" width="8.62" height="5.002"/>
	<rect x="477.541" y="340.863" width="8.619" height="5.002"/>
	<rect x="463.361" y="340.863" width="8.62" height="5.002"/>
	<rect x="536.725" y="340.863" width="8.62" height="5.002"/>
	<rect x="522.052" y="340.863" width="8.621" height="5.002"/>
	<rect x="507.379" y="340.863" width="8.62" height="5.002"/>
	<rect x="551.398" y="340.863" width="8.618" height="5.002"/>
	<polygon fill="#2C9CB1" points="418.419,411.641 474.142,346.641 525.405,346.641 446.381,411.641 	"/>
	<polygon opacity="0.4" fill="#001840" points="392.187,336.641 386.99,338.97 390.53,343.857 410.96,336.641 	"/>
	<polygon fill="#001840" points="371.782,360.641 392.187,336.641 410.96,336.641 382.021,360.641 	"/>
	
		<line fill="none" stroke="#711471" stroke-width="3" stroke-miterlimit="10" x1="353.573" y1="316.141" x2="343.573" y2="316.141"/>
	
		<line fill="none" stroke="#711471" stroke-width="3" stroke-miterlimit="10" x1="333.573" y1="316.141" x2="302.573" y2="316.141"/>
	
		<line fill="none" stroke="#711471" stroke-width="3" stroke-miterlimit="10" x1="366.573" y1="334.141" x2="330.573" y2="334.141"/>
	
		<line fill="none" stroke="#711471" stroke-width="3" stroke-miterlimit="10" x1="345.573" y1="351.141" x2="319.573" y2="351.141"/>
	
		<line fill="none" stroke="#711471" stroke-width="3" stroke-miterlimit="10" x1="320.573" y1="334.141" x2="314.573" y2="334.141"/>
	<g>
		<path d="M184.167,60.862c-0.392-0.392-0.49-0.979-0.098-1.372l2.352-2.94c0.392-0.489,0.98-0.489,1.372-0.098
			c4.411,3.431,11.369,6.86,19.111,6.86c10.683,0,17.25-5.391,17.25-13.623c0-6.566-3.724-11.368-15.975-12.937l-3.038-0.393
			c-13.035-1.666-19.209-7.938-19.209-17.641c0-11.565,8.232-18.72,20.973-18.72c7.351,0,14.407,2.254,19.014,5.587
			c0.49,0.294,0.588,0.882,0.196,1.372l-1.96,3.038c-0.392,0.489-0.882,0.489-1.372,0.195c-5.292-3.233-10.487-4.9-16.171-4.9
			c-9.506,0-15.093,5.293-15.093,13.035c0,6.763,4.312,11.173,15.681,12.644l3.038,0.392c13.525,1.765,19.503,8.036,19.503,17.936
			c0,11.271-8.037,19.308-23.522,19.308C197.496,68.605,188.773,64.881,184.167,60.862z"/>
		<path d="M245.514,53.61c-1.176-3.528-1.96-7.841-1.96-19.308s0.784-15.779,1.96-19.308C248.749,5.194,256.197,0,267.076,0
			c10.781,0,18.229,5.194,21.464,14.995c1.176,3.528,1.96,7.841,1.96,19.308s-0.784,15.779-1.96,19.308
			c-3.234,9.801-10.683,14.995-21.464,14.995C256.197,68.605,248.749,63.411,245.514,53.61z M283.149,16.563
			c-2.45-7.351-7.84-11.271-16.073-11.271c-8.331,0-13.721,3.921-16.171,11.271c-0.882,2.646-1.667,6.958-1.667,17.739
			c0,10.78,0.784,15.093,1.667,17.739c2.45,7.351,7.84,11.271,16.171,11.271c8.233,0,13.623-3.92,16.073-11.271
			c0.882-2.646,1.666-6.959,1.666-17.739C284.815,23.521,284.031,19.209,283.149,16.563z"/>
		<path d="M307.058,1.96c0-0.588,0.392-0.979,0.98-0.979h3.626c0.588,0,0.98,0.392,0.98,0.979v59.784
			c0,0.393,0.196,0.589,0.588,0.589h32.93c0.588,0,0.98,0.392,0.98,0.979v3.332c0,0.589-0.392,0.98-0.98,0.98h-38.125
			c-0.588,0-0.98-0.392-0.98-0.98V1.96z"/>
		<path d="M361.35,44.691c0,12.545,6.371,18.621,16.956,18.621c10.683,0,17.053-6.076,17.053-18.621V1.96
			c0-0.588,0.392-0.979,0.98-0.979h3.626c0.588,0,0.98,0.392,0.98,0.979v42.634c0,16.269-8.821,24.012-22.64,24.012
			c-13.721,0-22.542-7.743-22.542-24.012V1.96c0-0.588,0.392-0.979,0.98-0.979h3.626c0.588,0,0.98,0.392,0.98,0.979V44.691z"/>
		<path d="M434.36,67.625c-0.588,0-0.98-0.392-0.98-0.98V6.86c0-0.392-0.196-0.588-0.588-0.588h-19.209
			c-0.588,0-0.98-0.392-0.98-0.98V1.96c0-0.588,0.392-0.979,0.98-0.979h45.181c0.588,0,0.98,0.392,0.98,0.979v3.332
			c0,0.589-0.392,0.98-0.98,0.98h-19.209c-0.392,0-0.588,0.196-0.588,0.588v59.784c0,0.589-0.392,0.98-0.98,0.98H434.36z"/>
		<path d="M472.089,1.96c0-0.588,0.392-0.979,0.98-0.979h3.626c0.588,0,0.98,0.392,0.98,0.979v64.685c0,0.589-0.392,0.98-0.98,0.98
			h-3.626c-0.588,0-0.98-0.392-0.98-0.98V1.96z"/>
		<path d="M496.196,53.61c-1.176-3.528-1.96-7.841-1.96-19.308s0.784-15.779,1.96-19.308C499.431,5.194,506.879,0,517.758,0
			c10.781,0,18.229,5.194,21.464,14.995c1.176,3.528,1.96,7.841,1.96,19.308s-0.784,15.779-1.96,19.308
			c-3.234,9.801-10.683,14.995-21.464,14.995C506.879,68.605,499.431,63.411,496.196,53.61z M533.831,16.563
			c-2.45-7.351-7.84-11.271-16.073-11.271c-8.331,0-13.721,3.921-16.171,11.271c-0.882,2.646-1.667,6.958-1.667,17.739
			c0,10.78,0.784,15.093,1.667,17.739c2.45,7.351,7.84,11.271,16.171,11.271c8.233,0,13.623-3.92,16.073-11.271
			c0.882-2.646,1.666-6.959,1.666-17.739C535.497,23.521,534.713,19.209,533.831,16.563z"/>
		<path d="M557.74,1.96c0-0.588,0.392-0.979,0.98-0.979h3.626c0.686,0,1.274,0.195,1.667,0.979l33.224,54.786h0.294V1.96
			c0-0.588,0.392-0.979,0.98-0.979h3.626c0.588,0,0.98,0.392,0.98,0.979v64.685c0,0.589-0.392,0.98-0.98,0.98h-3.822
			c-0.588,0-1.176-0.196-1.666-0.98l-32.931-54.884h-0.392v54.884c0,0.589-0.392,0.98-0.98,0.98h-3.626
			c-0.588,0-0.98-0.392-0.98-0.98V1.96z"/>
		<path d="M186.426,107.652c0-0.588,0.392-0.979,0.98-0.979h22.346c12.643,0,19.405,6.762,19.405,17.249
			c0,8.135-4.116,13.133-10.291,14.995v0.196c4.9,0.979,11.369,6.174,11.369,15.877c0,11.467-7.351,18.327-20.483,18.327h-22.346
			c-0.588,0-0.98-0.392-0.98-0.98V107.652z M209.653,136.761c9.017,0,13.917-5.097,13.917-12.349c0-7.645-4.9-12.447-13.917-12.447
			H192.6c-0.392,0-0.588,0.196-0.588,0.588v23.62c0,0.392,0.196,0.588,0.588,0.588H209.653z M192.6,168.025h17.543
			c9.507,0,14.505-5.097,14.505-12.938s-4.999-13.035-14.505-13.035H192.6c-0.392,0-0.588,0.196-0.588,0.589v24.795
			C192.012,167.829,192.208,168.025,192.6,168.025z"/>
		<path d="M251.204,150.384c0,12.545,6.371,18.621,16.956,18.621c10.683,0,17.053-6.076,17.053-18.621v-42.731
			c0-0.588,0.392-0.979,0.98-0.979h3.626c0.588,0,0.98,0.392,0.98,0.979v42.634c0,16.269-8.821,24.012-22.64,24.012
			c-13.721,0-22.542-7.743-22.542-24.012v-42.634c0-0.588,0.392-0.979,0.98-0.979h3.626c0.588,0,0.98,0.392,0.98,0.979V150.384z"/>
		<path d="M309.513,107.652c0-0.588,0.392-0.979,0.98-0.979h3.626c0.588,0,0.98,0.392,0.98,0.979v64.685
			c0,0.589-0.392,0.98-0.98,0.98h-3.626c-0.588,0-0.98-0.392-0.98-0.98V107.652z"/>
		<path d="M334.503,107.652c0-0.588,0.392-0.979,0.98-0.979h3.626c0.588,0,0.98,0.392,0.98,0.979v59.784
			c0,0.393,0.196,0.589,0.588,0.589h32.93c0.588,0,0.98,0.392,0.98,0.979v3.332c0,0.589-0.392,0.98-0.98,0.98h-38.125
			c-0.588,0-0.98-0.392-0.98-0.98V107.652z"/>
		<path d="M387.423,107.652c0-0.588,0.392-0.979,0.98-0.979h20.875c11.075,0,18.327,4.41,21.268,13.524
			c1.274,3.921,1.862,7.645,1.862,19.798c0,12.152-0.588,15.877-1.862,19.797c-2.94,9.115-10.193,13.525-21.268,13.525h-20.875
			c-0.588,0-0.98-0.392-0.98-0.98V107.652z M393.597,168.025h14.897c8.625,0,14.309-3.039,16.661-10.095
			c1.078-3.234,1.568-6.665,1.568-17.936c0-11.271-0.49-14.701-1.568-17.936c-2.352-7.057-8.037-10.095-16.661-10.095h-14.897
			c-0.392,0-0.588,0.196-0.588,0.588v54.884C393.009,167.829,393.205,168.025,393.597,168.025z"/>
		<path d="M449.162,107.652c0-0.588,0.392-0.979,0.98-0.979h38.125c0.588,0,0.98,0.392,0.98,0.979v3.332
			c0,0.589-0.392,0.98-0.98,0.98h-32.93c-0.392,0-0.588,0.196-0.588,0.588v23.718c0,0.393,0.196,0.588,0.588,0.588h28.324
			c0.588,0,0.98,0.393,0.98,0.98v3.332c0,0.588-0.392,0.98-0.98,0.98h-28.324c-0.392,0-0.588,0.195-0.588,0.588v24.697
			c0,0.393,0.196,0.589,0.588,0.589h32.93c0.588,0,0.98,0.392,0.98,0.979v3.332c0,0.589-0.392,0.98-0.98,0.98h-38.125
			c-0.588,0-0.98-0.392-0.98-0.98V107.652z"/>
		<path d="M544.126,173.317c-0.588,0-0.882-0.196-1.176-0.882l-14.015-28.912h-0.98h-17.151c-0.392,0-0.588,0.195-0.588,0.588
			v28.226c0,0.589-0.392,0.98-0.98,0.98h-3.626c-0.588,0-0.98-0.392-0.98-0.98v-64.685c0-0.588,0.392-0.979,0.98-0.979h22.346
			c12.545,0,20.287,7.056,20.287,18.425c0,9.213-5.096,15.583-13.623,17.642l14.505,29.5c0.392,0.588,0.098,1.078-0.49,1.078
			H544.126z M542.656,125.098c0-8.33-5.292-13.133-14.799-13.133h-17.053c-0.392,0-0.588,0.196-0.588,0.588v25.09
			c0,0.393,0.196,0.588,0.588,0.588h17.053C537.364,138.23,542.656,133.526,542.656,125.098z"/>
	</g>
</g>
<g id="button">
</g>
<g id="_x33__column_grid">
</g>
<g id="_x32__column_grid">
</g>
</svg>
