<?xml version="1.0" encoding="utf-8"?>
<!-- Generator: Adobe Illustrator 16.2.1, SVG Export Plug-In . SVG Version: 6.00 Build 0)  -->
<!DOCTYPE svg PUBLIC "-//W3C//DTD SVG 1.1//EN" "http://www.w3.org/Graphics/SVG/1.1/DTD/svg11.dtd">
<svg version="1.1" xmlns="http://www.w3.org/2000/svg" xmlns:xlink="http://www.w3.org/1999/xlink" x="0px" y="0px" width="662px"
	 height="333.525px" viewBox="0 0 662 333.525" enable-background="new 0 0 662 333.525" xml:space="preserve">
<g id="background">
</g>
<g id="content">
	<g>
		<line fill="none" stroke="#260859" stroke-width="3" stroke-miterlimit="10" x1="0" y1="1.5" x2="662" y2="1.5"/>
		<g>
			<g>
				<path fill="#260859" d="M17.109,46.941c-0.224,0-0.308-0.084-0.364-0.28l-1.932-7.056h-2.744c-0.112,0-0.196,0.056-0.196,0.168
					l-1.231,6.888c-0.028,0.168-0.14,0.28-0.28,0.28H6.974c-0.168,0-0.28-0.112-0.252-0.28l3.275-18.479
					c0.028-0.168,0.141-0.281,0.309-0.281h7.224c3.388,0,5.348,1.904,5.348,4.705c0,3.107-1.792,5.459-4.396,6.467l2.184,7.533
					c0.084,0.168-0.027,0.336-0.224,0.336H17.109z M18.901,33.193c0-1.176-0.84-1.877-2.156-1.877h-3.22
					c-0.112,0-0.168,0.057-0.196,0.168l-0.812,4.593c-0.028,0.112,0.028,0.168,0.14,0.168h3.221
					C17.529,36.217,18.901,35.125,18.901,33.193z"/>
				<path fill="#260859" d="M23.718,42.293c0-1.652,0.363-3.977,1.119-5.488c1.177-2.408,3.192-3.724,6.301-3.724
					c2.855,0,5.012,1.651,5.012,4.76c0,0.728-0.084,1.624-0.364,3.164c-0.028,0.168-0.168,0.28-0.336,0.28h-7.924
					c-0.112,0-0.168,0.056-0.196,0.168c-0.027,0.14-0.027,0.279-0.027,0.42c0,1.708,0.867,2.352,2.436,2.352
					c1.176,0,2.352-0.588,3.248-1.316c0.168-0.139,0.308-0.111,0.42,0l1.372,1.652c0.112,0.141,0.112,0.309-0.028,0.448
					c-1.428,1.315-3.304,2.24-5.796,2.24C25.649,47.249,23.718,45.513,23.718,42.293z M32.341,38.793
					c0.112,0,0.168-0.057,0.196-0.168c0.057-0.28,0.084-0.561,0.084-0.756c0-1.316-0.7-1.904-1.96-1.904
					c-1.092,0-1.988,0.532-2.464,1.512c-0.168,0.336-0.252,0.645-0.336,1.121c-0.028,0.139,0,0.195,0.112,0.195H32.341z"/>
				<path fill="#260859" d="M45.165,46.941c-0.14,0-0.252-0.112-0.224-0.28l0.14-0.925h-0.027c-0.784,0.896-2.045,1.513-3.864,1.513
					c-2.044,0-3.668-1.288-3.668-3.444c0-3.275,2.296-5.012,6.244-5.012h2.352c0.112,0,0.196-0.057,0.224-0.168l0.112-0.616
					c0.225-1.315-0.224-1.903-2.38-1.903c-1.344,0-2.38,0.42-3.08,0.896c-0.168,0.112-0.28,0.056-0.336-0.084l-0.84-2.101
					c-0.056-0.168,0-0.308,0.14-0.392c1.232-0.812,3.137-1.344,5.097-1.344c4.004,0,5.6,1.315,4.955,4.872l-1.567,8.708
					c-0.028,0.168-0.141,0.28-0.309,0.28H45.165z M45.669,42.488l0.168-1.035c0.028-0.112-0.027-0.168-0.14-0.168h-1.904
					c-1.848,0-2.632,0.672-2.632,1.904c0,0.756,0.561,1.26,1.68,1.26C44.438,44.449,45.474,43.777,45.669,42.488z"/>
				<path fill="#260859" d="M55.693,47.109c-2.968,0-3.752-1.344-3.248-4.229l2.632-14.699c0.028-0.168,0.14-0.281,0.28-0.281h3.22
					c0.168,0,0.28,0.113,0.252,0.281l-2.632,14.475c-0.14,0.869,0.112,1.232,0.924,1.232h0.532c0.168,0,0.252,0.112,0.224,0.28
					l-0.447,2.66c-0.028,0.168-0.169,0.28-0.337,0.28H55.693z"/>
				<path fill="#260859" d="M60.229,46.941c-0.169,0-0.28-0.112-0.253-0.28l2.297-12.992c0.027-0.168,0.14-0.28,0.308-0.28h3.22
					c0.168,0,0.252,0.112,0.225,0.28l-2.297,12.992c-0.027,0.168-0.111,0.28-0.279,0.28H60.229z M62.973,31.121
					c-0.168,0-0.252-0.112-0.224-0.28l0.504-2.659c0.028-0.168,0.14-0.281,0.308-0.281h3.221c0.168,0,0.252,0.113,0.224,0.281
					l-0.476,2.659c-0.028,0.168-0.141,0.28-0.309,0.28H62.973z"/>
				<path fill="#260859" d="M71.484,47.109c-3.107,0-3.92-1.457-3.388-4.48l1.176-6.328c0.028-0.111-0.027-0.168-0.14-0.168h-0.84
					c-0.168,0-0.225-0.111-0.196-0.279l0.392-2.185c0.028-0.168,0.141-0.28,0.309-0.28h0.84c0.112,0,0.168-0.056,0.196-0.168
					l0.644-3.64c0.028-0.168,0.168-0.28,0.336-0.28h3.164c0.168,0,0.252,0.112,0.224,0.28l-0.644,3.64
					c-0.028,0.112,0,0.168,0.112,0.168h1.708c0.168,0,0.252,0.112,0.224,0.28l-0.364,2.185c-0.027,0.168-0.168,0.279-0.336,0.279
					h-1.735c-0.084,0-0.141,0.057-0.168,0.168l-1.148,6.188c-0.196,1.064,0.056,1.4,0.98,1.4h0.615c0.168,0,0.252,0.112,0.225,0.28
					l-0.477,2.66c-0.027,0.168-0.14,0.28-0.308,0.28H71.484z"/>
				<path fill="#260859" d="M75.908,51.98c-0.168,0-0.28-0.111-0.224-0.279l0.447-2.633c0.028-0.168,0.169-0.279,0.337-0.279h0.588
					c0.951,0,1.512-0.393,2.071-1.456l0.504-1.036L77,33.669c-0.027-0.168,0.057-0.28,0.225-0.28h3.332
					c0.168,0,0.252,0.084,0.279,0.28l1.232,8.036h0.056l3.92-8.036c0.084-0.196,0.225-0.28,0.393-0.28h3.359
					c0.196,0,0.28,0.112,0.196,0.28l-7.924,14.448c-1.596,2.996-2.912,3.863-5.236,3.863H75.908z"/>
				<path fill="#260859" d="M7.617,71.78c0-3.841,0.169-4.704,0.36-5.329c0.648-1.992,2.208-3.096,4.465-3.096
					c2.256,0,3.816,1.104,4.464,3.096c0.192,0.625,0.36,1.488,0.36,5.329s-0.168,4.704-0.36,5.329
					c-0.647,1.992-2.208,3.096-4.464,3.096c-2.257,0-3.816-1.104-4.465-3.096C7.786,76.484,7.617,75.621,7.617,71.78z
					 M12.442,78.333c1.2,0,2.088-0.552,2.472-1.632c0.168-0.504,0.265-1.201,0.265-4.921s-0.097-4.417-0.265-4.921
					c-0.384-1.08-1.271-1.632-2.472-1.632s-2.089,0.552-2.473,1.632c-0.168,0.504-0.264,1.201-0.264,4.921s0.096,4.417,0.264,4.921
					C10.354,77.781,11.242,78.333,12.442,78.333z"/>
				<path fill="#260859" d="M20.625,77.637c0-0.145,0.097-0.24,0.24-0.24h1.824c0.145,0,0.24,0.096,0.24,0.24v2.064
					c0,0.144-0.096,0.24-0.24,0.24h-1.824c-0.144,0-0.24-0.097-0.24-0.24V77.637z"/>
				<path fill="#260859" d="M30.466,66.164h-0.048l-2.712,1.896c-0.145,0.096-0.265,0.047-0.265-0.145V66.14
					c0-0.144,0.048-0.239,0.168-0.336l2.809-2.04c0.12-0.096,0.216-0.145,0.384-0.145h1.44c0.144,0,0.24,0.096,0.24,0.24v15.842
					c0,0.144-0.097,0.24-0.24,0.24h-1.536c-0.145,0-0.24-0.097-0.24-0.24V66.164z"/>
				<path fill="#260859" d="M39.609,70.172c-0.144-0.456-0.192-0.72-0.192-2.448c0-1.728,0.049-1.991,0.192-2.448
					c0.384-1.128,1.393-1.848,2.76-1.848c1.368,0,2.377,0.72,2.761,1.848c0.144,0.457,0.192,0.721,0.192,2.448
					c0,1.729-0.049,1.992-0.192,2.448c-0.384,1.129-1.393,1.848-2.761,1.848C41.002,72.02,39.993,71.301,39.609,70.172z
					 M43.666,69.788c0.071-0.24,0.12-0.576,0.12-2.064c0-1.487-0.049-1.823-0.12-2.063c-0.192-0.553-0.672-0.84-1.297-0.84
					c-0.624,0-1.104,0.287-1.296,0.84c-0.071,0.24-0.12,0.576-0.12,2.063c0,1.488,0.049,1.824,0.12,2.064
					c0.192,0.552,0.672,0.84,1.296,0.84C42.994,70.628,43.474,70.34,43.666,69.788z M50.866,63.596
					c0.096-0.168,0.192-0.24,0.384-0.24h1.152c0.145,0,0.192,0.12,0.12,0.24l-9.48,16.369c-0.097,0.168-0.192,0.24-0.36,0.24h-1.152
					c-0.144,0-0.216-0.12-0.144-0.24L50.866,63.596z M48.586,75.86c0-1.728,0.048-1.992,0.192-2.448
					c0.384-1.128,1.392-1.848,2.76-1.848s2.377,0.72,2.761,1.848c0.144,0.456,0.191,0.721,0.191,2.448
					c0,1.729-0.048,1.992-0.191,2.448c-0.384,1.129-1.393,1.848-2.761,1.848s-2.376-0.719-2.76-1.848
					C48.634,77.853,48.586,77.589,48.586,75.86z M51.538,78.765c0.624,0,1.104-0.288,1.297-0.84c0.071-0.24,0.119-0.576,0.119-2.064
					c0-1.487-0.048-1.823-0.119-2.063c-0.192-0.553-0.673-0.84-1.297-0.84s-1.104,0.287-1.296,0.84
					c-0.072,0.24-0.12,0.576-0.12,2.063c0,1.488,0.048,1.824,0.12,2.064C50.435,78.477,50.914,78.765,51.538,78.765z"/>
				<path fill="#260859" d="M63.705,77.109c-0.264-0.793-0.384-1.585-0.384-2.93c0-1.319,0.12-2.111,0.384-2.903
					c0.624-1.968,2.304-3.097,4.536-3.097s3.912,1.129,4.536,3.097c0.265,0.792,0.385,1.584,0.385,2.903
					c0,1.345-0.12,2.137-0.385,2.93c-0.624,1.943-2.304,3.096-4.536,3.096S64.329,79.053,63.705,77.109z M70.834,76.533
					c0.191-0.625,0.264-1.248,0.264-2.354c0-1.104-0.072-1.703-0.264-2.328c-0.385-1.151-1.32-1.799-2.593-1.799
					c-1.271,0-2.208,0.647-2.592,1.799c-0.192,0.625-0.265,1.225-0.265,2.328c0,1.105,0.072,1.729,0.265,2.354
					c0.384,1.151,1.32,1.8,2.592,1.8C69.514,78.333,70.449,77.685,70.834,76.533z"/>
				<path fill="#260859" d="M79.425,79.941c-0.168,0-0.239-0.097-0.288-0.24l-4.128-11.018c-0.048-0.144,0.024-0.24,0.192-0.24
					h1.656c0.168,0,0.239,0.072,0.312,0.24l2.977,8.257h0.048l2.904-8.257c0.048-0.168,0.144-0.24,0.288-0.24h1.632
					c0.168,0,0.24,0.097,0.192,0.24l-4.104,11.018c-0.048,0.144-0.145,0.24-0.312,0.24H79.425z"/>
				<path fill="#260859" d="M87.394,77.084c-0.24-0.743-0.384-1.584-0.384-2.904c0-1.319,0.12-2.207,0.359-2.903
					c0.648-1.992,2.328-3.097,4.513-3.097c2.208,0,3.864,1.129,4.513,3.097c0.239,0.743,0.359,1.536,0.359,3.288
					c0,0.145-0.096,0.24-0.264,0.24h-7.272c-0.096,0-0.145,0.048-0.145,0.145c0,0.623,0.072,1.008,0.192,1.392
					c0.456,1.319,1.488,1.992,2.904,1.992c1.368,0,2.328-0.552,2.952-1.272c0.12-0.12,0.24-0.145,0.36-0.048l0.983,0.888
					c0.12,0.096,0.12,0.217,0.024,0.336c-0.912,1.152-2.473,1.969-4.488,1.969C89.674,80.205,88.018,79.076,87.394,77.084z
					 M94.546,73.196c0.096,0,0.145-0.048,0.145-0.144c0-0.528-0.049-0.937-0.168-1.297c-0.385-1.152-1.345-1.8-2.641-1.8
					s-2.256,0.647-2.641,1.8c-0.119,0.36-0.168,0.769-0.168,1.297c0,0.096,0.049,0.144,0.145,0.144H94.546z"/>
				<path fill="#260859" d="M100.233,79.941c-0.144,0-0.24-0.097-0.24-0.24V68.684c0-0.144,0.097-0.24,0.24-0.24h1.536
					c0.145,0,0.24,0.097,0.24,0.24v1.176h0.024c0.504-0.983,1.512-1.68,3.048-1.68c0.912,0,1.776,0.336,2.353,0.864
					c0.12,0.12,0.144,0.216,0.048,0.336l-0.889,1.177c-0.096,0.119-0.216,0.144-0.336,0.047c-0.527-0.336-1.104-0.551-1.775-0.551
					c-1.753,0-2.473,1.367-2.473,3.359v6.289c0,0.144-0.096,0.24-0.24,0.24H100.233z"/>
				<path fill="#260859" d="M116.218,79.941c-0.144,0-0.24-0.097-0.24-0.24v-1.008h-0.023c-0.528,0.863-1.656,1.512-3.408,1.512
					c-2.185,0-3.864-1.129-3.864-3.457c0-2.424,1.68-3.552,4.488-3.552h2.616c0.096,0,0.144-0.048,0.144-0.144v-0.84
					c0-1.585-0.624-2.257-2.76-2.257c-1.297,0-2.112,0.336-2.784,0.815c-0.12,0.097-0.265,0.097-0.337-0.023l-0.647-1.104
					c-0.072-0.145-0.048-0.24,0.048-0.336c0.864-0.673,2.208-1.129,3.912-1.129c3.265,0,4.513,1.08,4.513,3.912v7.609
					c0,0.144-0.096,0.24-0.24,0.24H116.218z M115.93,76.221v-1.271c0-0.097-0.048-0.145-0.144-0.145h-2.305
					c-1.992,0-2.856,0.576-2.856,1.872c0,1.176,0.864,1.8,2.4,1.8C114.826,78.477,115.93,77.637,115.93,76.221z"/>
				<path fill="#260859" d="M124.474,80.061c-2.017,0-2.809-0.959-2.809-3.023V63.859c0-0.145,0.097-0.24,0.24-0.24h1.536
					c0.145,0,0.24,0.096,0.24,0.24v13.057c0,0.961,0.359,1.273,1.152,1.273h0.456c0.144,0,0.239,0.096,0.239,0.239v1.392
					c0,0.145-0.096,0.24-0.239,0.24H124.474z"/>
				<path fill="#260859" d="M131.073,80.061c-2.017,0-2.809-0.959-2.809-3.023V63.859c0-0.145,0.097-0.24,0.24-0.24h1.536
					c0.145,0,0.24,0.096,0.24,0.24v13.057c0,0.961,0.359,1.273,1.152,1.273h0.456c0.144,0,0.239,0.096,0.239,0.239v1.392
					c0,0.145-0.096,0.24-0.239,0.24H131.073z"/>
				<path fill="#260859" d="M147.681,79.941c-0.144,0-0.24-0.097-0.24-0.24v-1.008h-0.023c-0.528,0.863-1.656,1.512-3.408,1.512
					c-2.185,0-3.864-1.129-3.864-3.457c0-2.424,1.68-3.552,4.488-3.552h2.616c0.096,0,0.144-0.048,0.144-0.144v-0.84
					c0-1.585-0.624-2.257-2.76-2.257c-1.297,0-2.112,0.336-2.784,0.815c-0.12,0.097-0.265,0.097-0.337-0.023l-0.647-1.104
					c-0.072-0.145-0.048-0.24,0.048-0.336c0.864-0.673,2.208-1.129,3.912-1.129c3.265,0,4.513,1.08,4.513,3.912v7.609
					c0,0.144-0.096,0.24-0.24,0.24H147.681z M147.393,76.221v-1.271c0-0.097-0.048-0.145-0.144-0.145h-2.305
					c-1.992,0-2.856,0.576-2.856,1.872c0,1.176,0.864,1.8,2.4,1.8C146.289,78.477,147.393,77.637,147.393,76.221z"/>
				<path fill="#260859" d="M153.368,65.852c-0.144,0-0.24-0.096-0.24-0.24v-1.752c0-0.145,0.097-0.24,0.24-0.24H155
					c0.145,0,0.24,0.096,0.24,0.24v1.752c0,0.145-0.096,0.24-0.24,0.24H153.368z M153.416,79.941c-0.144,0-0.24-0.097-0.24-0.24
					V68.684c0-0.144,0.097-0.24,0.24-0.24h1.536c0.145,0,0.24,0.097,0.24,0.24v11.018c0,0.144-0.096,0.24-0.24,0.24H153.416z"/>
				<path fill="#260859" d="M159.368,79.941c-0.144,0-0.24-0.097-0.24-0.24V68.684c0-0.144,0.097-0.24,0.24-0.24h1.536
					c0.145,0,0.24,0.097,0.24,0.24v1.176h0.024c0.504-0.983,1.512-1.68,3.048-1.68c0.912,0,1.776,0.336,2.353,0.864
					c0.12,0.12,0.144,0.216,0.048,0.336l-0.889,1.177c-0.096,0.119-0.216,0.144-0.336,0.047c-0.527-0.336-1.104-0.551-1.775-0.551
					c-1.753,0-2.473,1.367-2.473,3.359v6.289c0,0.144-0.096,0.24-0.24,0.24H159.368z"/>
				<path fill="#260859" d="M171.729,80.061c-2.017,0-2.809-0.959-2.809-3.023V63.859c0-0.145,0.097-0.24,0.24-0.24h1.536
					c0.144,0,0.24,0.096,0.24,0.24v13.057c0,0.961,0.359,1.273,1.152,1.273h0.456c0.144,0,0.239,0.096,0.239,0.239v1.392
					c0,0.145-0.096,0.24-0.239,0.24H171.729z"/>
				<path fill="#260859" d="M175.808,65.852c-0.144,0-0.24-0.096-0.24-0.24v-1.752c0-0.145,0.097-0.24,0.24-0.24h1.632
					c0.145,0,0.24,0.096,0.24,0.24v1.752c0,0.145-0.096,0.24-0.24,0.24H175.808z M175.855,79.941c-0.144,0-0.24-0.097-0.24-0.24
					V68.684c0-0.144,0.097-0.24,0.24-0.24h1.536c0.145,0,0.24,0.097,0.24,0.24v11.018c0,0.144-0.096,0.24-0.24,0.24H175.855z"/>
				<path fill="#260859" d="M189.032,79.941c-0.144,0-0.24-0.097-0.24-0.24V72.98c0-1.848-0.84-2.928-2.567-2.928
					c-1.561,0-2.641,1.104-2.641,2.808v6.841c0,0.144-0.096,0.24-0.24,0.24h-1.536c-0.144,0-0.24-0.097-0.24-0.24V68.684
					c0-0.144,0.097-0.24,0.24-0.24h1.536c0.145,0,0.24,0.097,0.24,0.24v1.057h0.024c0.552-0.889,1.655-1.561,3.216-1.561
					c2.496,0,3.984,1.705,3.984,4.32v7.201c0,0.144-0.096,0.24-0.24,0.24H189.032z"/>
				<path fill="#260859" d="M194.312,77.084c-0.24-0.743-0.384-1.584-0.384-2.904c0-1.319,0.12-2.207,0.359-2.903
					c0.648-1.992,2.328-3.097,4.513-3.097c2.208,0,3.864,1.129,4.513,3.097c0.239,0.743,0.359,1.536,0.359,3.288
					c0,0.145-0.096,0.24-0.264,0.24h-7.272c-0.096,0-0.145,0.048-0.145,0.145c0,0.623,0.072,1.008,0.192,1.392
					c0.456,1.319,1.488,1.992,2.904,1.992c1.368,0,2.328-0.552,2.952-1.272c0.12-0.12,0.24-0.145,0.36-0.048l0.983,0.888
					c0.12,0.096,0.12,0.217,0.024,0.336c-0.912,1.152-2.473,1.969-4.488,1.969C196.592,80.205,194.936,79.076,194.312,77.084z
					 M201.464,73.196c0.096,0,0.145-0.048,0.145-0.144c0-0.528-0.049-0.937-0.168-1.297c-0.385-1.152-1.345-1.8-2.641-1.8
					s-2.256,0.647-2.641,1.8c-0.119,0.36-0.168,0.769-0.168,1.297c0,0.096,0.049,0.144,0.145,0.144H201.464z"/>
				<path fill="#260859" d="M212.911,84.262c-0.144,0-0.24-0.096-0.24-0.24V68.684c0-0.144,0.097-0.24,0.24-0.24h1.536
					c0.145,0,0.24,0.097,0.24,0.24v1.08h0.024c0.552-0.912,1.536-1.584,3.264-1.584c1.992,0,3.385,0.937,3.961,2.76
					c0.312,0.912,0.407,1.824,0.407,3.24c0,1.441-0.096,2.354-0.407,3.266c-0.576,1.824-1.969,2.76-3.961,2.76
					c-1.728,0-2.712-0.696-3.264-1.608h-0.024v5.425c0,0.145-0.096,0.24-0.24,0.24H212.911z M220.016,76.58
					c0.192-0.6,0.265-1.344,0.265-2.4c0-1.031-0.072-1.775-0.265-2.399c-0.384-1.128-1.248-1.728-2.52-1.728
					c-1.272,0-2.16,0.575-2.545,1.728c-0.191,0.576-0.264,1.248-0.264,2.399c0,1.152,0.072,1.85,0.264,2.4
					c0.385,1.152,1.272,1.753,2.545,1.753C218.768,78.333,219.632,77.709,220.016,76.58z"/>
				<path fill="#260859" d="M225.823,79.941c-0.144,0-0.24-0.097-0.24-0.24V68.684c0-0.144,0.097-0.24,0.24-0.24h1.536
					c0.145,0,0.24,0.097,0.24,0.24v1.176h0.024c0.504-0.983,1.512-1.68,3.048-1.68c0.912,0,1.776,0.336,2.353,0.864
					c0.12,0.12,0.144,0.216,0.048,0.336l-0.889,1.177c-0.096,0.119-0.216,0.144-0.336,0.047c-0.527-0.336-1.104-0.551-1.775-0.551
					c-1.753,0-2.473,1.367-2.473,3.359v6.289c0,0.144-0.096,0.24-0.24,0.24H225.823z"/>
				<path fill="#260859" d="M234.68,77.109c-0.264-0.793-0.384-1.585-0.384-2.93c0-1.319,0.12-2.111,0.384-2.903
					c0.624-1.968,2.304-3.097,4.536-3.097s3.912,1.129,4.536,3.097c0.265,0.792,0.385,1.584,0.385,2.903
					c0,1.345-0.12,2.137-0.385,2.93c-0.624,1.943-2.304,3.096-4.536,3.096S235.304,79.053,234.68,77.109z M241.809,76.533
					c0.191-0.625,0.264-1.248,0.264-2.354c0-1.104-0.072-1.703-0.264-2.328c-0.385-1.151-1.32-1.799-2.593-1.799
					c-1.271,0-2.208,0.647-2.592,1.799c-0.192,0.625-0.265,1.225-0.265,2.328c0,1.105,0.072,1.729,0.265,2.354
					c0.384,1.151,1.32,1.8,2.592,1.8C240.488,78.333,241.424,77.685,241.809,76.533z"/>
				<path fill="#260859" d="M247.999,79.941c-0.144,0-0.239-0.097-0.239-0.24v-9.48c0-0.097-0.049-0.145-0.145-0.145h-0.984
					c-0.144,0-0.239-0.096-0.239-0.24v-1.152c0-0.144,0.096-0.24,0.239-0.24h0.984c0.096,0,0.145-0.047,0.145-0.144v-0.983
					c0-2.713,1.104-3.697,3.504-3.697h0.888c0.145,0,0.24,0.096,0.24,0.24v1.393c0,0.144-0.096,0.24-0.24,0.24h-0.624
					c-1.464,0-1.752,0.312-1.752,1.728v1.08c0,0.097,0.048,0.144,0.145,0.144h2.231c0.145,0,0.24,0.097,0.24,0.24v1.152
					c0,0.145-0.096,0.24-0.24,0.24h-2.231c-0.097,0-0.145,0.048-0.145,0.145v9.48c0,0.144-0.096,0.24-0.24,0.24H247.999z
					 M255.2,65.852c-0.145,0-0.24-0.096-0.24-0.24v-1.752c0-0.145,0.096-0.24,0.24-0.24h1.632c0.145,0,0.24,0.096,0.24,0.24v1.752
					c0,0.145-0.096,0.24-0.24,0.24H255.2z M255.248,79.941c-0.144,0-0.24-0.097-0.24-0.24V68.684c0-0.144,0.097-0.24,0.24-0.24
					h1.536c0.144,0,0.24,0.097,0.24,0.24v11.018c0,0.144-0.097,0.24-0.24,0.24H255.248z"/>
				<path fill="#260859" d="M264.296,80.061c-2.232,0-3.097-1.008-3.097-3.264v-6.576c0-0.097-0.048-0.145-0.144-0.145h-0.96
					c-0.145,0-0.24-0.096-0.24-0.24v-1.152c0-0.144,0.096-0.24,0.24-0.24h0.96c0.096,0,0.144-0.047,0.144-0.144v-3.24
					c0-0.144,0.096-0.239,0.24-0.239h1.536c0.144,0,0.24,0.096,0.24,0.239v3.24c0,0.097,0.048,0.144,0.144,0.144h1.824
					c0.145,0,0.24,0.097,0.24,0.24v1.152c0,0.145-0.096,0.24-0.24,0.24h-1.824c-0.096,0-0.144,0.048-0.144,0.145v6.504
					c0,1.152,0.432,1.465,1.464,1.465h0.504c0.145,0,0.24,0.096,0.24,0.239v1.392c0,0.145-0.096,0.24-0.24,0.24H264.296z"/>
				<path fill="#260859" d="M288.992,79.941c-0.144,0-0.24-0.097-0.24-0.24V72.98c0-1.848-0.84-2.928-2.567-2.928
					c-1.536,0-2.641,1.104-2.641,2.808v6.841c0,0.144-0.096,0.24-0.24,0.24h-1.536c-0.144,0-0.24-0.097-0.24-0.24V72.98
					c0-1.848-0.84-2.928-2.567-2.928c-1.561,0-2.641,1.104-2.641,2.808v6.841c0,0.144-0.096,0.24-0.24,0.24h-1.536
					c-0.144,0-0.24-0.097-0.24-0.24V68.684c0-0.144,0.097-0.24,0.24-0.24h1.536c0.145,0,0.24,0.097,0.24,0.24v1.057h0.024
					c0.552-0.889,1.655-1.561,3.216-1.561s2.712,0.648,3.36,1.801h0.024c0.792-1.104,1.968-1.801,3.72-1.801
					c2.664,0,4.104,1.705,4.104,4.32v7.201c0,0.144-0.096,0.24-0.24,0.24H288.992z"/>
				<path fill="#260859" d="M301.543,79.941c-0.144,0-0.24-0.097-0.24-0.24v-1.008h-0.023c-0.528,0.863-1.656,1.512-3.408,1.512
					c-2.185,0-3.864-1.129-3.864-3.457c0-2.424,1.68-3.552,4.488-3.552h2.616c0.096,0,0.144-0.048,0.144-0.144v-0.84
					c0-1.585-0.624-2.257-2.76-2.257c-1.297,0-2.112,0.336-2.784,0.815c-0.12,0.097-0.265,0.097-0.337-0.023l-0.647-1.104
					c-0.072-0.145-0.048-0.24,0.048-0.336c0.864-0.673,2.208-1.129,3.912-1.129c3.265,0,4.513,1.08,4.513,3.912v7.609
					c0,0.144-0.096,0.24-0.24,0.24H301.543z M301.255,76.221v-1.271c0-0.097-0.048-0.145-0.144-0.145h-2.305
					c-1.992,0-2.856,0.576-2.856,1.872c0,1.176,0.864,1.8,2.4,1.8C300.151,78.477,301.255,77.637,301.255,76.221z"/>
				<path fill="#260859" d="M307.278,79.941c-0.144,0-0.24-0.097-0.24-0.24V68.684c0-0.144,0.097-0.24,0.24-0.24h1.536
					c0.145,0,0.24,0.097,0.24,0.24v1.176h0.024c0.504-0.983,1.512-1.68,3.048-1.68c0.912,0,1.776,0.336,2.353,0.864
					c0.12,0.12,0.144,0.216,0.048,0.336l-0.889,1.177c-0.096,0.119-0.216,0.144-0.336,0.047c-0.527-0.336-1.104-0.551-1.775-0.551
					c-1.753,0-2.473,1.367-2.473,3.359v6.289c0,0.144-0.096,0.24-0.24,0.24H307.278z"/>
				<path fill="#260859" d="M316.207,82.821c-0.097-0.12-0.097-0.216,0.023-0.336l0.984-0.984c0.12-0.12,0.24-0.12,0.36,0
					c0.792,0.72,1.607,1.152,2.712,1.152c1.896,0,2.904-0.984,2.904-3.097v-1.344h-0.024c-0.527,0.96-1.512,1.584-3.192,1.584
					c-1.943,0-3.288-0.984-3.864-2.784c-0.288-0.864-0.384-1.704-0.384-3.024s0.096-2.16,0.384-3.023
					c0.576-1.801,1.921-2.785,3.864-2.785c1.681,0,2.665,0.625,3.192,1.584h0.024v-1.08c0-0.144,0.096-0.24,0.24-0.24h1.536
					c0.144,0,0.239,0.097,0.239,0.24v10.754c0,3.264-1.775,5.088-5.016,5.088C318.583,84.525,316.975,83.829,316.207,82.821z
					 M322.928,76.221c0.191-0.576,0.264-1.248,0.264-2.232s-0.072-1.632-0.264-2.232c-0.408-1.176-1.249-1.703-2.448-1.703
					c-1.249,0-2.041,0.6-2.425,1.703c-0.191,0.601-0.288,1.297-0.288,2.232s0.097,1.656,0.288,2.232
					c0.384,1.128,1.176,1.729,2.425,1.729C321.679,77.949,322.52,77.396,322.928,76.221z"/>
				<path fill="#260859" d="M329.334,65.852c-0.144,0-0.24-0.096-0.24-0.24v-1.752c0-0.145,0.097-0.24,0.24-0.24h1.632
					c0.145,0,0.24,0.096,0.24,0.24v1.752c0,0.145-0.096,0.24-0.24,0.24H329.334z M329.382,79.941c-0.144,0-0.24-0.097-0.24-0.24
					V68.684c0-0.144,0.097-0.24,0.24-0.24h1.536c0.145,0,0.24,0.097,0.24,0.24v11.018c0,0.144-0.096,0.24-0.24,0.24H329.382z"/>
				<path fill="#260859" d="M342.558,79.941c-0.144,0-0.24-0.097-0.24-0.24V72.98c0-1.848-0.84-2.928-2.567-2.928
					c-1.561,0-2.641,1.104-2.641,2.808v6.841c0,0.144-0.096,0.24-0.24,0.24h-1.536c-0.144,0-0.24-0.097-0.24-0.24V68.684
					c0-0.144,0.097-0.24,0.24-0.24h1.536c0.145,0,0.24,0.097,0.24,0.24v1.057h0.024c0.552-0.889,1.655-1.561,3.216-1.561
					c2.496,0,3.984,1.705,3.984,4.32v7.201c0,0.144-0.096,0.24-0.24,0.24H342.558z"/>
				<path fill="#260859" d="M9.997,111.182c0.028-0.168,0.141-0.281,0.309-0.281h2.996c0.224,0,0.363,0.084,0.42,0.281l2.716,11.088
					h0.084l6.552-11.088c0.112-0.197,0.252-0.281,0.448-0.281h3.332c0.168,0,0.28,0.113,0.252,0.281l-3.276,18.479
					c-0.027,0.168-0.14,0.28-0.308,0.28h-3.024c-0.168,0-0.279-0.112-0.252-0.28l1.96-11.06h-0.111l-4.956,8.344
					c-0.141,0.279-0.336,0.363-0.561,0.363h-1.792c-0.195,0-0.363-0.084-0.447-0.363l-1.988-8.344h-0.112l-1.96,11.06
					c-0.028,0.168-0.14,0.28-0.28,0.28H6.974c-0.168,0-0.28-0.112-0.252-0.28L9.997,111.182z"/>
				<path fill="#260859" d="M27.554,125.293c0-1.652,0.363-3.977,1.119-5.488c1.177-2.408,3.192-3.724,6.301-3.724
					c2.855,0,5.012,1.651,5.012,4.76c0,0.728-0.084,1.624-0.364,3.164c-0.028,0.168-0.168,0.28-0.336,0.28h-7.924
					c-0.112,0-0.168,0.056-0.196,0.168c-0.027,0.14-0.027,0.279-0.027,0.42c0,1.708,0.867,2.352,2.436,2.352
					c1.176,0,2.352-0.588,3.248-1.316c0.168-0.139,0.308-0.111,0.42,0l1.372,1.652c0.112,0.141,0.112,0.309-0.028,0.448
					c-1.428,1.315-3.304,2.24-5.796,2.24C29.485,130.249,27.554,128.513,27.554,125.293z M36.177,121.793
					c0.112,0,0.168-0.057,0.196-0.168c0.057-0.28,0.084-0.561,0.084-0.756c0-1.316-0.7-1.904-1.96-1.904
					c-1.092,0-1.988,0.532-2.464,1.512c-0.168,0.336-0.252,0.645-0.336,1.121c-0.028,0.139,0,0.195,0.112,0.195H36.177z"/>
				<path fill="#260859" d="M45.753,130.109c-3.107,0-3.92-1.457-3.388-4.48l1.176-6.328c0.028-0.111-0.027-0.168-0.14-0.168h-0.84
					c-0.168,0-0.225-0.111-0.196-0.279l0.392-2.185c0.028-0.168,0.141-0.28,0.309-0.28h0.84c0.112,0,0.168-0.056,0.196-0.168
					l0.644-3.64c0.028-0.168,0.168-0.28,0.336-0.28h3.164c0.168,0,0.252,0.112,0.224,0.28l-0.644,3.64
					c-0.028,0.112,0,0.168,0.112,0.168h1.708c0.168,0,0.252,0.112,0.224,0.28l-0.364,2.185c-0.027,0.168-0.168,0.279-0.336,0.279
					h-1.735c-0.084,0-0.141,0.057-0.168,0.168l-1.148,6.188c-0.196,1.064,0.056,1.4,0.98,1.4h0.615c0.168,0,0.252,0.112,0.225,0.28
					l-0.477,2.66c-0.027,0.168-0.14,0.28-0.308,0.28H45.753z"/>
				<path fill="#260859" d="M50.569,129.941c-0.169,0-0.28-0.112-0.253-0.28l2.297-12.992c0.027-0.168,0.14-0.28,0.308-0.28h3.22
					c0.168,0,0.252,0.112,0.225,0.28l-0.225,1.204h0.028c0.812-1.12,2.128-1.792,3.64-1.792c0.924,0,1.708,0.308,2.156,0.812
					c0.112,0.141,0.14,0.252,0.028,0.393l-1.904,2.716c-0.14,0.14-0.252,0.168-0.392,0.056c-0.532-0.363-1.064-0.615-1.736-0.615
					c-1.456,0-2.296,1.092-2.632,3.052l-1.261,7.168c-0.027,0.168-0.111,0.28-0.279,0.28H50.569z"/>
				<path fill="#260859" d="M62.105,129.941c-0.169,0-0.28-0.112-0.253-0.28l2.297-12.992c0.027-0.168,0.14-0.28,0.308-0.28h3.22
					c0.168,0,0.252,0.112,0.225,0.28l-2.296,12.992c-0.028,0.168-0.112,0.28-0.28,0.28H62.105z M64.849,114.121
					c-0.168,0-0.252-0.112-0.224-0.28l0.504-2.659c0.028-0.168,0.14-0.281,0.308-0.281h3.221c0.168,0,0.252,0.113,0.224,0.281
					l-0.476,2.659c-0.028,0.168-0.141,0.28-0.309,0.28H64.849z"/>
				<path fill="#260859" d="M69.245,125.434c0-1.345,0.336-3.893,1.203-5.713c1.204-2.464,3.36-3.64,6.188-3.64
					c2.268,0,3.78,1.063,4.424,2.716c0.056,0.168,0.028,0.28-0.112,0.364l-2.436,1.372c-0.168,0.111-0.364,0.056-0.448-0.084
					c-0.42-0.784-0.924-1.204-1.792-1.204c-0.979,0-1.82,0.504-2.324,1.54c-0.531,1.092-0.896,3.332-0.896,4.199
					c0,1.4,0.588,2.101,1.792,2.101c0.868,0,1.568-0.392,2.352-1.261c0.141-0.168,0.252-0.168,0.364-0.084l2.128,1.541
					c0.14,0.084,0.14,0.252,0.028,0.392c-1.232,1.708-3.052,2.576-5.46,2.576C71.205,130.249,69.245,128.457,69.245,125.434z"/>
				<path fill="#260859" d="M81.396,128.121c-0.084-0.084-0.056-0.28,0.056-0.393l2.017-1.875c0.14-0.113,0.279-0.113,0.392,0
					c1.036,0.896,2.353,1.428,3.752,1.428c1.484,0,2.38-0.812,2.38-1.625c0-0.615-0.42-0.924-1.596-1.035l-1.428-0.141
					c-2.38-0.252-3.696-1.512-3.696-3.388c0-3.22,2.576-5.012,6.104-5.012c2.128,0,4.004,0.784,5.012,1.708
					c0.111,0.111,0.084,0.279-0.028,0.393l-1.792,1.819c-0.14,0.14-0.28,0.14-0.392,0.056c-0.812-0.588-1.933-1.063-3.276-1.063
					c-1.26,0-1.988,0.672-1.988,1.399c0,0.561,0.28,0.868,1.54,1.008l1.4,0.141c2.688,0.279,3.808,1.54,3.808,3.359
					c0,3.221-2.464,5.349-6.552,5.349C84.393,130.249,82.461,129.213,81.396,128.121z"/>
				<path fill="#260859" d="M102.173,125.377c0-1.596,0.447-4.145,1.203-5.684c1.261-2.576,3.444-3.612,6.272-3.612
					c3.107,0,5.096,1.765,5.096,4.872c0,1.596-0.448,4.145-1.204,5.684c-1.26,2.576-3.443,3.612-6.271,3.612
					C104.16,130.249,102.173,128.484,102.173,125.377z M110.068,125.545c0.476-0.98,0.896-3.305,0.896-4.229
					c0-1.315-0.504-2.071-1.819-2.071c-1.036,0-1.792,0.504-2.296,1.54c-0.477,0.98-0.896,3.304-0.896,4.229
					c0,1.315,0.504,2.071,1.82,2.071C108.809,127.085,109.564,126.581,110.068,125.545z"/>
				<path fill="#260859" d="M116.872,129.941c-0.168,0-0.28-0.112-0.252-0.28l1.82-10.36c0.027-0.111-0.028-0.168-0.112-0.168h-0.84
					c-0.168,0-0.225-0.111-0.196-0.279l0.392-2.185c0.028-0.168,0.112-0.28,0.28-0.28h0.84c0.084,0,0.168-0.056,0.196-0.168
					l0.112-0.699c0.588-3.305,2.268-4.621,5.376-4.621h1.483c0.141,0,0.252,0.113,0.225,0.281l-0.448,2.491
					c-0.028,0.168-0.168,0.28-0.308,0.28h-0.784c-1.232,0-1.624,0.309-1.82,1.512l-0.14,0.729c-0.028,0.14,0.027,0.195,0.14,0.195
					h2.128c0.168,0,0.28,0.112,0.252,0.28l-0.392,2.185c-0.028,0.168-0.168,0.279-0.336,0.279h-2.128
					c-0.112,0-0.168,0.057-0.196,0.168l-1.792,10.36c-0.028,0.168-0.14,0.28-0.28,0.28H116.872z"/>
				<path fill="#260859" d="M131.208,127.673c-0.084-0.14-0.111-0.308,0.028-0.448l2.408-2.296c0.14-0.14,0.308-0.14,0.392-0.028
					c0.952,0.98,2.548,1.877,4.48,1.877c2.1,0,3.5-1.289,3.5-2.856c0-0.924-0.561-1.512-2.437-1.792l-0.924-0.141
					c-3.191-0.475-4.956-2.043-4.956-4.76c0-4.031,3.136-6.636,7.477-6.636c2.407,0,4.619,0.812,5.936,2.017
					c0.14,0.111,0.14,0.224,0,0.42l-1.988,2.296c-0.14,0.14-0.279,0.168-0.392,0.084c-1.204-0.896-2.38-1.372-3.864-1.372
					c-1.792,0-3.052,1.148-3.052,2.604c0,0.924,0.588,1.541,2.436,1.82l0.925,0.141c3.191,0.476,4.983,1.987,4.983,4.563
					c0,4.452-3.416,7.084-8.176,7.084C135.156,130.249,132.385,129.072,131.208,127.673z"/>
				<path fill="#260859" d="M153.439,116.389c0.168,0,0.28,0.112,0.252,0.28l-1.372,7.812c-0.279,1.568,0.225,2.576,1.54,2.576
					c1.316,0,2.24-1.008,2.521-2.548l1.372-7.84c0.027-0.168,0.14-0.28,0.279-0.28h3.221c0.168,0,0.279,0.112,0.252,0.28
					l-2.324,12.992c-0.028,0.168-0.14,0.28-0.308,0.28h-3.192c-0.168,0-0.252-0.112-0.224-0.28l0.168-1.009h-0.028
					c-0.84,0.925-2.016,1.597-3.64,1.597c-2.912,0-4.032-2.072-3.5-5.04l1.512-8.54c0.028-0.168,0.14-0.28,0.28-0.28H153.439z"/>
				<path fill="#260859" d="M162.848,125.434c0-1.345,0.336-3.893,1.203-5.713c1.204-2.464,3.36-3.64,6.188-3.64
					c2.268,0,3.78,1.063,4.424,2.716c0.056,0.168,0.028,0.28-0.112,0.364l-2.436,1.372c-0.168,0.111-0.364,0.056-0.448-0.084
					c-0.42-0.784-0.924-1.204-1.792-1.204c-0.979,0-1.82,0.504-2.324,1.54c-0.531,1.092-0.896,3.332-0.896,4.199
					c0,1.4,0.588,2.101,1.792,2.101c0.868,0,1.568-0.392,2.352-1.261c0.141-0.168,0.252-0.168,0.364-0.084l2.128,1.541
					c0.14,0.084,0.14,0.252,0.028,0.392c-1.232,1.708-3.052,2.576-5.46,2.576C164.808,130.249,162.848,128.457,162.848,125.434z"/>
				<path fill="#260859" d="M175.224,125.434c0-1.345,0.336-3.893,1.203-5.713c1.204-2.464,3.36-3.64,6.188-3.64
					c2.268,0,3.78,1.063,4.424,2.716c0.056,0.168,0.028,0.28-0.112,0.364l-2.436,1.372c-0.168,0.111-0.364,0.056-0.448-0.084
					c-0.42-0.784-0.924-1.204-1.792-1.204c-0.979,0-1.82,0.504-2.324,1.54c-0.531,1.092-0.896,3.332-0.896,4.199
					c0,1.4,0.588,2.101,1.792,2.101c0.868,0,1.568-0.392,2.352-1.261c0.141-0.168,0.252-0.168,0.364-0.084l2.128,1.541
					c0.14,0.084,0.14,0.252,0.028,0.392c-1.232,1.708-3.052,2.576-5.46,2.576C177.184,130.249,175.224,128.457,175.224,125.434z"/>
				<path fill="#260859" d="M187.6,125.293c0-1.652,0.363-3.977,1.119-5.488c1.177-2.408,3.192-3.724,6.301-3.724
					c2.855,0,5.012,1.651,5.012,4.76c0,0.728-0.084,1.624-0.364,3.164c-0.028,0.168-0.168,0.28-0.336,0.28h-7.924
					c-0.112,0-0.168,0.056-0.196,0.168c-0.027,0.14-0.027,0.279-0.027,0.42c0,1.708,0.867,2.352,2.436,2.352
					c1.176,0,2.352-0.588,3.248-1.316c0.168-0.139,0.308-0.111,0.42,0l1.372,1.652c0.112,0.141,0.112,0.309-0.028,0.448
					c-1.428,1.315-3.304,2.24-5.796,2.24C189.531,130.249,187.6,128.513,187.6,125.293z M196.223,121.793
					c0.112,0,0.168-0.057,0.196-0.168c0.056-0.28,0.084-0.561,0.084-0.756c0-1.316-0.7-1.904-1.96-1.904
					c-1.092,0-1.988,0.532-2.464,1.512c-0.168,0.336-0.252,0.645-0.336,1.121c-0.028,0.139,0,0.195,0.112,0.195H196.223z"/>
				<path fill="#260859" d="M200.955,128.121c-0.084-0.084-0.056-0.28,0.056-0.393l2.017-1.875c0.14-0.113,0.279-0.113,0.392,0
					c1.036,0.896,2.353,1.428,3.752,1.428c1.484,0,2.38-0.812,2.38-1.625c0-0.615-0.42-0.924-1.596-1.035l-1.428-0.141
					c-2.38-0.252-3.696-1.512-3.696-3.388c0-3.22,2.576-5.012,6.104-5.012c2.128,0,4.004,0.784,5.012,1.708
					c0.111,0.111,0.084,0.279-0.028,0.393l-1.792,1.819c-0.14,0.14-0.28,0.14-0.392,0.056c-0.812-0.588-1.933-1.063-3.276-1.063
					c-1.26,0-1.988,0.672-1.988,1.399c0,0.561,0.28,0.868,1.54,1.008l1.4,0.141c2.688,0.279,3.808,1.54,3.808,3.359
					c0,3.221-2.464,5.349-6.552,5.349C203.951,130.249,202.02,129.213,200.955,128.121z"/>
				<path fill="#260859" d="M214.591,128.121c-0.084-0.084-0.056-0.28,0.056-0.393l2.017-1.875c0.14-0.113,0.279-0.113,0.392,0
					c1.036,0.896,2.353,1.428,3.752,1.428c1.484,0,2.38-0.812,2.38-1.625c0-0.615-0.42-0.924-1.596-1.035l-1.428-0.141
					c-2.38-0.252-3.696-1.512-3.696-3.388c0-3.22,2.576-5.012,6.104-5.012c2.128,0,4.004,0.784,5.012,1.708
					c0.111,0.111,0.084,0.279-0.028,0.393l-1.792,1.819c-0.14,0.14-0.28,0.14-0.392,0.056c-0.812-0.588-1.933-1.063-3.276-1.063
					c-1.26,0-1.988,0.672-1.988,1.399c0,0.561,0.28,0.868,1.54,1.008l1.4,0.141c2.688,0.279,3.808,1.54,3.808,3.359
					c0,3.221-2.464,5.349-6.552,5.349C217.587,130.249,215.655,129.213,214.591,128.121z"/>
				<path fill="#260859" d="M7.378,154.78c0-2.712,0.12-3.648,0.432-4.585c0.816-2.568,2.761-3.84,5.425-3.84
					c2.424,0,4.296,1.2,5.232,3.288c0.048,0.12,0.023,0.24-0.097,0.312l-1.439,0.697c-0.145,0.071-0.288,0-0.336-0.121
					c-0.648-1.271-1.656-2.184-3.36-2.184c-1.776,0-2.856,0.864-3.385,2.4c-0.216,0.672-0.312,1.464-0.312,4.032
					s0.096,3.36,0.312,4.032c0.528,1.536,1.608,2.4,3.385,2.4c1.704,0,2.712-0.912,3.36-2.184c0.048-0.121,0.191-0.193,0.336-0.121
					l1.439,0.696c0.12,0.072,0.145,0.192,0.097,0.312c-0.937,2.089-2.809,3.289-5.232,3.289c-2.664,0-4.608-1.272-5.425-3.84
					C7.498,158.429,7.378,157.492,7.378,154.78z"/>
				<path fill="#260859" d="M25.762,146.859c0.048-0.145,0.12-0.24,0.288-0.24h1.561c0.168,0,0.264,0.096,0.312,0.24l5.593,15.842
					c0.048,0.144-0.024,0.24-0.168,0.24h-1.68c-0.169,0-0.265-0.072-0.312-0.24l-1.248-3.553h-6.601l-1.248,3.553
					c-0.072,0.168-0.168,0.24-0.312,0.24h-1.68c-0.145,0-0.216-0.097-0.168-0.24L25.762,146.859z M29.41,157.18l-2.568-7.416h-0.048
					l-2.592,7.416H29.41z"/>
				<path fill="#260859" d="M35.313,161.164c-0.096-0.096-0.119-0.239-0.023-0.359l1.056-1.248c0.097-0.12,0.217-0.12,0.336-0.023
					c1.057,0.84,2.688,1.68,4.561,1.68c2.257,0,3.601-1.129,3.601-2.784c0-1.392-0.792-2.329-3.408-2.665l-0.816-0.119
					c-3.168-0.432-4.8-1.944-4.8-4.513c0-2.904,2.088-4.776,5.328-4.776c1.92,0,3.769,0.624,4.969,1.512
					c0.12,0.096,0.144,0.217,0.048,0.336l-0.816,1.32c-0.096,0.12-0.216,0.12-0.336,0.049c-1.32-0.816-2.544-1.225-3.937-1.225
					c-1.992,0-3.096,1.08-3.096,2.641c0,1.367,0.912,2.279,3.432,2.615l0.792,0.121c3.192,0.432,4.801,1.896,4.801,4.561
					c0,2.855-2.017,4.92-5.952,4.92C38.746,163.205,36.514,162.27,35.313,161.164z"/>
				<path fill="#260859" d="M50.29,146.859c0-0.145,0.096-0.24,0.239-0.24h1.656c0.145,0,0.24,0.096,0.24,0.24v8.497l6.937-8.521
					c0.12-0.168,0.216-0.217,0.384-0.217h1.969c0.144,0,0.216,0.145,0.096,0.289l-5.088,6.119l5.592,9.649
					c0.097,0.144,0.024,0.265-0.144,0.265H60.25c-0.168,0-0.239-0.049-0.336-0.217l-4.584-8.041l-2.904,3.505v4.513
					c0,0.144-0.096,0.24-0.24,0.24h-1.656c-0.144,0-0.239-0.097-0.239-0.24V146.859z"/>
				<path fill="#260859" d="M125.411,162.941c-0.168,0-0.239-0.072-0.312-0.24l-3.265-6.673h-3.601
					c-0.096,0-0.144,0.048-0.144,0.144v6.529c0,0.144-0.096,0.24-0.24,0.24h-1.656c-0.144,0-0.239-0.097-0.239-0.24v-15.842
					c0-0.145,0.096-0.24,0.239-0.24h5.905c3.048,0,5.112,1.873,5.112,4.705c0,2.208-1.248,3.816-3.217,4.439l3.48,6.889
					c0.096,0.145,0.024,0.289-0.144,0.289H125.411z M125.075,151.324c0-1.705-1.128-2.713-3.024-2.713h-3.816
					c-0.096,0-0.144,0.049-0.144,0.145v5.137c0,0.096,0.048,0.144,0.144,0.144h3.816
					C123.947,154.036,125.075,153.027,125.075,151.324z"/>
				<path fill="#260859" d="M134.986,146.859c0.048-0.145,0.12-0.24,0.288-0.24h1.561c0.168,0,0.264,0.096,0.312,0.24l5.593,15.842
					c0.048,0.144-0.024,0.24-0.168,0.24h-1.68c-0.169,0-0.265-0.072-0.312-0.24l-1.248-3.553h-6.601l-1.248,3.553
					c-0.072,0.168-0.168,0.24-0.312,0.24h-1.68c-0.145,0-0.216-0.097-0.168-0.24L134.986,146.859z M138.635,157.18l-2.568-7.416
					h-0.048l-2.592,7.416H138.635z"/>
				<path fill="#260859" d="M144.538,161.164c-0.096-0.096-0.119-0.239-0.023-0.359l1.056-1.248c0.097-0.12,0.217-0.12,0.336-0.023
					c1.057,0.84,2.688,1.68,4.561,1.68c2.257,0,3.601-1.129,3.601-2.784c0-1.392-0.792-2.329-3.408-2.665l-0.816-0.119
					c-3.168-0.432-4.8-1.944-4.8-4.513c0-2.904,2.088-4.776,5.328-4.776c1.92,0,3.769,0.624,4.969,1.512
					c0.12,0.096,0.144,0.217,0.048,0.336l-0.816,1.32c-0.096,0.12-0.216,0.12-0.336,0.049c-1.32-0.816-2.544-1.225-3.937-1.225
					c-1.992,0-3.096,1.08-3.096,2.641c0,1.367,0.912,2.279,3.432,2.615l0.792,0.121c3.192,0.432,4.801,1.896,4.801,4.561
					c0,2.855-2.017,4.92-5.952,4.92C147.971,163.205,145.738,162.27,144.538,161.164z"/>
				<path fill="#260859" d="M159.515,146.859c0-0.145,0.096-0.24,0.239-0.24h1.656c0.145,0,0.24,0.096,0.24,0.24v8.497l6.937-8.521
					c0.12-0.168,0.216-0.217,0.384-0.217h1.969c0.144,0,0.216,0.145,0.096,0.289l-5.088,6.119l5.592,9.649
					c0.097,0.144,0.024,0.265-0.144,0.265h-1.921c-0.168,0-0.239-0.049-0.336-0.217l-4.584-8.041l-2.904,3.505v4.513
					c0,0.144-0.096,0.24-0.24,0.24h-1.656c-0.144,0-0.239-0.097-0.239-0.24V146.859z"/>
				<path fill="#260859" d="M9.27,197.988c1.512-3.023,3.892-4.395,7.224-4.395c3.024,0,4.984,1.596,5.601,4.227
					c0.027,0.168-0.028,0.281-0.196,0.365l-2.968,1.23c-0.168,0.084-0.309,0-0.364-0.168c-0.308-1.23-0.979-2.154-2.52-2.154
					c-1.513,0-2.549,0.84-3.192,2.238c-0.672,1.373-1.512,6.357-1.512,7.758c0,1.623,0.896,2.658,2.52,2.658
					c1.4,0,2.492-0.951,3.22-2.184c0.112-0.168,0.252-0.223,0.42-0.139l2.66,1.428c0.141,0.055,0.168,0.195,0.084,0.363
					c-1.735,2.828-3.92,4.031-6.972,4.031c-3.5,0-5.908-2.016-5.908-5.822C7.365,205.717,8.262,200.061,9.27,197.988z"/>
				<path fill="#260859" d="M30.298,212.941c-0.141,0-0.252-0.113-0.225-0.281l1.372-7.783c0.252-1.596-0.224-2.604-1.567-2.604
					c-1.316,0-2.269,1.008-2.549,2.547l-1.372,7.84c-0.027,0.168-0.111,0.281-0.279,0.281h-3.22c-0.169,0-0.28-0.113-0.253-0.281
					l3.276-18.479c0.028-0.168,0.14-0.281,0.308-0.281h3.221c0.168,0,0.252,0.113,0.224,0.281l-1.176,6.496h0.028
					c0.783-0.896,2.016-1.598,3.695-1.598c2.94,0,4.061,2.156,3.557,5.068l-1.54,8.512c-0.028,0.168-0.141,0.281-0.309,0.281H30.298
					z"/>
				<path fill="#260859" d="M44.745,212.941c-0.14,0-0.252-0.113-0.224-0.281l0.14-0.924h-0.027
					c-0.784,0.896-2.045,1.512-3.864,1.512c-2.044,0-3.668-1.287-3.668-3.443c0-3.275,2.296-5.012,6.244-5.012h2.352
					c0.112,0,0.196-0.057,0.224-0.168l0.112-0.615c0.225-1.316-0.224-1.904-2.38-1.904c-1.344,0-2.38,0.42-3.08,0.895
					c-0.168,0.113-0.28,0.057-0.336-0.084l-0.84-2.1c-0.056-0.168,0-0.307,0.14-0.391c1.232-0.812,3.137-1.346,5.097-1.346
					c4.004,0,5.6,1.316,4.955,4.873l-1.567,8.707c-0.028,0.168-0.141,0.281-0.309,0.281H44.745z M45.249,208.488l0.168-1.035
					c0.028-0.111-0.027-0.168-0.14-0.168h-1.904c-1.848,0-2.632,0.672-2.632,1.904c0,0.756,0.561,1.26,1.68,1.26
					C44.018,210.449,45.054,209.777,45.249,208.488z"/>
				<path fill="#260859" d="M55.273,213.109c-2.968,0-3.752-1.344-3.248-4.229l2.632-14.699c0.028-0.168,0.14-0.281,0.28-0.281h3.22
					c0.168,0,0.28,0.113,0.252,0.281l-2.632,14.475c-0.14,0.869,0.112,1.232,0.924,1.232h0.532c0.168,0,0.252,0.111,0.224,0.279
					l-0.447,2.66c-0.028,0.168-0.169,0.281-0.337,0.281H55.273z"/>
				<path fill="#260859" d="M63.449,213.109c-2.968,0-3.752-1.344-3.248-4.229l2.632-14.699c0.028-0.168,0.14-0.281,0.28-0.281h3.22
					c0.168,0,0.28,0.113,0.252,0.281l-2.632,14.475c-0.14,0.869,0.112,1.232,0.924,1.232h0.532c0.168,0,0.252,0.111,0.224,0.279
					l-0.447,2.66c-0.028,0.168-0.169,0.281-0.337,0.281H63.449z"/>
				<path fill="#260859" d="M67.985,208.293c0-1.652,0.363-3.977,1.119-5.488c1.177-2.408,3.192-3.725,6.301-3.725
					c2.855,0,5.012,1.652,5.012,4.762c0,0.727-0.084,1.623-0.364,3.164c-0.028,0.168-0.168,0.279-0.336,0.279h-7.924
					c-0.112,0-0.168,0.057-0.196,0.168c-0.027,0.141-0.027,0.279-0.027,0.42c0,1.707,0.867,2.352,2.436,2.352
					c1.176,0,2.352-0.588,3.248-1.316c0.168-0.139,0.308-0.111,0.42,0l1.372,1.652c0.112,0.141,0.112,0.309-0.028,0.449
					c-1.428,1.314-3.304,2.238-5.796,2.238C69.917,213.248,67.985,211.514,67.985,208.293z M76.608,204.793
					c0.112,0,0.168-0.057,0.196-0.168c0.057-0.279,0.084-0.561,0.084-0.756c0-1.316-0.7-1.904-1.96-1.904
					c-1.092,0-1.988,0.531-2.464,1.512c-0.168,0.336-0.252,0.645-0.336,1.121c-0.028,0.139,0,0.195,0.112,0.195H76.608z"/>
				<path fill="#260859" d="M89.909,212.941c-0.141,0-0.252-0.113-0.225-0.281l1.372-7.783c0.252-1.596-0.224-2.604-1.567-2.604
					c-1.316,0-2.269,1.008-2.549,2.547l-1.372,7.84c-0.027,0.168-0.111,0.281-0.279,0.281h-3.22c-0.169,0-0.28-0.113-0.253-0.281
					l2.297-12.99c0.027-0.17,0.14-0.281,0.308-0.281h3.22c0.168,0,0.252,0.111,0.225,0.281l-0.196,1.008h0.028
					c0.783-0.896,2.016-1.598,3.695-1.598c2.94,0,4.061,2.156,3.557,5.041l-1.54,8.539c-0.028,0.168-0.141,0.281-0.309,0.281H89.909
					z"/>
				<path fill="#260859" d="M96.097,216.076c-0.112-0.139-0.084-0.336,0.056-0.447l2.072-1.736c0.168-0.141,0.308-0.141,0.448,0
					c0.728,0.756,1.428,1.232,2.492,1.232c1.819,0,2.827-0.98,3.191-3.08l0.225-1.232h-0.028c-0.756,1.008-1.932,1.625-3.584,1.625
					c-2.632,0-3.864-1.709-3.864-4.34c0-1.514,0.448-4.229,1.204-5.797c1.008-2.156,2.66-3.221,4.9-3.221
					c1.68,0,2.716,0.674,3.107,1.652h0.028l0.196-1.062c0.027-0.17,0.14-0.281,0.308-0.281h3.136c0.168,0,0.252,0.111,0.225,0.281
					l-2.072,11.955c-0.84,4.844-3.08,6.664-7.28,6.664C98.673,218.289,96.908,217.336,96.097,216.076z M104.833,207.789
					c0.447-0.867,0.756-2.492,0.756-3.5c0-1.316-0.504-2.045-1.765-2.045c-0.979,0-1.651,0.477-2.155,1.514
					c-0.448,0.867-0.756,2.49-0.756,3.5c0,1.314,0.504,2.043,1.764,2.043C103.656,209.301,104.329,208.824,104.833,207.789z"/>
				<path fill="#260859" d="M111.581,208.293c0-1.652,0.363-3.977,1.119-5.488c1.177-2.408,3.192-3.725,6.301-3.725
					c2.855,0,5.012,1.652,5.012,4.762c0,0.727-0.084,1.623-0.364,3.164c-0.028,0.168-0.168,0.279-0.336,0.279h-7.924
					c-0.112,0-0.168,0.057-0.196,0.168c-0.027,0.141-0.027,0.279-0.027,0.42c0,1.707,0.867,2.352,2.436,2.352
					c1.176,0,2.352-0.588,3.248-1.316c0.168-0.139,0.308-0.111,0.42,0l1.372,1.652c0.112,0.141,0.112,0.309-0.028,0.449
					c-1.428,1.314-3.304,2.238-5.796,2.238C113.513,213.248,111.581,211.514,111.581,208.293z M120.204,204.793
					c0.112,0,0.168-0.057,0.196-0.168c0.057-0.279,0.084-0.561,0.084-0.756c0-1.316-0.7-1.904-1.96-1.904
					c-1.092,0-1.988,0.531-2.464,1.512c-0.168,0.336-0.252,0.645-0.336,1.121c-0.028,0.139,0,0.195,0.112,0.195H120.204z"/>
				<path fill="#260859" d="M7.378,237.779c0-2.711,0.12-3.646,0.432-4.584c0.816-2.568,2.761-3.84,5.425-3.84
					c2.424,0,4.296,1.199,5.232,3.289c0.048,0.119,0.023,0.238-0.097,0.311l-1.439,0.697c-0.145,0.072-0.288,0-0.336-0.121
					c-0.648-1.271-1.656-2.184-3.36-2.184c-1.776,0-2.856,0.863-3.385,2.4c-0.216,0.672-0.312,1.465-0.312,4.031
					c0,2.568,0.096,3.361,0.312,4.033c0.528,1.537,1.608,2.4,3.385,2.4c1.704,0,2.712-0.912,3.36-2.184
					c0.048-0.121,0.191-0.193,0.336-0.121l1.439,0.697c0.12,0.07,0.145,0.191,0.097,0.311c-0.937,2.088-2.809,3.289-5.232,3.289
					c-2.664,0-4.608-1.271-5.425-3.84C7.498,241.428,7.378,240.492,7.378,237.779z"/>
				<path fill="#260859" d="M25.762,229.859c0.048-0.145,0.12-0.24,0.288-0.24h1.561c0.168,0,0.264,0.096,0.312,0.24l5.593,15.842
					c0.048,0.145-0.024,0.24-0.168,0.24h-1.68c-0.169,0-0.265-0.072-0.312-0.24l-1.248-3.553h-6.601l-1.248,3.553
					c-0.072,0.168-0.168,0.24-0.312,0.24h-1.68c-0.145,0-0.216-0.096-0.168-0.24L25.762,229.859z M29.41,240.18l-2.568-7.416h-0.048
					l-2.592,7.416H29.41z"/>
				<path fill="#260859" d="M35.313,244.164c-0.096-0.096-0.119-0.24-0.023-0.359l1.056-1.248c0.097-0.119,0.217-0.119,0.336-0.023
					c1.057,0.84,2.688,1.68,4.561,1.68c2.257,0,3.601-1.129,3.601-2.785c0-1.391-0.792-2.328-3.408-2.664l-0.816-0.119
					c-3.168-0.432-4.8-1.945-4.8-4.512c0-2.904,2.088-4.777,5.328-4.777c1.92,0,3.769,0.625,4.969,1.512
					c0.12,0.096,0.144,0.217,0.048,0.336l-0.816,1.32c-0.096,0.121-0.216,0.121-0.336,0.049c-1.32-0.816-2.544-1.225-3.937-1.225
					c-1.992,0-3.096,1.08-3.096,2.641c0,1.367,0.912,2.279,3.432,2.615l0.792,0.121c3.192,0.432,4.801,1.896,4.801,4.561
					c0,2.855-2.017,4.92-5.952,4.92C38.746,246.205,36.514,245.27,35.313,244.164z"/>
				<path fill="#260859" d="M50.29,229.859c0-0.145,0.096-0.24,0.239-0.24h1.656c0.145,0,0.24,0.096,0.24,0.24v8.496l6.937-8.52
					c0.12-0.168,0.216-0.217,0.384-0.217h1.969c0.144,0,0.216,0.145,0.096,0.289l-5.088,6.119l5.592,9.65
					c0.097,0.143,0.024,0.264-0.144,0.264H60.25c-0.168,0-0.239-0.049-0.336-0.217l-4.584-8.041l-2.904,3.506v4.512
					c0,0.145-0.096,0.24-0.24,0.24h-1.656c-0.144,0-0.239-0.096-0.239-0.24V229.859z"/>
				<path fill="#260859" d="M125.411,245.941c-0.168,0-0.239-0.072-0.312-0.24l-3.265-6.674h-3.601
					c-0.096,0-0.144,0.049-0.144,0.145v6.529c0,0.145-0.096,0.24-0.24,0.24h-1.656c-0.144,0-0.239-0.096-0.239-0.24v-15.842
					c0-0.145,0.096-0.24,0.239-0.24h5.905c3.048,0,5.112,1.873,5.112,4.705c0,2.207-1.248,3.816-3.217,4.439l3.48,6.889
					c0.096,0.145,0.024,0.289-0.144,0.289H125.411z M125.075,234.324c0-1.705-1.128-2.713-3.024-2.713h-3.816
					c-0.096,0-0.144,0.049-0.144,0.145v5.137c0,0.096,0.048,0.145,0.144,0.145h3.816
					C123.947,237.037,125.075,236.027,125.075,234.324z"/>
				<path fill="#260859" d="M134.986,229.859c0.048-0.145,0.12-0.24,0.288-0.24h1.561c0.168,0,0.264,0.096,0.312,0.24l5.593,15.842
					c0.048,0.145-0.024,0.24-0.168,0.24h-1.68c-0.169,0-0.265-0.072-0.312-0.24l-1.248-3.553h-6.601l-1.248,3.553
					c-0.072,0.168-0.168,0.24-0.312,0.24h-1.68c-0.145,0-0.216-0.096-0.168-0.24L134.986,229.859z M138.635,240.18l-2.568-7.416
					h-0.048l-2.592,7.416H138.635z"/>
				<path fill="#260859" d="M144.538,244.164c-0.096-0.096-0.119-0.24-0.023-0.359l1.056-1.248c0.097-0.119,0.217-0.119,0.336-0.023
					c1.057,0.84,2.688,1.68,4.561,1.68c2.257,0,3.601-1.129,3.601-2.785c0-1.391-0.792-2.328-3.408-2.664l-0.816-0.119
					c-3.168-0.432-4.8-1.945-4.8-4.512c0-2.904,2.088-4.777,5.328-4.777c1.92,0,3.769,0.625,4.969,1.512
					c0.12,0.096,0.144,0.217,0.048,0.336l-0.816,1.32c-0.096,0.121-0.216,0.121-0.336,0.049c-1.32-0.816-2.544-1.225-3.937-1.225
					c-1.992,0-3.096,1.08-3.096,2.641c0,1.367,0.912,2.279,3.432,2.615l0.792,0.121c3.192,0.432,4.801,1.896,4.801,4.561
					c0,2.855-2.017,4.92-5.952,4.92C147.971,246.205,145.738,245.27,144.538,244.164z"/>
				<path fill="#260859" d="M159.515,229.859c0-0.145,0.096-0.24,0.239-0.24h1.656c0.145,0,0.24,0.096,0.24,0.24v8.496l6.937-8.52
					c0.12-0.168,0.216-0.217,0.384-0.217h1.969c0.144,0,0.216,0.145,0.096,0.289l-5.088,6.119l5.592,9.65
					c0.097,0.143,0.024,0.264-0.144,0.264h-1.921c-0.168,0-0.239-0.049-0.336-0.217l-4.584-8.041l-2.904,3.506v4.512
					c0,0.145-0.096,0.24-0.24,0.24h-1.656c-0.144,0-0.239-0.096-0.239-0.24V229.859z"/>
				<path fill="#260859" d="M9.997,277.182c0.028-0.168,0.141-0.281,0.309-0.281h3.388c0.168,0,0.252,0.113,0.224,0.281
					l-2.659,15.092c-0.028,0.111,0.027,0.168,0.14,0.168h7.756c0.168,0,0.252,0.111,0.224,0.279l-0.531,2.939
					c-0.028,0.168-0.141,0.281-0.28,0.281H6.974c-0.168,0-0.28-0.113-0.252-0.281L9.997,277.182z"/>
				<path fill="#260859" d="M21.45,291.293c0-1.652,0.363-3.977,1.119-5.488c1.177-2.408,3.192-3.725,6.301-3.725
					c2.855,0,5.012,1.652,5.012,4.762c0,0.727-0.084,1.623-0.364,3.164c-0.028,0.168-0.168,0.279-0.336,0.279h-7.924
					c-0.112,0-0.168,0.057-0.196,0.168c-0.027,0.141-0.027,0.279-0.027,0.42c0,1.707,0.867,2.352,2.436,2.352
					c1.176,0,2.352-0.588,3.248-1.316c0.168-0.139,0.308-0.111,0.42,0l1.372,1.652c0.112,0.141,0.112,0.309-0.028,0.449
					c-1.428,1.314-3.304,2.238-5.796,2.238C23.382,296.248,21.45,294.514,21.45,291.293z M30.073,287.793
					c0.112,0,0.168-0.057,0.196-0.168c0.057-0.279,0.084-0.561,0.084-0.756c0-1.316-0.7-1.904-1.96-1.904
					c-1.092,0-1.988,0.531-2.464,1.512c-0.168,0.336-0.252,0.645-0.336,1.121c-0.028,0.139,0,0.195,0.112,0.195H30.073z"/>
				<path fill="#260859" d="M38.894,295.941c-0.168,0-0.279-0.113-0.308-0.281l-2.38-12.99c0-0.17,0.084-0.281,0.252-0.281h3.276
					c0.168,0,0.279,0.057,0.308,0.281l1.092,8.23h0.057l3.976-8.23c0.084-0.225,0.196-0.281,0.392-0.281h3.416
					c0.168,0,0.252,0.111,0.168,0.281l-6.943,12.99c-0.084,0.168-0.196,0.281-0.364,0.281H38.894z"/>
				<path fill="#260859" d="M49.142,291.293c0-1.652,0.363-3.977,1.119-5.488c1.177-2.408,3.192-3.725,6.301-3.725
					c2.855,0,5.012,1.652,5.012,4.762c0,0.727-0.084,1.623-0.364,3.164c-0.028,0.168-0.168,0.279-0.336,0.279h-7.924
					c-0.112,0-0.168,0.057-0.196,0.168c-0.027,0.141-0.027,0.279-0.027,0.42c0,1.707,0.867,2.352,2.436,2.352
					c1.176,0,2.352-0.588,3.248-1.316c0.168-0.139,0.308-0.111,0.42,0l1.372,1.652c0.112,0.141,0.112,0.309-0.028,0.449
					c-1.428,1.314-3.304,2.238-5.796,2.238C51.073,296.248,49.142,294.514,49.142,291.293z M57.765,287.793
					c0.112,0,0.168-0.057,0.196-0.168c0.057-0.279,0.084-0.561,0.084-0.756c0-1.316-0.7-1.904-1.96-1.904
					c-1.092,0-1.988,0.531-2.464,1.512c-0.168,0.336-0.252,0.645-0.336,1.121c-0.028,0.139,0,0.195,0.112,0.195H57.765z"/>
				<path fill="#260859" d="M63.226,295.941c-0.169,0-0.28-0.113-0.253-0.281l2.297-12.99c0.027-0.17,0.14-0.281,0.308-0.281h3.22
					c0.168,0,0.252,0.111,0.225,0.281l-0.225,1.203h0.028c0.812-1.119,2.128-1.793,3.64-1.793c0.924,0,1.708,0.309,2.156,0.812
					c0.112,0.141,0.14,0.252,0.028,0.393L72.745,286c-0.14,0.141-0.252,0.17-0.392,0.057c-0.532-0.363-1.064-0.615-1.736-0.615
					c-1.456,0-2.296,1.092-2.632,3.051l-1.261,7.168c-0.027,0.168-0.111,0.281-0.279,0.281H63.226z"/>
				<path fill="#260859" d="M81.453,295.941c-0.14,0-0.252-0.113-0.224-0.281l0.14-0.924h-0.027
					c-0.784,0.896-2.045,1.512-3.864,1.512c-2.044,0-3.668-1.287-3.668-3.443c0-3.275,2.296-5.012,6.244-5.012h2.352
					c0.112,0,0.196-0.057,0.224-0.168l0.112-0.615c0.224-1.316-0.224-1.904-2.38-1.904c-1.344,0-2.38,0.42-3.08,0.895
					c-0.168,0.113-0.28,0.057-0.336-0.084l-0.84-2.1c-0.056-0.168,0-0.307,0.14-0.391c1.232-0.812,3.136-1.346,5.097-1.346
					c4.004,0,5.6,1.316,4.955,4.873l-1.567,8.707c-0.028,0.168-0.141,0.281-0.309,0.281H81.453z M81.957,291.488l0.168-1.035
					c0.028-0.111-0.027-0.168-0.14-0.168h-1.904c-1.848,0-2.632,0.672-2.632,1.904c0,0.756,0.561,1.26,1.68,1.26
					C80.726,293.449,81.762,292.777,81.957,291.488z"/>
				<path fill="#260859" d="M87.445,299.076c-0.112-0.139-0.084-0.336,0.056-0.447l2.072-1.736c0.168-0.141,0.308-0.141,0.448,0
					c0.728,0.756,1.428,1.232,2.492,1.232c1.819,0,2.827-0.98,3.191-3.08l0.225-1.232h-0.028c-0.756,1.008-1.932,1.625-3.584,1.625
					c-2.632,0-3.864-1.709-3.864-4.34c0-1.514,0.448-4.229,1.204-5.797c1.008-2.156,2.66-3.221,4.9-3.221
					c1.68,0,2.716,0.674,3.107,1.652h0.028l0.196-1.062c0.027-0.17,0.14-0.281,0.308-0.281h3.136c0.168,0,0.252,0.111,0.225,0.281
					l-2.072,11.955c-0.84,4.844-3.08,6.664-7.28,6.664C90.021,301.289,88.258,300.336,87.445,299.076z M96.182,290.789
					c0.447-0.867,0.756-2.492,0.756-3.5c0-1.316-0.504-2.045-1.765-2.045c-0.979,0-1.651,0.477-2.155,1.514
					c-0.448,0.867-0.756,2.49-0.756,3.5c0,1.314,0.504,2.043,1.764,2.043C95.005,292.301,95.678,291.824,96.182,290.789z"/>
				<path fill="#260859" d="M102.93,291.293c0-1.652,0.363-3.977,1.119-5.488c1.177-2.408,3.192-3.725,6.301-3.725
					c2.855,0,5.012,1.652,5.012,4.762c0,0.727-0.084,1.623-0.364,3.164c-0.028,0.168-0.168,0.279-0.336,0.279h-7.924
					c-0.112,0-0.168,0.057-0.196,0.168c-0.027,0.141-0.027,0.279-0.027,0.42c0,1.707,0.867,2.352,2.436,2.352
					c1.176,0,2.352-0.588,3.248-1.316c0.168-0.139,0.308-0.111,0.42,0l1.372,1.652c0.112,0.141,0.112,0.309-0.028,0.449
					c-1.428,1.314-3.304,2.238-5.796,2.238C104.861,296.248,102.93,294.514,102.93,291.293z M111.553,287.793
					c0.112,0,0.168-0.057,0.196-0.168c0.056-0.279,0.084-0.561,0.084-0.756c0-1.316-0.7-1.904-1.96-1.904
					c-1.092,0-1.988,0.531-2.464,1.512c-0.168,0.336-0.252,0.645-0.336,1.121c-0.028,0.139,0,0.195,0.112,0.195H111.553z"/>
				<path fill="#260859" d="M123.481,295.941c-0.14,0-0.252-0.113-0.225-0.281l3.276-18.479c0.028-0.168,0.14-0.281,0.28-0.281
					h7.084c3.556,0,5.46,1.877,5.46,4.816c0,4.76-3.192,7.336-7.561,7.336h-3.275c-0.112,0-0.196,0.057-0.196,0.168l-1.147,6.439
					c-0.028,0.168-0.141,0.281-0.309,0.281H123.481z M135.381,282.361c0-1.26-0.84-2.045-2.296-2.045h-3.023
					c-0.112,0-0.168,0.057-0.196,0.168l-0.896,4.984c0,0.111,0.027,0.168,0.14,0.168h3.023
					C134.009,285.637,135.381,284.377,135.381,282.361z"/>
				<path fill="#260859" d="M139.722,291.377c0-1.596,0.447-4.145,1.203-5.684c1.261-2.576,3.444-3.613,6.272-3.613
					c3.107,0,5.096,1.766,5.096,4.873c0,1.596-0.448,4.145-1.204,5.684c-1.26,2.576-3.443,3.611-6.271,3.611
					C141.709,296.248,139.722,294.484,139.722,291.377z M147.617,291.545c0.476-0.98,0.896-3.305,0.896-4.229
					c0-1.316-0.504-2.072-1.819-2.072c-1.036,0-1.792,0.504-2.296,1.541c-0.477,0.98-0.896,3.305-0.896,4.229
					c0,1.314,0.504,2.07,1.82,2.07C146.357,293.084,147.113,292.58,147.617,291.545z"/>
				<path fill="#260859" d="M153.945,295.941c-0.169,0-0.28-0.113-0.253-0.281l2.297-12.99c0.027-0.17,0.14-0.281,0.308-0.281h3.22
					c0.168,0,0.252,0.111,0.225,0.281l-2.296,12.99c-0.028,0.168-0.112,0.281-0.28,0.281H153.945z M156.688,280.121
					c-0.168,0-0.252-0.111-0.224-0.279l0.504-2.66c0.028-0.168,0.14-0.281,0.308-0.281h3.221c0.168,0,0.252,0.113,0.224,0.281
					l-0.476,2.66c-0.028,0.168-0.141,0.279-0.309,0.279H156.688z"/>
				<path fill="#260859" d="M168.925,295.941c-0.141,0-0.252-0.113-0.225-0.281l1.372-7.783c0.252-1.596-0.224-2.604-1.567-2.604
					c-1.316,0-2.269,1.008-2.549,2.547l-1.372,7.84c-0.027,0.168-0.111,0.281-0.279,0.281h-3.22c-0.169,0-0.28-0.113-0.253-0.281
					l2.297-12.99c0.027-0.17,0.14-0.281,0.308-0.281h3.22c0.168,0,0.252,0.111,0.225,0.281l-0.196,1.008h0.028
					c0.783-0.896,2.016-1.598,3.695-1.598c2.94,0,4.061,2.156,3.557,5.041l-1.54,8.539c-0.028,0.168-0.141,0.281-0.309,0.281
					H168.925z"/>
				<path fill="#260859" d="M180.124,296.109c-3.107,0-3.92-1.457-3.388-4.48l1.176-6.328c0.028-0.111-0.027-0.168-0.14-0.168h-0.84
					c-0.168,0-0.225-0.111-0.196-0.279l0.392-2.184c0.028-0.17,0.141-0.281,0.309-0.281h0.84c0.112,0,0.168-0.057,0.196-0.168
					l0.644-3.641c0.028-0.168,0.168-0.279,0.336-0.279h3.164c0.168,0,0.252,0.111,0.224,0.279l-0.644,3.641
					c-0.028,0.111,0,0.168,0.112,0.168h1.708c0.168,0,0.252,0.111,0.224,0.281l-0.364,2.184c-0.027,0.168-0.168,0.279-0.336,0.279
					h-1.735c-0.084,0-0.141,0.057-0.168,0.168l-1.148,6.188c-0.196,1.064,0.056,1.4,0.98,1.4h0.615c0.168,0,0.252,0.111,0.225,0.279
					l-0.477,2.66c-0.027,0.168-0.14,0.281-0.308,0.281H180.124z"/>
				<path fill="#260859" d="M184.212,294.121c-0.084-0.084-0.056-0.279,0.056-0.393l2.017-1.875c0.14-0.113,0.279-0.113,0.392,0
					c1.036,0.895,2.353,1.428,3.752,1.428c1.484,0,2.38-0.812,2.38-1.625c0-0.615-0.42-0.924-1.596-1.035l-1.428-0.141
					c-2.38-0.252-3.696-1.512-3.696-3.387c0-3.221,2.576-5.014,6.104-5.014c2.128,0,4.004,0.785,5.012,1.709
					c0.111,0.111,0.084,0.279-0.028,0.393L195.384,286c-0.14,0.141-0.28,0.141-0.392,0.057c-0.812-0.588-1.933-1.064-3.276-1.064
					c-1.26,0-1.988,0.672-1.988,1.4c0,0.561,0.28,0.869,1.54,1.008l1.4,0.141c2.688,0.279,3.808,1.539,3.808,3.359
					c0,3.221-2.464,5.348-6.552,5.348C187.208,296.248,185.276,295.213,184.212,294.121z"/>
				<path fill="#260859" d="M7.954,312.859c0-0.145,0.096-0.24,0.239-0.24h1.561c0.192,0,0.312,0.072,0.384,0.24l4.873,10.992h0.071
					l4.776-10.992c0.072-0.168,0.192-0.24,0.385-0.24h1.56c0.145,0,0.24,0.096,0.24,0.24v15.842c0,0.145-0.096,0.24-0.24,0.24
					h-1.512c-0.145,0-0.24-0.096-0.24-0.24v-11.354h-0.072l-4.057,8.977c-0.096,0.217-0.216,0.289-0.432,0.289h-0.96
					c-0.24,0-0.36-0.072-0.456-0.289l-4.057-8.977H9.946v11.354c0,0.145-0.097,0.24-0.24,0.24H8.193
					c-0.144,0-0.239-0.096-0.239-0.24V312.859z"/>
				<path fill="#260859" d="M32.986,328.941c-0.144,0-0.24-0.096-0.24-0.24v-1.008h-0.023c-0.528,0.863-1.656,1.512-3.408,1.512
					c-2.185,0-3.864-1.129-3.864-3.457c0-2.424,1.68-3.551,4.488-3.551h2.616c0.096,0,0.144-0.049,0.144-0.145v-0.84
					c0-1.584-0.624-2.258-2.76-2.258c-1.297,0-2.112,0.338-2.784,0.816c-0.12,0.096-0.265,0.096-0.337-0.023l-0.647-1.104
					c-0.072-0.145-0.048-0.24,0.048-0.336c0.864-0.672,2.208-1.129,3.912-1.129c3.265,0,4.513,1.08,4.513,3.912v7.609
					c0,0.145-0.096,0.24-0.24,0.24H32.986z M32.698,325.221v-1.271c0-0.098-0.048-0.145-0.144-0.145H30.25
					c-1.992,0-2.856,0.576-2.856,1.871c0,1.178,0.864,1.801,2.4,1.801C31.595,327.477,32.698,326.637,32.698,325.221z"/>
				<path fill="#260859" d="M45.946,328.941c-0.144,0-0.24-0.096-0.24-0.24v-6.721c0-1.848-0.84-2.928-2.567-2.928
					c-1.561,0-2.641,1.104-2.641,2.807v6.842c0,0.145-0.096,0.24-0.24,0.24h-1.536c-0.144,0-0.24-0.096-0.24-0.24v-11.018
					c0-0.145,0.097-0.24,0.24-0.24h1.536c0.145,0,0.24,0.096,0.24,0.24v1.057h0.024c0.552-0.889,1.655-1.561,3.216-1.561
					c2.496,0,3.984,1.705,3.984,4.32v7.201c0,0.145-0.096,0.24-0.24,0.24H45.946z"/>
				<path fill="#260859" d="M58.498,328.941c-0.144,0-0.24-0.096-0.24-0.24v-1.008h-0.023c-0.528,0.863-1.656,1.512-3.408,1.512
					c-2.185,0-3.864-1.129-3.864-3.457c0-2.424,1.68-3.551,4.488-3.551h2.616c0.096,0,0.144-0.049,0.144-0.145v-0.84
					c0-1.584-0.624-2.258-2.76-2.258c-1.297,0-2.112,0.338-2.784,0.816c-0.12,0.096-0.265,0.096-0.337-0.023l-0.647-1.104
					c-0.072-0.145-0.048-0.24,0.048-0.336c0.864-0.672,2.208-1.129,3.912-1.129c3.265,0,4.513,1.08,4.513,3.912v7.609
					c0,0.145-0.096,0.24-0.24,0.24H58.498z M58.21,325.221v-1.271c0-0.098-0.048-0.145-0.144-0.145h-2.305
					c-1.992,0-2.856,0.576-2.856,1.871c0,1.178,0.864,1.801,2.4,1.801C57.106,327.477,58.21,326.637,58.21,325.221z"/>
				<path fill="#260859" d="M63.754,331.82c-0.097-0.119-0.097-0.215,0.023-0.336l0.984-0.982c0.12-0.121,0.24-0.121,0.36,0
					c0.792,0.719,1.607,1.15,2.712,1.15c1.896,0,2.904-0.982,2.904-3.096v-1.344h-0.024c-0.527,0.959-1.512,1.584-3.192,1.584
					c-1.943,0-3.288-0.984-3.864-2.785c-0.288-0.863-0.384-1.703-0.384-3.023s0.096-2.16,0.384-3.023
					c0.576-1.801,1.921-2.785,3.864-2.785c1.681,0,2.665,0.625,3.192,1.584h0.024v-1.08c0-0.145,0.096-0.24,0.24-0.24h1.536
					c0.144,0,0.239,0.096,0.239,0.24v10.754c0,3.264-1.775,5.088-5.016,5.088C66.13,333.525,64.521,332.83,63.754,331.82z
					 M70.475,325.221c0.191-0.576,0.264-1.248,0.264-2.232s-0.072-1.633-0.264-2.232c-0.408-1.176-1.249-1.703-2.448-1.703
					c-1.249,0-2.041,0.6-2.425,1.703c-0.191,0.6-0.288,1.297-0.288,2.232s0.097,1.656,0.288,2.232
					c0.384,1.129,1.176,1.729,2.425,1.729C69.226,326.949,70.066,326.396,70.475,325.221z"/>
				<path fill="#260859" d="M76.377,326.084c-0.24-0.744-0.384-1.584-0.384-2.904s0.12-2.207,0.359-2.904
					c0.648-1.992,2.328-3.096,4.513-3.096c2.208,0,3.864,1.129,4.513,3.096c0.239,0.744,0.359,1.537,0.359,3.289
					c0,0.145-0.096,0.24-0.264,0.24h-7.272c-0.096,0-0.145,0.047-0.145,0.145c0,0.623,0.072,1.008,0.192,1.391
					c0.456,1.32,1.488,1.992,2.904,1.992c1.368,0,2.328-0.551,2.952-1.271c0.12-0.119,0.24-0.145,0.36-0.049l0.983,0.889
					c0.12,0.096,0.12,0.217,0.024,0.336c-0.912,1.152-2.473,1.969-4.488,1.969C78.657,329.205,77.001,328.076,76.377,326.084z
					 M83.529,322.197c0.096,0,0.145-0.049,0.145-0.145c0-0.529-0.049-0.936-0.168-1.297c-0.385-1.152-1.345-1.801-2.641-1.801
					s-2.256,0.648-2.641,1.801c-0.119,0.361-0.168,0.768-0.168,1.297c0,0.096,0.049,0.145,0.145,0.145H83.529z"/>
				<path fill="#260859" d="M98.121,328.941c-0.144,0-0.24-0.096-0.24-0.24v-13.945c0-0.096-0.048-0.145-0.144-0.145h-4.464
					c-0.145,0-0.24-0.096-0.24-0.24v-1.512c0-0.145,0.096-0.24,0.24-0.24h11.353c0.144,0,0.24,0.096,0.24,0.24v1.512
					c0,0.145-0.097,0.24-0.24,0.24h-4.465c-0.096,0-0.144,0.049-0.144,0.145v13.945c0,0.145-0.096,0.24-0.24,0.24H98.121z"/>
				<path fill="#260859" d="M106.257,320.779c0-2.711,0.12-3.646,0.432-4.584c0.816-2.568,2.761-3.84,5.425-3.84
					c2.424,0,4.296,1.199,5.232,3.289c0.048,0.119,0.023,0.238-0.097,0.311l-1.439,0.697c-0.145,0.072-0.288,0-0.336-0.121
					c-0.648-1.271-1.656-2.184-3.36-2.184c-1.776,0-2.856,0.863-3.385,2.4c-0.216,0.672-0.312,1.465-0.312,4.031
					c0,2.568,0.096,3.361,0.312,4.033c0.528,1.537,1.608,2.4,3.385,2.4c1.704,0,2.712-0.912,3.36-2.184
					c0.048-0.121,0.191-0.193,0.336-0.121l1.439,0.697c0.12,0.07,0.145,0.191,0.097,0.311c-0.937,2.088-2.809,3.289-5.232,3.289
					c-2.664,0-4.608-1.271-5.425-3.84C106.377,324.428,106.257,323.492,106.257,320.779z"/>
				<path fill="#260859" d="M120.272,325.389c-0.312-0.936-0.432-1.92-0.432-4.609c0-2.688,0.12-3.672,0.432-4.607
					c0.84-2.52,2.809-3.816,5.545-3.816c2.76,0,4.729,1.297,5.568,3.816c0.312,0.936,0.432,1.92,0.432,4.607
					c0,2.689-0.12,3.674-0.432,4.609c-0.84,2.52-2.809,3.816-5.568,3.816C123.081,329.205,121.112,327.908,120.272,325.389z
					 M129.297,324.789c0.192-0.6,0.36-1.656,0.36-4.01c0-2.352-0.168-3.408-0.36-4.008c-0.504-1.561-1.655-2.424-3.479-2.424
					c-1.801,0-2.952,0.863-3.457,2.424c-0.191,0.6-0.359,1.656-0.359,4.008c0,2.354,0.168,3.41,0.359,4.01
					c0.505,1.561,1.656,2.424,3.457,2.424C127.642,327.213,128.793,326.35,129.297,324.789z"/>
				<path fill="#260859" d="M134.961,326.396h1.681c0.144,0,0.239,0.096,0.239,0.24v2.232c0,0.24-0.023,0.359-0.144,0.527
					l-1.488,1.969c-0.096,0.119-0.191,0.168-0.312,0.168s-0.217-0.096-0.217-0.217v-4.68
					C134.721,326.492,134.817,326.396,134.961,326.396z"/>
				<path fill="#260859" d="M145.545,331.82c-0.097-0.119-0.097-0.215,0.023-0.336l0.984-0.982c0.12-0.121,0.24-0.121,0.36,0
					c0.792,0.719,1.607,1.15,2.712,1.15c1.896,0,2.904-0.982,2.904-3.096v-1.344h-0.024c-0.527,0.959-1.512,1.584-3.192,1.584
					c-1.943,0-3.288-0.984-3.864-2.785c-0.288-0.863-0.384-1.703-0.384-3.023s0.096-2.16,0.384-3.023
					c0.576-1.801,1.921-2.785,3.864-2.785c1.681,0,2.665,0.625,3.192,1.584h0.024v-1.08c0-0.145,0.096-0.24,0.24-0.24h1.536
					c0.144,0,0.239,0.096,0.239,0.24v10.754c0,3.264-1.775,5.088-5.016,5.088C147.921,333.525,146.312,332.83,145.545,331.82z
					 M152.266,325.221c0.191-0.576,0.264-1.248,0.264-2.232s-0.072-1.633-0.264-2.232c-0.408-1.176-1.249-1.703-2.448-1.703
					c-1.249,0-2.041,0.6-2.425,1.703c-0.191,0.6-0.288,1.297-0.288,2.232s0.097,1.656,0.288,2.232
					c0.384,1.129,1.176,1.729,2.425,1.729C151.017,326.949,151.857,326.396,152.266,325.221z"/>
				<path fill="#260859" d="M158.168,326.084c-0.24-0.744-0.384-1.584-0.384-2.904s0.12-2.207,0.359-2.904
					c0.648-1.992,2.328-3.096,4.513-3.096c2.208,0,3.864,1.129,4.513,3.096c0.239,0.744,0.359,1.537,0.359,3.289
					c0,0.145-0.096,0.24-0.264,0.24h-7.272c-0.096,0-0.145,0.047-0.145,0.145c0,0.623,0.072,1.008,0.192,1.391
					c0.456,1.32,1.488,1.992,2.904,1.992c1.368,0,2.328-0.551,2.952-1.271c0.12-0.119,0.24-0.145,0.36-0.049l0.983,0.889
					c0.12,0.096,0.12,0.217,0.024,0.336c-0.912,1.152-2.473,1.969-4.488,1.969C160.448,329.205,158.792,328.076,158.168,326.084z
					 M165.32,322.197c0.096,0,0.145-0.049,0.145-0.145c0-0.529-0.049-0.936-0.168-1.297c-0.385-1.152-1.345-1.801-2.641-1.801
					s-2.256,0.648-2.641,1.801c-0.119,0.361-0.168,0.768-0.168,1.297c0,0.096,0.049,0.145,0.145,0.145H165.32z"/>
				<path fill="#260859" d="M178.232,328.941c-0.144,0-0.24-0.096-0.24-0.24v-6.721c0-1.848-0.84-2.928-2.567-2.928
					c-1.561,0-2.641,1.104-2.641,2.807v6.842c0,0.145-0.096,0.24-0.24,0.24h-1.536c-0.144,0-0.24-0.096-0.24-0.24v-11.018
					c0-0.145,0.097-0.24,0.24-0.24h1.536c0.145,0,0.24,0.096,0.24,0.24v1.057h0.024c0.552-0.889,1.655-1.561,3.216-1.561
					c2.496,0,3.984,1.705,3.984,4.32v7.201c0,0.145-0.096,0.24-0.24,0.24H178.232z"/>
				<path fill="#260859" d="M183.512,326.084c-0.24-0.744-0.384-1.584-0.384-2.904s0.12-2.207,0.359-2.904
					c0.648-1.992,2.328-3.096,4.513-3.096c2.208,0,3.864,1.129,4.513,3.096c0.239,0.744,0.359,1.537,0.359,3.289
					c0,0.145-0.096,0.24-0.264,0.24h-7.272c-0.096,0-0.145,0.047-0.145,0.145c0,0.623,0.072,1.008,0.192,1.391
					c0.456,1.32,1.488,1.992,2.904,1.992c1.368,0,2.328-0.551,2.952-1.271c0.12-0.119,0.24-0.145,0.36-0.049l0.983,0.889
					c0.12,0.096,0.12,0.217,0.024,0.336c-0.912,1.152-2.473,1.969-4.488,1.969C185.792,329.205,184.136,328.076,183.512,326.084z
					 M190.664,322.197c0.096,0,0.145-0.049,0.145-0.145c0-0.529-0.049-0.936-0.168-1.297c-0.385-1.152-1.345-1.801-2.641-1.801
					s-2.256,0.648-2.641,1.801c-0.119,0.361-0.168,0.768-0.168,1.297c0,0.096,0.049,0.145,0.145,0.145H190.664z"/>
				<path fill="#260859" d="M196.352,328.941c-0.144,0-0.24-0.096-0.24-0.24v-11.018c0-0.145,0.097-0.24,0.24-0.24h1.536
					c0.145,0,0.24,0.096,0.24,0.24v1.176h0.024c0.504-0.984,1.512-1.68,3.048-1.68c0.912,0,1.776,0.336,2.353,0.865
					c0.12,0.119,0.144,0.215,0.048,0.336l-0.889,1.176c-0.096,0.119-0.216,0.143-0.336,0.047c-0.527-0.336-1.104-0.551-1.775-0.551
					c-1.753,0-2.473,1.367-2.473,3.359v6.289c0,0.145-0.096,0.24-0.24,0.24H196.352z"/>
				<path fill="#260859" d="M212.336,328.941c-0.144,0-0.24-0.096-0.24-0.24v-1.008h-0.023c-0.528,0.863-1.656,1.512-3.408,1.512
					c-2.185,0-3.864-1.129-3.864-3.457c0-2.424,1.68-3.551,4.488-3.551h2.616c0.096,0,0.144-0.049,0.144-0.145v-0.84
					c0-1.584-0.624-2.258-2.76-2.258c-1.297,0-2.112,0.338-2.784,0.816c-0.12,0.096-0.265,0.096-0.337-0.023l-0.647-1.104
					c-0.072-0.145-0.048-0.24,0.048-0.336c0.864-0.672,2.208-1.129,3.912-1.129c3.265,0,4.513,1.08,4.513,3.912v7.609
					c0,0.145-0.096,0.24-0.24,0.24H212.336z M212.048,325.221v-1.271c0-0.098-0.048-0.145-0.144-0.145H209.6
					c-1.992,0-2.856,0.576-2.856,1.871c0,1.178,0.864,1.801,2.4,1.801C210.944,327.477,212.048,326.637,212.048,325.221z"/>
				<path fill="#260859" d="M221.168,329.061c-2.232,0-3.097-1.008-3.097-3.264v-6.576c0-0.096-0.048-0.145-0.144-0.145h-0.96
					c-0.145,0-0.24-0.096-0.24-0.24v-1.152c0-0.145,0.096-0.24,0.24-0.24h0.96c0.096,0,0.144-0.047,0.144-0.143v-3.24
					c0-0.145,0.097-0.24,0.24-0.24h1.536c0.144,0,0.24,0.096,0.24,0.24v3.24c0,0.096,0.048,0.143,0.144,0.143h1.824
					c0.145,0,0.24,0.096,0.24,0.24v1.152c0,0.145-0.096,0.24-0.24,0.24h-1.824c-0.096,0-0.144,0.049-0.144,0.145v6.504
					c0,1.152,0.432,1.465,1.464,1.465h0.504c0.145,0,0.24,0.096,0.24,0.24v1.391c0,0.145-0.096,0.24-0.24,0.24H221.168z"/>
				<path fill="#260859" d="M225.104,326.084c-0.24-0.744-0.384-1.584-0.384-2.904s0.12-2.207,0.359-2.904
					c0.648-1.992,2.328-3.096,4.513-3.096c2.208,0,3.864,1.129,4.513,3.096c0.239,0.744,0.359,1.537,0.359,3.289
					c0,0.145-0.096,0.24-0.264,0.24h-7.272c-0.096,0-0.145,0.047-0.145,0.145c0,0.623,0.072,1.008,0.192,1.391
					c0.456,1.32,1.488,1.992,2.904,1.992c1.368,0,2.328-0.551,2.952-1.271c0.12-0.119,0.24-0.145,0.36-0.049l0.983,0.889
					c0.12,0.096,0.12,0.217,0.024,0.336c-0.912,1.152-2.473,1.969-4.488,1.969C227.384,329.205,225.728,328.076,225.104,326.084z
					 M232.256,322.197c0.096,0,0.145-0.049,0.145-0.145c0-0.529-0.049-0.936-0.168-1.297c-0.385-1.152-1.345-1.801-2.641-1.801
					s-2.256,0.648-2.641,1.801c-0.119,0.361-0.168,0.768-0.168,1.297c0,0.096,0.049,0.145,0.145,0.145H232.256z"/>
				<path fill="#260859" d="M243.703,328.941c-0.144,0-0.24-0.096-0.24-0.24v-11.018c0-0.145,0.097-0.24,0.24-0.24h1.536
					c0.145,0,0.24,0.096,0.24,0.24v1.176h0.024c0.504-0.984,1.512-1.68,3.048-1.68c0.912,0,1.776,0.336,2.353,0.865
					c0.12,0.119,0.144,0.215,0.048,0.336l-0.889,1.176c-0.096,0.119-0.216,0.143-0.336,0.047c-0.527-0.336-1.104-0.551-1.775-0.551
					c-1.753,0-2.473,1.367-2.473,3.359v6.289c0,0.145-0.096,0.24-0.24,0.24H243.703z"/>
				<path fill="#260859" d="M252.56,326.084c-0.24-0.744-0.384-1.584-0.384-2.904s0.12-2.207,0.359-2.904
					c0.648-1.992,2.328-3.096,4.513-3.096c2.208,0,3.864,1.129,4.513,3.096c0.239,0.744,0.359,1.537,0.359,3.289
					c0,0.145-0.096,0.24-0.264,0.24h-7.272c-0.096,0-0.145,0.047-0.145,0.145c0,0.623,0.072,1.008,0.192,1.391
					c0.456,1.32,1.488,1.992,2.904,1.992c1.368,0,2.328-0.551,2.952-1.271c0.12-0.119,0.24-0.145,0.36-0.049l0.983,0.889
					c0.12,0.096,0.12,0.217,0.024,0.336c-0.912,1.152-2.473,1.969-4.488,1.969C254.84,329.205,253.184,328.076,252.56,326.084z
					 M259.712,322.197c0.096,0,0.145-0.049,0.145-0.145c0-0.529-0.049-0.936-0.168-1.297c-0.385-1.152-1.345-1.801-2.641-1.801
					s-2.256,0.648-2.641,1.801c-0.119,0.361-0.168,0.768-0.168,1.297c0,0.096,0.049,0.145,0.145,0.145H259.712z"/>
				<path fill="#260859" d="M268.231,328.941c-0.168,0-0.239-0.096-0.288-0.24l-4.128-11.018c-0.048-0.145,0.024-0.24,0.192-0.24
					h1.656c0.168,0,0.239,0.072,0.312,0.24l2.977,8.258H269l2.904-8.258c0.048-0.168,0.144-0.24,0.288-0.24h1.632
					c0.168,0,0.24,0.096,0.192,0.24l-4.104,11.018c-0.048,0.145-0.145,0.24-0.312,0.24H268.231z"/>
				<path fill="#260859" d="M276.199,326.084c-0.24-0.744-0.384-1.584-0.384-2.904s0.12-2.207,0.359-2.904
					c0.648-1.992,2.328-3.096,4.513-3.096c2.208,0,3.864,1.129,4.513,3.096c0.239,0.744,0.359,1.537,0.359,3.289
					c0,0.145-0.096,0.24-0.264,0.24h-7.272c-0.096,0-0.145,0.047-0.145,0.145c0,0.623,0.072,1.008,0.192,1.391
					c0.456,1.32,1.488,1.992,2.904,1.992c1.368,0,2.328-0.551,2.952-1.271c0.12-0.119,0.24-0.145,0.36-0.049l0.983,0.889
					c0.12,0.096,0.12,0.217,0.024,0.336c-0.912,1.152-2.473,1.969-4.488,1.969C278.479,329.205,276.823,328.076,276.199,326.084z
					 M283.352,322.197c0.096,0,0.145-0.049,0.145-0.145c0-0.529-0.049-0.936-0.168-1.297c-0.385-1.152-1.345-1.801-2.641-1.801
					s-2.256,0.648-2.641,1.801c-0.119,0.361-0.168,0.768-0.168,1.297c0,0.096,0.049,0.145,0.145,0.145H283.352z"/>
				<path fill="#260859" d="M296.264,328.941c-0.144,0-0.24-0.096-0.24-0.24v-6.721c0-1.848-0.84-2.928-2.567-2.928
					c-1.561,0-2.641,1.104-2.641,2.807v6.842c0,0.145-0.096,0.24-0.24,0.24h-1.536c-0.144,0-0.24-0.096-0.24-0.24v-11.018
					c0-0.145,0.097-0.24,0.24-0.24h1.536c0.145,0,0.24,0.096,0.24,0.24v1.057h0.024c0.552-0.889,1.655-1.561,3.216-1.561
					c2.496,0,3.984,1.705,3.984,4.32v7.201c0,0.145-0.096,0.24-0.24,0.24H296.264z"/>
				<path fill="#260859" d="M309.079,328.941c-0.144,0-0.239-0.096-0.239-0.24v-1.08h-0.024c-0.6,0.959-1.656,1.584-3.145,1.584
					c-2.52,0-3.984-1.729-3.984-4.344v-7.178c0-0.145,0.097-0.24,0.24-0.24h1.536c0.145,0,0.24,0.096,0.24,0.24v6.697
					c0,1.871,0.84,2.951,2.544,2.951c1.561,0,2.593-1.104,2.593-2.832v-6.816c0-0.145,0.096-0.24,0.239-0.24h1.536
					c0.145,0,0.24,0.096,0.24,0.24v11.018c0,0.145-0.096,0.24-0.24,0.24H309.079z"/>
				<path fill="#260859" d="M314.479,326.084c-0.24-0.744-0.384-1.584-0.384-2.904s0.12-2.207,0.359-2.904
					c0.648-1.992,2.328-3.096,4.513-3.096c2.208,0,3.864,1.129,4.513,3.096c0.239,0.744,0.359,1.537,0.359,3.289
					c0,0.145-0.096,0.24-0.264,0.24h-7.272c-0.096,0-0.145,0.047-0.145,0.145c0,0.623,0.072,1.008,0.192,1.391
					c0.456,1.32,1.488,1.992,2.904,1.992c1.368,0,2.328-0.551,2.952-1.271c0.12-0.119,0.24-0.145,0.36-0.049l0.983,0.889
					c0.12,0.096,0.12,0.217,0.024,0.336c-0.912,1.152-2.473,1.969-4.488,1.969C316.759,329.205,315.103,328.076,314.479,326.084z
					 M321.631,322.197c0.096,0,0.145-0.049,0.145-0.145c0-0.529-0.049-0.936-0.168-1.297c-0.385-1.152-1.345-1.801-2.641-1.801
					s-2.256,0.648-2.641,1.801c-0.119,0.361-0.168,0.768-0.168,1.297c0,0.096,0.049,0.145,0.145,0.145H321.631z"/>
				<path fill="#260859" d="M327.03,326.396h1.681c0.144,0,0.24,0.096,0.24,0.24v2.232c0,0.24-0.024,0.359-0.145,0.527l-1.488,1.969
					c-0.096,0.119-0.191,0.168-0.312,0.168s-0.217-0.096-0.217-0.217v-4.68C326.79,326.492,326.887,326.396,327.03,326.396z"/>
				<path fill="#260859" d="M345.055,328.941c-0.145,0-0.24-0.096-0.24-0.24v-1.104h-0.024c-0.552,0.912-1.536,1.607-3.264,1.607
					c-1.992,0-3.385-0.936-3.961-2.76c-0.312-0.912-0.407-1.824-0.407-3.266c0-1.416,0.096-2.328,0.407-3.24
					c0.576-1.824,1.969-2.76,3.961-2.76c1.728,0,2.712,0.672,3.264,1.584h0.024v-5.904c0-0.145,0.096-0.24,0.24-0.24h1.536
					c0.144,0,0.24,0.096,0.24,0.24v15.842c0,0.145-0.097,0.24-0.24,0.24H345.055z M344.551,325.58
					c0.191-0.551,0.264-1.248,0.264-2.4s-0.072-1.824-0.264-2.4c-0.385-1.15-1.272-1.727-2.545-1.727c-1.271,0-2.136,0.6-2.52,1.727
					c-0.192,0.625-0.265,1.369-0.265,2.4c0,1.057,0.072,1.801,0.265,2.4c0.384,1.129,1.248,1.752,2.52,1.752
					C343.278,327.332,344.166,326.732,344.551,325.58z"/>
				<path fill="#260859" d="M350.958,314.852c-0.144,0-0.24-0.096-0.24-0.24v-1.752c0-0.145,0.097-0.24,0.24-0.24h1.632
					c0.145,0,0.24,0.096,0.24,0.24v1.752c0,0.145-0.096,0.24-0.24,0.24H350.958z M351.006,328.941c-0.144,0-0.24-0.096-0.24-0.24
					v-11.018c0-0.145,0.097-0.24,0.24-0.24h1.536c0.145,0,0.24,0.096,0.24,0.24v11.018c0,0.145-0.096,0.24-0.24,0.24H351.006z"/>
				<path fill="#260859" d="M357.342,328.941c-0.144,0-0.239-0.096-0.239-0.24v-9.48c0-0.096-0.048-0.145-0.145-0.145h-0.984
					c-0.144,0-0.239-0.096-0.239-0.24v-1.152c0-0.145,0.096-0.24,0.239-0.24h0.984c0.097,0,0.145-0.047,0.145-0.143v-0.984
					c0-2.713,1.104-3.697,3.504-3.697h0.888c0.145,0,0.24,0.096,0.24,0.24v1.393c0,0.145-0.096,0.24-0.24,0.24h-0.624
					c-1.464,0-1.752,0.311-1.752,1.729v1.08c0,0.096,0.048,0.143,0.145,0.143h2.231c0.145,0,0.24,0.096,0.24,0.24v1.152
					c0,0.145-0.096,0.24-0.24,0.24h-2.231c-0.097,0-0.145,0.049-0.145,0.145v9.48c0,0.145-0.096,0.24-0.24,0.24H357.342z
					 M364.975,328.941c-0.144,0-0.24-0.096-0.24-0.24v-9.48c0-0.096-0.048-0.145-0.144-0.145h-0.984
					c-0.144,0-0.239-0.096-0.239-0.24v-1.152c0-0.145,0.096-0.24,0.239-0.24h0.984c0.096,0,0.144-0.047,0.144-0.143v-0.984
					c0-2.713,1.104-3.697,3.505-3.697h0.888c0.145,0,0.24,0.096,0.24,0.24v1.393c0,0.145-0.096,0.24-0.24,0.24h-0.624
					c-1.464,0-1.752,0.311-1.752,1.729v1.08c0,0.096,0.048,0.143,0.145,0.143h2.231c0.145,0,0.24,0.096,0.24,0.24v1.152
					c0,0.145-0.096,0.24-0.24,0.24h-2.231c-0.097,0-0.145,0.049-0.145,0.145v9.48c0,0.145-0.096,0.24-0.24,0.24H364.975z"/>
				<path fill="#260859" d="M371.67,326.084c-0.24-0.744-0.384-1.584-0.384-2.904s0.12-2.207,0.359-2.904
					c0.648-1.992,2.328-3.096,4.513-3.096c2.208,0,3.864,1.129,4.513,3.096c0.239,0.744,0.359,1.537,0.359,3.289
					c0,0.145-0.096,0.24-0.264,0.24h-7.272c-0.096,0-0.145,0.047-0.145,0.145c0,0.623,0.072,1.008,0.192,1.391
					c0.456,1.32,1.488,1.992,2.904,1.992c1.368,0,2.328-0.551,2.952-1.271c0.12-0.119,0.24-0.145,0.36-0.049l0.983,0.889
					c0.12,0.096,0.12,0.217,0.024,0.336c-0.912,1.152-2.473,1.969-4.488,1.969C373.95,329.205,372.294,328.076,371.67,326.084z
					 M378.822,322.197c0.096,0,0.145-0.049,0.145-0.145c0-0.529-0.049-0.936-0.168-1.297c-0.385-1.152-1.345-1.801-2.641-1.801
					s-2.256,0.648-2.641,1.801c-0.119,0.361-0.168,0.768-0.168,1.297c0,0.096,0.049,0.145,0.145,0.145H378.822z"/>
				<path fill="#260859" d="M384.51,328.941c-0.144,0-0.24-0.096-0.24-0.24v-11.018c0-0.145,0.097-0.24,0.24-0.24h1.536
					c0.145,0,0.24,0.096,0.24,0.24v1.176h0.024c0.504-0.984,1.512-1.68,3.048-1.68c0.912,0,1.776,0.336,2.353,0.865
					c0.12,0.119,0.144,0.215,0.048,0.336l-0.889,1.176c-0.096,0.119-0.216,0.143-0.336,0.047c-0.527-0.336-1.104-0.551-1.775-0.551
					c-1.753,0-2.473,1.367-2.473,3.359v6.289c0,0.145-0.096,0.24-0.24,0.24H384.51z"/>
				<path fill="#260859" d="M393.366,326.084c-0.24-0.744-0.384-1.584-0.384-2.904s0.12-2.207,0.359-2.904
					c0.648-1.992,2.328-3.096,4.513-3.096c2.208,0,3.864,1.129,4.513,3.096c0.239,0.744,0.359,1.537,0.359,3.289
					c0,0.145-0.096,0.24-0.264,0.24h-7.272c-0.096,0-0.145,0.047-0.145,0.145c0,0.623,0.072,1.008,0.192,1.391
					c0.456,1.32,1.488,1.992,2.904,1.992c1.368,0,2.328-0.551,2.952-1.271c0.12-0.119,0.24-0.145,0.36-0.049l0.983,0.889
					c0.12,0.096,0.12,0.217,0.024,0.336c-0.912,1.152-2.473,1.969-4.488,1.969C395.646,329.205,393.99,328.076,393.366,326.084z
					 M400.519,322.197c0.096,0,0.145-0.049,0.145-0.145c0-0.529-0.049-0.936-0.168-1.297c-0.385-1.152-1.345-1.801-2.641-1.801
					s-2.256,0.648-2.641,1.801c-0.119,0.361-0.168,0.768-0.168,1.297c0,0.096,0.049,0.145,0.145,0.145H400.519z"/>
				<path fill="#260859" d="M413.431,328.941c-0.144,0-0.24-0.096-0.24-0.24v-6.721c0-1.848-0.84-2.928-2.567-2.928
					c-1.561,0-2.641,1.104-2.641,2.807v6.842c0,0.145-0.096,0.24-0.24,0.24h-1.536c-0.144,0-0.24-0.096-0.24-0.24v-11.018
					c0-0.145,0.097-0.24,0.24-0.24h1.536c0.145,0,0.24,0.096,0.24,0.24v1.057h0.024c0.552-0.889,1.655-1.561,3.216-1.561
					c2.496,0,3.984,1.705,3.984,4.32v7.201c0,0.145-0.096,0.24-0.24,0.24H413.431z"/>
				<path fill="#260859" d="M422.358,329.061c-2.232,0-3.097-1.008-3.097-3.264v-6.576c0-0.096-0.048-0.145-0.144-0.145h-0.96
					c-0.145,0-0.24-0.096-0.24-0.24v-1.152c0-0.145,0.096-0.24,0.24-0.24h0.96c0.096,0,0.144-0.047,0.144-0.143v-3.24
					c0-0.145,0.096-0.24,0.24-0.24h1.536c0.144,0,0.24,0.096,0.24,0.24v3.24c0,0.096,0.048,0.143,0.144,0.143h1.824
					c0.145,0,0.24,0.096,0.24,0.24v1.152c0,0.145-0.096,0.24-0.24,0.24h-1.824c-0.096,0-0.144,0.049-0.144,0.145v6.504
					c0,1.152,0.432,1.465,1.464,1.465h0.504c0.145,0,0.24,0.096,0.24,0.24v1.391c0,0.145-0.096,0.24-0.24,0.24H422.358z"/>
				<path fill="#260859" d="M426.798,314.852c-0.144,0-0.24-0.096-0.24-0.24v-1.752c0-0.145,0.097-0.24,0.24-0.24h1.632
					c0.145,0,0.24,0.096,0.24,0.24v1.752c0,0.145-0.096,0.24-0.24,0.24H426.798z M426.846,328.941c-0.144,0-0.24-0.096-0.24-0.24
					v-11.018c0-0.145,0.097-0.24,0.24-0.24h1.536c0.145,0,0.24,0.096,0.24,0.24v11.018c0,0.145-0.096,0.24-0.24,0.24H426.846z"/>
				<path fill="#260859" d="M439.519,328.941c-0.144,0-0.24-0.096-0.24-0.24v-1.008h-0.023c-0.528,0.863-1.656,1.512-3.408,1.512
					c-2.185,0-3.864-1.129-3.864-3.457c0-2.424,1.68-3.551,4.488-3.551h2.616c0.096,0,0.144-0.049,0.144-0.145v-0.84
					c0-1.584-0.624-2.258-2.76-2.258c-1.297,0-2.112,0.338-2.784,0.816c-0.12,0.096-0.265,0.096-0.337-0.023l-0.647-1.104
					c-0.072-0.145-0.048-0.24,0.048-0.336c0.864-0.672,2.208-1.129,3.912-1.129c3.265,0,4.513,1.08,4.513,3.912v7.609
					c0,0.145-0.096,0.24-0.24,0.24H439.519z M439.23,325.221v-1.271c0-0.098-0.048-0.145-0.144-0.145h-2.305
					c-1.992,0-2.856,0.576-2.856,1.871c0,1.178,0.864,1.801,2.4,1.801C438.127,327.477,439.23,326.637,439.23,325.221z"/>
				<path fill="#260859" d="M448.351,329.061c-2.232,0-3.097-1.008-3.097-3.264v-6.576c0-0.096-0.048-0.145-0.144-0.145h-0.96
					c-0.145,0-0.24-0.096-0.24-0.24v-1.152c0-0.145,0.096-0.24,0.24-0.24h0.96c0.096,0,0.144-0.047,0.144-0.143v-3.24
					c0-0.145,0.096-0.24,0.24-0.24h1.536c0.144,0,0.24,0.096,0.24,0.24v3.24c0,0.096,0.048,0.143,0.144,0.143h1.824
					c0.145,0,0.24,0.096,0.24,0.24v1.152c0,0.145-0.096,0.24-0.24,0.24h-1.824c-0.096,0-0.144,0.049-0.144,0.145v6.504
					c0,1.152,0.432,1.465,1.464,1.465h0.504c0.145,0,0.24,0.096,0.24,0.24v1.391c0,0.145-0.096,0.24-0.24,0.24H448.351z"/>
				<path fill="#260859" d="M452.286,326.084c-0.24-0.744-0.384-1.584-0.384-2.904s0.12-2.207,0.359-2.904
					c0.648-1.992,2.328-3.096,4.513-3.096c2.208,0,3.864,1.129,4.513,3.096c0.239,0.744,0.359,1.537,0.359,3.289
					c0,0.145-0.096,0.24-0.264,0.24h-7.272c-0.096,0-0.145,0.047-0.145,0.145c0,0.623,0.072,1.008,0.192,1.391
					c0.456,1.32,1.488,1.992,2.904,1.992c1.368,0,2.328-0.551,2.952-1.271c0.12-0.119,0.24-0.145,0.36-0.049l0.983,0.889
					c0.12,0.096,0.12,0.217,0.024,0.336c-0.912,1.152-2.473,1.969-4.488,1.969C454.566,329.205,452.91,328.076,452.286,326.084z
					 M459.438,322.197c0.096,0,0.145-0.049,0.145-0.145c0-0.529-0.049-0.936-0.168-1.297c-0.385-1.152-1.345-1.801-2.641-1.801
					s-2.256,0.648-2.641,1.801c-0.119,0.361-0.168,0.768-0.168,1.297c0,0.096,0.049,0.145,0.145,0.145H459.438z"/>
				<path fill="#260859" d="M470.886,328.941c-0.144,0-0.24-0.096-0.24-0.24v-15.842c0-0.145,0.097-0.24,0.24-0.24h1.536
					c0.145,0,0.24,0.096,0.24,0.24v5.904h0.024c0.552-0.912,1.536-1.584,3.264-1.584c1.992,0,3.385,0.936,3.961,2.76
					c0.312,0.912,0.407,1.824,0.407,3.24c0,1.441-0.096,2.354-0.407,3.266c-0.576,1.824-1.969,2.76-3.961,2.76
					c-1.728,0-2.712-0.695-3.264-1.607h-0.024v1.104c0,0.145-0.096,0.24-0.24,0.24H470.886z M477.99,325.58
					c0.192-0.6,0.265-1.344,0.265-2.4c0-1.031-0.072-1.775-0.265-2.4c-0.384-1.127-1.248-1.727-2.52-1.727
					c-1.272,0-2.16,0.576-2.545,1.727c-0.191,0.576-0.264,1.248-0.264,2.4s0.072,1.85,0.264,2.4
					c0.385,1.152,1.272,1.752,2.545,1.752C476.742,327.332,477.606,326.709,477.99,325.58z"/>
				<path fill="#260859" d="M483.798,328.941c-0.144,0-0.24-0.096-0.24-0.24v-11.018c0-0.145,0.097-0.24,0.24-0.24h1.536
					c0.145,0,0.24,0.096,0.24,0.24v1.176h0.024c0.504-0.984,1.512-1.68,3.048-1.68c0.912,0,1.776,0.336,2.353,0.865
					c0.12,0.119,0.144,0.215,0.048,0.336l-0.889,1.176c-0.096,0.119-0.216,0.143-0.336,0.047c-0.527-0.336-1.104-0.551-1.775-0.551
					c-1.753,0-2.473,1.367-2.473,3.359v6.289c0,0.145-0.096,0.24-0.24,0.24H483.798z"/>
				<path fill="#260859" d="M499.782,328.941c-0.144,0-0.24-0.096-0.24-0.24v-1.008h-0.023c-0.528,0.863-1.656,1.512-3.408,1.512
					c-2.185,0-3.864-1.129-3.864-3.457c0-2.424,1.68-3.551,4.488-3.551h2.616c0.096,0,0.144-0.049,0.144-0.145v-0.84
					c0-1.584-0.624-2.258-2.76-2.258c-1.297,0-2.112,0.338-2.784,0.816c-0.12,0.096-0.265,0.096-0.337-0.023l-0.647-1.104
					c-0.072-0.145-0.048-0.24,0.048-0.336c0.864-0.672,2.208-1.129,3.912-1.129c3.265,0,4.513,1.08,4.513,3.912v7.609
					c0,0.145-0.096,0.24-0.24,0.24H499.782z M499.494,325.221v-1.271c0-0.098-0.048-0.145-0.144-0.145h-2.305
					c-1.992,0-2.856,0.576-2.856,1.871c0,1.178,0.864,1.801,2.4,1.801C498.391,327.477,499.494,326.637,499.494,325.221z"/>
				<path fill="#260859" d="M512.742,328.941c-0.144,0-0.24-0.096-0.24-0.24v-6.721c0-1.848-0.84-2.928-2.567-2.928
					c-1.561,0-2.641,1.104-2.641,2.807v6.842c0,0.145-0.096,0.24-0.24,0.24h-1.536c-0.144,0-0.24-0.096-0.24-0.24v-11.018
					c0-0.145,0.097-0.24,0.24-0.24h1.536c0.145,0,0.24,0.096,0.24,0.24v1.057h0.024c0.552-0.889,1.655-1.561,3.216-1.561
					c2.496,0,3.984,1.705,3.984,4.32v7.201c0,0.145-0.096,0.24-0.24,0.24H512.742z"/>
				<path fill="#260859" d="M525.534,328.941c-0.145,0-0.24-0.096-0.24-0.24v-1.104h-0.024c-0.552,0.912-1.536,1.607-3.264,1.607
					c-1.992,0-3.385-0.936-3.961-2.76c-0.312-0.912-0.407-1.824-0.407-3.266c0-1.416,0.096-2.328,0.407-3.24
					c0.576-1.824,1.969-2.76,3.961-2.76c1.728,0,2.712,0.672,3.264,1.584h0.024v-5.904c0-0.145,0.096-0.24,0.24-0.24h1.536
					c0.144,0,0.24,0.096,0.24,0.24v15.842c0,0.145-0.097,0.24-0.24,0.24H525.534z M525.03,325.58c0.191-0.551,0.264-1.248,0.264-2.4
					s-0.072-1.824-0.264-2.4c-0.385-1.15-1.272-1.727-2.545-1.727c-1.271,0-2.136,0.6-2.52,1.727
					c-0.192,0.625-0.265,1.369-0.265,2.4c0,1.057,0.072,1.801,0.265,2.4c0.384,1.129,1.248,1.752,2.52,1.752
					C523.758,327.332,524.646,326.732,525.03,325.58z"/>
			</g>
		</g>
		<g>
			<g>
				<line fill="none" stroke="#260859" stroke-width="2" stroke-miterlimit="10" x1="80" y1="162" x2="80" y2="146"/>
				<g>
					<path fill="#260859" d="M84.8,154.963c-0.232-0.148-0.542-0.079-0.69,0.154L80,161.569l-4.109-6.452
						c-0.148-0.233-0.458-0.303-0.69-0.154s-0.3,0.46-0.153,0.691l4.531,7.114C79.67,162.912,79.829,163,80,163
						s0.33-0.088,0.422-0.231l4.531-7.114c0.053-0.084,0.078-0.177,0.078-0.269C85.031,155.221,84.949,155.059,84.8,154.963z"/>
				</g>
			</g>
		</g>
		<g>
			<g>
				<line fill="none" stroke="#260859" stroke-width="2" stroke-miterlimit="10" x1="189" y1="145" x2="189" y2="161"/>
				<g>
					<path fill="#260859" d="M184.2,152.037c0.232,0.148,0.542,0.079,0.69-0.154l4.109-6.452l4.109,6.452
						c0.148,0.233,0.458,0.303,0.69,0.154s0.3-0.46,0.153-0.691l-4.531-7.114C189.33,144.088,189.171,144,189,144
						s-0.33,0.088-0.422,0.231l-4.531,7.114c-0.053,0.084-0.078,0.177-0.078,0.269C183.969,151.779,184.051,151.941,184.2,152.037z"
						/>
				</g>
			</g>
		</g>
		<g>
			<g>
				<line fill="none" stroke="#260859" stroke-width="2" stroke-miterlimit="10" x1="80" y1="246" x2="80" y2="230"/>
				<g>
					<path fill="#260859" d="M84.8,238.963c-0.232-0.148-0.542-0.079-0.69,0.154L80,245.569l-4.109-6.452
						c-0.148-0.233-0.458-0.303-0.69-0.154s-0.3,0.46-0.153,0.691l4.531,7.114C79.67,246.912,79.829,247,80,247
						s0.33-0.088,0.422-0.231l4.531-7.114c0.053-0.084,0.078-0.177,0.078-0.269C85.031,239.221,84.949,239.059,84.8,238.963z"/>
				</g>
			</g>
		</g>
		<g>
			<g>
				<line fill="none" stroke="#260859" stroke-width="2" stroke-miterlimit="10" x1="189" y1="229" x2="189" y2="245"/>
				<g>
					<path fill="#260859" d="M184.2,236.037c0.232,0.148,0.542,0.079,0.69-0.154l4.109-6.452l4.109,6.452
						c0.148,0.233,0.458,0.303,0.69,0.154s0.3-0.46,0.153-0.691l-4.531-7.114C189.33,228.088,189.171,228,189,228
						s-0.33,0.088-0.422,0.231l-4.531,7.114c-0.053,0.084-0.078,0.177-0.078,0.269C183.969,235.779,184.051,235.941,184.2,236.037z"
						/>
				</g>
			</g>
		</g>
	</g>
</g>
<g id="button">
</g>
<g id="_x33__column_grid">
</g>
<g id="_x32__column_grid">
</g>
</svg>
